<svg width="81" height="44" viewBox="0 0 81 44" fill="none" xmlns="http://www.w3.org/2000/svg">
<path d="M3.58462 17.0499H0.705811V17.7164H1.76032V19.4674H2.53363V17.7164H3.58462V17.0499Z" fill="white"/>
<path d="M6.41403 17.0499V17.896H5.06074V17.0499H4.28744V19.4674H5.06074V18.5694H6.41403V19.4674H7.18734V17.0499H6.41403Z" fill="white"/>
<path d="M10.3607 17.7061V17.0499H7.88966V19.4674H10.3607V18.8077H8.66297V18.5763H10.1217V17.9478H8.66297V17.7061H10.3607Z" fill="white"/>
<path d="M23.3924 16.8772H11.9539V26.9501H15.176V24.6477H23.3924C26.0141 24.6477 27.7423 22.9065 27.7423 20.7624C27.7423 18.6184 26.0141 16.8772 23.3924 16.8772ZM23.3924 21.8705H15.176V19.6544H23.3924C24.0076 19.6544 24.5202 20.1437 24.5202 20.7624C24.5202 21.3812 24.0076 21.8705 23.3924 21.8705Z" fill="white"/>
<path d="M33.9698 27.1228H39.8282C42.9624 27.1228 44.881 25.4823 44.881 22.3597V16.8772H41.6589V22.1727C41.6589 23.2375 41.1903 24.1728 39.8282 24.1728H33.9698C32.6224 24.1728 32.139 23.2375 32.139 22.1727V16.8772H28.9169V22.3597C28.9169 25.4823 30.8356 27.1228 33.9698 27.1228Z" fill="white"/>
<path d="M60.5585 16.8772L55.0956 21.0646L49.5008 16.8772H46.3519V26.9501H49.5008V20.7481L55.0956 25.0362L60.5585 20.7768V26.9501H63.7074V16.8772H60.5585Z" fill="white"/>
<path d="M76.6128 16.8772H65.1743V26.9501H68.3964V24.6477H76.6128C79.2344 24.6477 80.9626 22.9065 80.9626 20.7624C80.9626 18.6184 79.2344 16.8772 76.6128 16.8772ZM76.6128 21.8705H68.3964V19.6544H76.6128C77.2279 19.6544 77.7405 20.1437 77.7405 20.7624C77.7405 21.3812 77.2279 21.8705 76.6128 21.8705Z" fill="white"/>
</svg>
