<svg width="41" height="44" viewBox="0 0 41 44" fill="none" xmlns="http://www.w3.org/2000/svg">
<path d="M28.9994 30.6175C29.0259 30.6156 29.0526 30.6156 29.0792 30.6175H31.7335C31.7857 30.6744 31.8204 30.7453 31.8333 30.8215C32.3069 32.2401 32.7833 33.6587 33.2622 35.0773L34.783 39.5972C34.783 39.6652 34.8309 39.7292 34.8668 39.8211C34.9027 39.7332 34.9307 39.6732 34.9506 39.6132L36.627 34.6654L37.9322 30.7975C37.9562 30.7295 37.9841 30.6615 38.0121 30.5895H40.7582C40.7701 30.6092 40.7782 30.6309 40.7821 30.6535C40.7821 34.3414 40.7821 38.0292 40.7821 41.7171C40.7848 41.741 40.7848 41.7651 40.7821 41.7891C40.7821 41.7891 40.7542 41.7891 40.7422 41.7891H38.9461C38.9461 41.7531 38.9461 41.7211 38.9461 41.6931C38.9461 41.6651 38.9461 41.5611 38.9461 41.4931C38.9461 38.6905 38.9461 35.8906 38.9461 33.0934C38.9571 33.0058 38.9475 32.9167 38.9181 32.8334C38.7864 33.1534 38.6986 33.4574 38.5948 33.7494C38.491 34.0414 38.3912 34.3494 38.2875 34.6494C38.1837 34.9493 38.0879 35.2373 37.9841 35.5293C37.8803 35.8213 37.7806 36.1253 37.6768 36.4253L37.3694 37.3252C37.2657 37.6252 37.1659 37.9252 37.0621 38.2212C36.9583 38.5172 36.8585 38.8212 36.7547 39.1212C36.651 39.4212 36.5552 39.7052 36.4514 40.0011C36.3476 40.2971 36.2478 40.5971 36.1441 40.8971C36.0403 41.1971 35.9405 41.4971 35.8407 41.7891C35.685 41.8211 34.3479 41.8331 33.9368 41.7891C33.8729 41.7451 33.8649 41.6651 33.845 41.6011L32.8312 38.7172L30.9232 33.1174C30.9232 33.0574 30.8793 32.9974 30.8514 32.9334C30.7995 32.9334 30.8195 32.9934 30.8195 33.0174C30.8195 33.0414 30.8195 33.1494 30.8195 33.2174V41.5731C30.8195 41.6531 30.8195 41.7291 30.8195 41.8131C30.7928 41.8251 30.7646 41.8331 30.7356 41.8371H29.0033C28.9917 41.8031 28.9824 41.7683 28.9754 41.7331C28.9754 41.6811 28.9754 41.6291 28.9754 41.5771V30.8735C28.9635 30.7875 28.9717 30.6998 28.9994 30.6175Z" fill="white"/>
<path d="M12.2393 36.1253C12.2558 37.1209 12.0413 38.1068 11.6126 39.0052C11.2777 39.6974 10.7947 40.3071 10.198 40.7911C9.60122 41.275 8.9054 41.6212 8.15999 41.8051C7.45716 41.9887 6.72732 42.0456 6.0046 41.9731C5.31195 41.9145 4.6357 41.7302 4.00888 41.4291C3.37376 41.1187 2.8073 40.6837 2.34312 40.1499C1.87894 39.616 1.52648 38.9942 1.30666 38.3212C1.05211 37.574 0.937097 36.7862 0.96739 35.9973C0.981614 35.2954 1.11664 34.6012 1.36653 33.9454C1.67674 33.0655 2.21582 32.2845 2.92806 31.6833C3.6403 31.0821 4.49985 30.6824 5.41786 30.5255C6.48214 30.3026 7.5872 30.3787 8.61102 30.7455C9.37457 31.0086 10.067 31.4453 10.6341 32.0212C11.2012 32.5971 11.6277 33.2968 11.88 34.0654C12.0645 34.5886 12.1747 35.1353 12.2073 35.6893C12.2233 35.8533 12.2353 36.0333 12.2393 36.1253ZM10.3154 36.0853C10.312 35.8032 10.2827 35.522 10.2276 35.2453C10.1461 34.7489 9.97432 34.2716 9.72064 33.8374C9.49833 33.4434 9.19879 33.0986 8.84004 32.8236C8.48129 32.5487 8.07075 32.3493 7.63311 32.2375C6.97883 32.0663 6.29167 32.0663 5.63739 32.2375C4.86842 32.425 4.19004 32.8782 3.72149 33.5174C3.40336 33.9349 3.17257 34.4124 3.04294 34.9213C2.89953 35.4976 2.85498 36.0941 2.91123 36.6853C2.95013 37.1918 3.07429 37.6882 3.27844 38.1532C3.46346 38.5994 3.74044 39.0015 4.09123 39.333C4.44203 39.6646 4.85873 39.9181 5.31408 40.0771C5.8625 40.2724 6.4485 40.3381 7.02641 40.2691C7.66913 40.2124 8.28346 39.9777 8.80081 39.5914C9.31816 39.205 9.71816 38.6822 9.95614 38.0812C10.2094 37.4471 10.3316 36.7681 10.3154 36.0853Z" fill="white"/>
<path d="M40.9661 7.71848C40.9833 8.64818 40.7995 9.57059 40.4273 10.4224C40.0946 11.1854 39.5849 11.8579 38.9407 12.3838C38.2964 12.9097 37.5362 13.274 36.7232 13.4462C35.6153 13.7192 34.4523 13.665 33.3744 13.2902C32.5912 13.0333 31.8798 12.5941 31.2984 12.0088C30.7171 11.4234 30.2823 10.7085 30.0296 9.92239C29.7868 9.19614 29.6772 8.43184 29.7063 7.66648C29.7146 6.97867 29.8332 6.29667 30.0575 5.64657C30.3588 4.74897 30.8947 3.94868 31.6093 3.32896C32.3239 2.70923 33.1911 2.2927 34.1208 2.12271C35.1843 1.90045 36.2881 1.97234 37.314 2.3307C38.0824 2.58984 38.78 3.02476 39.3516 3.60101C39.9232 4.17725 40.353 4.87897 40.6069 5.65057C40.7927 6.16537 40.9043 6.70411 40.9382 7.2505C40.9502 7.43849 40.9621 7.62248 40.9661 7.71848ZM39.0502 7.81448C39.0502 7.59848 39.0223 7.37849 38.9984 7.1625C38.9472 6.6368 38.7983 6.12535 38.5593 5.65456C38.3554 5.23177 38.0664 4.85577 37.7106 4.55016C37.3548 4.24455 36.9399 4.01593 36.4917 3.87864C35.9287 3.70521 35.3341 3.66012 34.7514 3.74664C33.8783 3.85346 33.0809 4.29675 32.5282 4.98259C32.1245 5.48106 31.8502 6.07196 31.7299 6.70252C31.6129 7.24494 31.5832 7.80264 31.6421 8.35445C31.698 8.90214 31.8535 9.43493 32.1011 9.92639C32.4771 10.7229 33.1467 11.3424 33.9691 11.6543C34.5249 11.8653 35.1222 11.9433 35.7134 11.8823C36.24 11.8411 36.7511 11.6841 37.2102 11.4223C37.9062 11.0069 38.4367 10.3622 38.711 9.5984C38.9308 9.02923 39.0458 8.42479 39.0502 7.81448Z" fill="white"/>
<path d="M7.57723 8.39845L7.76882 8.48645C8.29667 8.70879 8.71946 9.12531 8.95029 9.6504C9.07096 9.91376 9.1607 10.1903 9.21772 10.4744C9.41463 11.3863 9.60888 12.2956 9.80047 13.2023C9.80047 13.2742 9.82841 13.3422 9.84039 13.4262C9.80781 13.436 9.77441 13.4427 9.7406 13.4462H7.92848C7.92848 13.4062 7.89256 13.3582 7.88058 13.3102C7.72093 12.5503 7.55994 11.7903 7.39762 11.0303C7.35771 10.8344 7.30182 10.6304 7.24994 10.4544C7.23817 10.4102 7.22213 10.3674 7.20204 10.3264C7.08999 9.98879 6.88388 9.69039 6.60804 9.46642C6.3322 9.24245 5.99816 9.10226 5.64537 9.06242C5.42975 9.03252 5.21243 9.01649 4.99477 9.01443H3.33831C3.2701 9.00159 3.19955 9.0129 3.13874 9.04642C3.11479 9.25042 3.13874 9.44641 3.13874 9.6704V13.4342C3.10465 13.4433 3.06997 13.45 3.03496 13.4542H1.32263C1.29341 13.4567 1.26404 13.4567 1.23482 13.4542V13.3382C1.23282 13.2996 1.23282 13.2609 1.23482 13.2223V2.4707C1.23482 2.3907 1.23482 2.3147 1.23482 2.22671C1.29065 2.22332 1.34663 2.22332 1.40246 2.22671H5.91679C6.44366 2.22095 6.96799 2.30065 7.46947 2.4627C7.76357 2.55945 8.04397 2.69389 8.30368 2.86268C8.88684 3.23982 9.31261 3.81725 9.50111 4.48661C9.68066 5.11258 9.68066 5.77657 9.50111 6.40253C9.39594 6.789 9.21081 7.14898 8.95776 7.45908C8.7047 7.76917 8.38937 8.02245 8.03226 8.20246C7.96441 8.24246 7.89256 8.27446 7.82071 8.31045L7.57723 8.39845ZM3.13874 7.3265H6.04053C6.25108 7.31821 6.45879 7.27496 6.65521 7.1985C6.89862 7.11165 7.11678 6.96574 7.29021 6.7738C7.46364 6.58186 7.58693 6.34987 7.64908 6.09855C7.70097 5.90035 7.7172 5.69447 7.69698 5.49057C7.6821 5.17907 7.57671 4.87872 7.39375 4.62645C7.21079 4.37417 6.95825 4.18098 6.66718 4.07063C6.43514 3.97578 6.18734 3.92557 5.93675 3.92264H3.36226C3.29353 3.91018 3.22266 3.91853 3.1587 3.94664C3.13076 4.14263 3.11878 5.94655 3.1587 7.1745C3.12677 7.1985 3.13475 7.2545 3.13874 7.3265Z" fill="white"/>
</svg>
