<svg width="76" height="44" viewBox="0 0 76 44" fill="none" xmlns="http://www.w3.org/2000/svg">
<path d="M46.6566 12.6458C46.8546 12.2494 47.2546 12.0042 47.691 12.0042V12.0001H47.7314C48.2648 11.9919 48.7012 12.4251 48.7092 12.9645C48.6931 13.2587 48.5961 13.5407 48.4224 13.7777L45.299 18.9225V23.8466C45.2747 24.4514 44.7656 24.9213 44.1676 24.8968C43.5696 24.8723 43.1049 24.3574 43.1291 23.7526V18.9225L40.0017 13.7736C39.8279 13.5407 39.7269 13.2587 39.7148 12.9645V12.9236C39.7431 12.3883 40.1997 11.9756 40.733 12.0042C41.1735 12.0001 41.5775 12.2535 41.7715 12.6499L44.212 16.675L46.6566 12.6458Z" fill="white"/>
<path d="M35.1651 12.0041C34.3529 12.0041 34.1307 12.6416 33.9529 13.1524L31.2578 21.0147L28.5788 13.2015L28.5627 13.1524C28.3849 12.6416 28.1627 12.0082 27.3505 12.0082C26.8171 11.9878 26.3686 12.4087 26.3484 12.9522V12.9726C26.3484 13.2096 26.3888 13.4426 26.4696 13.6673L30.0779 23.8587C30.2032 24.2265 30.4375 24.9089 31.2618 24.9089C32.0861 24.9089 32.3205 24.2265 32.4417 23.8628L36.054 13.655C36.1308 13.4344 36.1712 13.2055 36.1712 12.9685C36.1631 12.4291 35.7227 11.996 35.1893 12.0041H35.1651Z" fill="white"/>
<path d="M18.7763 18.4771L20.6875 16.5443H20.6835C21.7017 15.5145 21.7017 13.8472 20.6835 12.8174C19.6652 11.7877 18.0167 11.7877 16.9984 12.8174L15.0811 14.736L15.0791 14.7339L13.18 12.8134C12.1618 11.7836 10.5132 11.7836 9.49496 12.8134L7.59787 14.7319L5.68063 12.8174C4.66238 11.7877 3.01382 11.7877 1.99557 12.8174C0.977386 13.8472 0.977386 15.5145 1.99557 16.5443L3.90274 18.473L1.99155 20.4059H1.99557C0.977386 21.4357 0.977386 23.103 1.99557 24.1326C3.01382 25.1624 4.66238 25.1624 5.68063 24.1326L7.59995 22.212L9.49905 24.1326C10.5172 25.1624 12.1658 25.1624 13.1841 24.1326L15.0812 22.2141L16.9984 24.1326C18.0167 25.1624 19.6652 25.1624 20.6835 24.1326C21.7017 23.103 21.7017 21.4357 20.6835 20.4059L18.7763 18.4771Z" fill="white"/>
<path d="M62.0717 12.0042C61.4939 11.9838 61.005 12.4414 60.9848 13.0258V20.745L55.6026 12.9318C55.2228 12.372 54.9238 12.0042 54.2814 12.0042C53.9015 12.0042 53.2631 12.1636 53.2631 13.2383V23.7567C53.2348 24.3615 53.6995 24.8764 54.2975 24.905C54.8955 24.9336 55.4047 24.4636 55.4329 23.8588V16.1641L60.8151 23.9773C61.1949 24.5372 61.4939 24.905 62.1363 24.905C62.5161 24.905 63.1546 24.7456 63.1546 23.6709V13.1525C63.2031 12.5681 62.7707 12.0532 62.1929 12.0083C62.1794 12.0083 62.1659 12.0078 62.1525 12.0074C62.1255 12.0065 62.0986 12.0056 62.0717 12.0083V12.0042Z" fill="white"/>
<path d="M70.9853 22.7106H74.1612V22.7147H74.234C74.8037 22.7351 75.2522 23.2173 75.232 23.7975C75.2118 24.3737 74.735 24.8273 74.1612 24.8069H69.9509C69.9184 24.8097 69.8841 24.8088 69.8505 24.8078C69.8338 24.8074 69.8174 24.8069 69.8014 24.8069C69.2115 24.7619 68.771 24.2389 68.8155 23.6423V13.1239C68.8519 12.5273 69.361 12.0737 69.9509 12.1105H74.234C74.8037 12.1309 75.2522 12.6131 75.232 13.1934C75.2118 13.7696 74.735 14.2231 74.1612 14.2027H70.9853V17.4105H73.9026C74.4724 17.4228 74.9249 17.905 74.9088 18.4853C74.8966 19.0614 74.4198 19.5191 73.8461 19.5028H70.9853V22.7106Z" fill="white"/>
<path fill-rule="evenodd" clip-rule="evenodd" d="M69.6993 31.5919L70.1046 32.5505C70.1316 32.618 70.1721 32.6742 70.2261 32.7192C70.2846 32.7597 70.3476 32.78 70.4151 32.78C70.4961 32.78 70.5681 32.7507 70.6311 32.6922C70.6986 32.6292 70.7323 32.5482 70.7323 32.4492C70.7323 32.4042 70.7233 32.3592 70.7053 32.3142L69.011 28.2302C68.984 28.1582 68.9412 28.1019 68.8827 28.0614C68.8242 28.0209 68.7612 28.0007 68.6937 28.0007C68.6217 27.9962 68.5542 28.0142 68.4912 28.0547C68.4327 28.0952 68.3877 28.1537 68.3562 28.2302L66.6416 32.3749C66.6281 32.4154 66.6213 32.4514 66.6213 32.4829C66.6258 32.5685 66.6528 32.6405 66.7023 32.699C66.7518 32.753 66.8261 32.78 66.9251 32.78C66.9926 32.78 67.0534 32.7597 67.1074 32.7192C67.1614 32.6787 67.2019 32.6225 67.2289 32.5505L67.6283 31.5919H69.6993ZM68.6563 29.1245L67.8983 30.9439H69.4254L68.6563 29.1245Z" fill="white"/>
<path d="M74.9149 32.0914C75.0094 32.0914 75.0882 32.1229 75.1512 32.1859C75.2187 32.2489 75.2524 32.3277 75.2524 32.4222C75.2524 32.5167 75.2187 32.5954 75.1512 32.6584C75.0882 32.7215 75.0094 32.753 74.9149 32.753H73.2352C73.1362 32.753 73.053 32.7215 72.9855 32.6584C72.9225 32.5909 72.8909 32.5077 72.8909 32.4087V28.3719C72.8909 28.2729 72.9247 28.1919 72.9922 28.1289C73.0597 28.0614 73.1475 28.0277 73.2555 28.0277C73.3455 28.0277 73.4242 28.0614 73.4917 28.1289C73.5637 28.1919 73.5997 28.2729 73.5997 28.3719V32.0914H74.9149Z" fill="white"/>
<path d="M62.8678 32.753C62.7598 32.753 62.6721 32.7215 62.6046 32.6584C62.5415 32.5909 62.51 32.5077 62.51 32.4087V28.6757H61.3355C61.241 28.6757 61.16 28.6465 61.0925 28.5879C61.025 28.5249 60.9912 28.4439 60.9912 28.3449C60.9912 28.2504 61.025 28.1739 61.0925 28.1154C61.16 28.0569 61.241 28.0277 61.3355 28.0277H64.4069C64.5014 28.0277 64.5802 28.0592 64.6432 28.1222C64.7107 28.1807 64.7444 28.2572 64.7444 28.3517C64.7444 28.4507 64.7107 28.5294 64.6432 28.5879C64.5802 28.6465 64.5014 28.6757 64.4069 28.6757H63.2323V32.4087C63.2323 32.5077 63.1963 32.5909 63.1243 32.6584C63.0568 32.7215 62.9713 32.753 62.8678 32.753Z" fill="white"/>
<path d="M58.0427 28.0277C58.1327 28.0277 58.2047 28.0592 58.2587 28.1222C58.3173 28.1807 58.3465 28.2549 58.3465 28.3449V32.4087C58.3465 32.5077 58.3127 32.5909 58.2452 32.6584C58.1822 32.7215 58.1012 32.753 58.0022 32.753C57.9572 32.753 57.9077 32.744 57.8537 32.726C57.8042 32.7079 57.766 32.6832 57.739 32.6517L55.1198 29.2551V32.4424C55.1198 32.5279 55.0906 32.6022 55.032 32.6652C54.9735 32.7237 54.8993 32.753 54.8093 32.753C54.7148 32.753 54.6383 32.7237 54.5798 32.6652C54.5258 32.6022 54.4988 32.5279 54.4988 32.4424V28.3719C54.4988 28.2684 54.5325 28.1852 54.6 28.1222C54.6675 28.0592 54.7485 28.0277 54.843 28.0277C54.8925 28.0277 54.9443 28.0389 54.9983 28.0614C55.0568 28.0794 55.0996 28.1087 55.1266 28.1492L57.7322 31.5411V28.3449C57.7322 28.2549 57.7615 28.1807 57.82 28.1222C57.8785 28.0592 57.9527 28.0277 58.0427 28.0277Z" fill="white"/>
<path d="M49.8676 28.0277H51.6769C51.7714 28.0277 51.8501 28.0592 51.9131 28.1222C51.9806 28.1852 52.0144 28.2639 52.0144 28.3584C52.0144 28.4529 51.9806 28.5294 51.9131 28.5879C51.8501 28.6465 51.7714 28.6757 51.6769 28.6757H50.2322V30.0055H51.3731C51.4676 30.0055 51.5464 30.037 51.6094 30.1C51.6769 30.163 51.7106 30.244 51.7106 30.3431C51.7106 30.4376 51.6769 30.5141 51.6094 30.5726C51.5464 30.6311 51.4676 30.6603 51.3731 30.6603H50.2322V32.1049H51.6769C51.7714 32.1049 51.8501 32.1387 51.9131 32.2062C51.9806 32.2692 52.0144 32.3434 52.0144 32.4289C52.0144 32.5234 51.9806 32.6022 51.9131 32.6652C51.8501 32.7237 51.7714 32.753 51.6769 32.753H49.8676C49.7731 32.753 49.6921 32.7215 49.6246 32.6584C49.5571 32.5909 49.5234 32.5077 49.5234 32.4087V28.3719C49.5234 28.2729 49.5571 28.1919 49.6246 28.1289C49.6921 28.0614 49.7731 28.0277 49.8676 28.0277Z" fill="white"/>
<path fill-rule="evenodd" clip-rule="evenodd" d="M44.7236 28.0277C45.0521 28.0277 45.3424 28.0907 45.5944 28.2167C45.8464 28.3382 46.0557 28.5092 46.2222 28.7297C46.3932 28.9457 46.5214 29.1977 46.6069 29.4858C46.6924 29.7693 46.7352 30.0708 46.7352 30.3903C46.7352 30.8268 46.6587 31.2251 46.5057 31.5851C46.3527 31.9407 46.1277 32.2242 45.8306 32.4357C45.5336 32.6472 45.1646 32.753 44.7236 32.753H43.3675C43.273 32.753 43.192 32.7215 43.1245 32.6584C43.057 32.5909 43.0232 32.5077 43.0232 32.4087V28.3719C43.0232 28.2729 43.057 28.1919 43.1245 28.1289C43.192 28.0614 43.273 28.0277 43.3675 28.0277H44.7236ZM44.6561 32.1049C44.9756 32.1049 45.2344 32.0262 45.4324 31.8686C45.6304 31.7111 45.7744 31.5041 45.8644 31.2476C45.9589 30.9866 46.0062 30.7008 46.0062 30.3903C46.0062 30.1608 45.9791 29.9448 45.9251 29.7423C45.8756 29.5353 45.7946 29.353 45.6821 29.1955C45.5741 29.0335 45.4346 28.9075 45.2636 28.8175C45.0971 28.723 44.8946 28.6757 44.6561 28.6757H43.732V32.1049H44.6561Z" fill="white"/>
</svg>
