<svg width="102" height="44" viewBox="0 0 102 44" fill="none" xmlns="http://www.w3.org/2000/svg">
<path d="M0.821289 4V39.9578H35.8596V4H0.821289ZM13.6927 29.9684H8.84277V32.1406H13.035V33.3779H8.82222V36.8787H7.41795V28.7452H13.6858V29.9684H13.6927ZM21.3305 36.8998C21.2483 36.8928 21.1456 36.7803 21.0908 36.6889C20.5496 35.8524 20.0085 35.0088 19.4741 34.1652C19.3645 33.9895 19.2481 33.9121 19.0357 33.9121C18.3781 33.9262 17.7205 33.9192 17.0218 33.9192V36.8858H15.6107V28.8014C17.1794 28.8014 18.7275 28.6889 20.2482 28.8295C21.9539 28.9912 22.9266 30.7698 22.2827 32.2953C21.995 32.9772 21.4675 33.406 20.7825 33.7083C21.4538 34.7627 22.1183 35.8102 22.817 36.9069C22.2758 36.9069 21.8032 36.9209 21.3305 36.8998ZM26.5709 35.0439C27.6532 36.0211 29.9822 36.225 31.2632 34.3691C31.6947 34.5167 32.1332 34.6714 32.599 34.833C32.3387 35.3673 31.9756 35.761 31.5577 36.0984C29.7425 37.5395 26.9339 37.3849 25.3036 35.754C23.6801 34.1371 23.7486 31.3814 25.4543 29.7715C27.3038 28.0211 30.6193 28.239 32.2222 30.2285C32.3661 30.4042 32.4825 30.6081 32.6332 30.826C32.1537 30.9947 31.729 31.1424 31.2632 31.304C30.5645 30.2847 29.5918 29.8207 28.3861 29.891C27.5299 29.9402 26.8038 30.2988 26.2421 30.9736C25.2488 32.1687 25.4132 34.0035 26.5709 35.0439Z" fill="white"/>
<path d="M86.5439 20.485C86.1192 20.6397 85.7424 20.7803 85.3725 20.9138C84.4751 19.5571 82.8654 19.304 81.6734 19.9648C80.6185 20.5483 80.1048 21.8347 80.4267 23.065C80.7281 24.2108 81.7899 25.0263 82.9476 24.9982C84.1258 24.9701 85.1464 24.1898 85.3793 23.1142C84.9409 23.1142 84.5162 23.1142 84.0847 23.1142C83.6531 23.1142 83.2216 23.1142 82.7694 23.1142C82.7694 22.7486 82.7694 22.4112 82.7694 22.0456C84.0984 22.0456 85.4136 22.0456 86.7768 22.0456C86.8521 22.5166 86.7973 22.9876 86.6535 23.4376C86.1603 24.956 85.119 25.8277 83.5915 26.0949C82.0091 26.369 80.4062 25.666 79.6184 24.3374C78.31 22.123 79.365 18.7135 82.6873 18.4674C84.0573 18.369 85.256 18.7908 86.1603 19.9086C86.2904 20.0843 86.3932 20.2671 86.5439 20.485Z" fill="white"/>
<path d="M65.6997 18.4675C63.4734 18.4675 61.8294 20.0774 61.8294 22.2566C61.8294 24.5062 63.4323 26.1371 65.6381 26.1371C67.9465 26.1371 69.5837 24.5554 69.5837 22.3199C69.5837 20.0844 67.9534 18.4675 65.6997 18.4675ZM65.6928 24.9983C64.2064 24.9842 63.0624 23.8032 63.0693 22.2918C63.0761 20.7804 64.2406 19.5993 65.7134 19.6134C67.1999 19.6275 68.3439 20.8085 68.337 22.3199C68.3233 23.8313 67.1656 25.0053 65.6928 24.9983Z" fill="white"/>
<path d="M59.1231 23.1635C59.4313 22.9245 59.7464 22.7417 59.9793 22.4816C60.6164 21.7645 60.7397 20.9069 60.3766 20.0281C59.9862 19.0861 59.1984 18.6503 58.2257 18.6151C57.1913 18.58 56.1501 18.6081 55.1089 18.6081H54.6294V25.9684H55.8282V23.29C56.4173 23.29 56.9721 23.297 57.5338 23.283C57.7393 23.2759 57.8626 23.3462 57.9722 23.529C58.4175 24.2742 58.8833 25.0123 59.3423 25.7505C59.4039 25.8489 59.5135 25.9684 59.6026 25.9754C59.993 26.0035 60.3903 25.9825 60.8561 25.9825C60.2465 25.0053 59.6779 24.0703 59.1231 23.1635ZM58.5271 22.0879C58.4107 22.1301 58.2874 22.1793 58.1641 22.1793C57.39 22.1863 56.6159 22.1863 55.8282 22.1863V19.7329C56.6296 19.7329 57.4037 19.7188 58.1777 19.7399C58.7258 19.754 59.1779 20.2039 59.2669 20.7733C59.3628 21.3216 59.0477 21.884 58.5271 22.0879Z" fill="white"/>
<path d="M93.9484 24.8647C93.9484 25.2725 93.9484 25.6099 93.9484 25.9684C92.1194 25.9684 90.2972 25.9684 88.4614 25.9684C88.4614 23.522 88.4614 21.0827 88.4614 18.6222C90.2699 18.6222 92.0577 18.6222 93.873 18.6222C93.873 18.9737 93.873 19.3322 93.873 19.7118C92.4756 19.7118 91.085 19.7118 89.667 19.7118C89.667 20.3797 89.667 21.0124 89.667 21.6943C90.8727 21.6943 92.0851 21.6943 93.3182 21.6943C93.3182 22.0669 93.3182 22.4043 93.3182 22.7839C92.1057 22.7839 90.8932 22.7839 89.6602 22.7839C89.6602 23.4939 89.6602 24.1547 89.6602 24.8647C91.0782 24.8647 92.4961 24.8647 93.9484 24.8647Z" fill="white"/>
<path d="M66.7458 29.3075H65.7388C64.6634 31.7539 63.5947 34.2003 62.5056 36.6748H63.7934C63.9783 36.253 64.1701 35.8453 64.3414 35.4235C64.4099 35.2548 64.499 35.1704 64.6908 35.1704C65.732 35.1775 66.7663 35.1704 67.8075 35.1845C67.9172 35.1845 68.0747 35.304 68.1295 35.4095C68.335 35.8242 68.5131 36.253 68.6981 36.6678H69.9859C68.8967 34.1933 67.8144 31.7469 66.7458 29.3075ZM64.9374 34.0597C65.3689 33.0544 65.7936 32.0703 66.2457 31.0158C66.6978 32.0703 67.1225 33.0474 67.5541 34.0597H64.9374Z" fill="white"/>
<path d="M91.955 29.3146H90.9412C89.8657 31.7609 88.7971 34.2073 87.7148 36.6748H89.0026C89.1944 36.246 89.3862 35.8383 89.5575 35.4165C89.6328 35.2337 89.7287 35.1775 89.9137 35.1775C90.9412 35.1845 91.9687 35.1845 92.9962 35.1775C93.1812 35.1775 93.2839 35.2407 93.3593 35.4165C93.5305 35.8453 93.7292 36.2671 93.9141 36.6819H95.202C94.1059 34.1933 93.0305 31.7539 91.955 29.3146ZM90.1534 34.0597C90.3726 33.5465 90.585 33.0474 90.7973 32.5553C91.0097 32.0632 91.2221 31.5782 91.4618 31.0228C91.7016 31.5782 91.9139 32.0703 92.1263 32.5694C92.3386 33.0544 92.5441 33.5465 92.7702 34.0668H90.1534V34.0597Z" fill="white"/>
<path d="M74.9255 29.3216C73.7199 29.2584 72.5074 29.3076 71.2744 29.3076V36.6679H72.4526V33.9825C73.2472 33.9825 73.9871 33.9965 74.7269 33.9825C76.0147 33.9614 77.0628 33.0053 77.1107 31.8383C77.1587 30.4605 76.275 29.3919 74.9255 29.3216ZM75.0146 32.8014C74.8228 32.8647 74.6104 32.8788 74.4118 32.8858C73.7747 32.8928 73.1376 32.8858 72.4732 32.8858V30.4253C73.2541 30.4253 74.0213 30.4042 74.7817 30.4324C75.3502 30.4535 75.7749 30.9315 75.8366 31.5361C75.8982 32.0914 75.5557 32.6327 75.0146 32.8014Z" fill="white"/>
<path d="M60.5203 34.3901C60.9039 34.5307 61.2807 34.6643 61.6575 34.7979C61.2122 35.9156 59.6915 37.0756 57.6501 36.7944C55.7801 36.5343 54.4374 35.051 54.3552 33.2794C54.2388 30.8471 55.8623 29.5747 57.2254 29.2513C59.0407 28.8225 61.0272 29.6661 61.6643 31.1705C61.2807 31.3111 60.9039 31.4517 60.534 31.5852C59.3969 29.8981 57.3419 30.0527 56.3692 31.058C55.3211 32.1476 55.3622 33.9613 56.4514 34.9877C57.4652 35.9508 59.4586 36.007 60.5203 34.3901Z" fill="white"/>
<path d="M76.3164 18.6222C76.7411 18.6222 77.1042 18.6222 77.5221 18.6222C77.5221 18.7488 77.5221 18.8683 77.5221 18.9948C77.5221 20.3305 77.5221 21.6662 77.5221 23.0018C77.5221 24.7171 76.3164 26.0317 74.645 26.1372C73.501 26.2145 72.4941 25.9122 71.7337 24.9843C71.2953 24.457 71.083 23.8384 71.083 23.1424C71.083 21.7505 71.083 20.3586 71.083 18.9597C71.083 18.8542 71.083 18.7558 71.083 18.6292C71.4871 18.6292 71.8707 18.6292 72.2886 18.6292C72.2886 18.7839 72.2886 18.9175 72.2886 19.0581C72.2954 20.45 72.2749 21.8419 72.3228 23.2338C72.3571 24.2813 73.227 25.0194 74.3231 25.0124C75.3985 25.0124 76.2616 24.2742 76.2959 23.2408C76.3438 21.863 76.3233 20.4781 76.3301 19.1002C76.3164 18.9526 76.3164 18.805 76.3164 18.6222Z" fill="white"/>
<path d="M60.0408 7.93677C60.0408 8.30935 60.0408 8.65382 60.0408 9.0264C58.6365 9.0264 57.246 9.0264 55.828 9.0264C55.828 9.69424 55.828 10.3269 55.828 11.0088C57.0336 11.0088 58.2461 11.0088 59.4791 11.0088C59.4791 11.3814 59.4791 11.7188 59.4791 12.0985C58.2666 12.0985 57.0541 12.0985 55.8143 12.0985C55.8143 13.1811 55.8143 14.2215 55.8143 15.283C55.4033 15.283 55.0197 15.283 54.6224 15.283C54.6224 12.8366 54.6224 10.3972 54.6224 7.93677C56.4308 7.93677 58.2187 7.93677 60.0408 7.93677Z" fill="white"/>
<path d="M83.9877 30.4253C83.0972 30.4253 82.2478 30.4253 81.3641 30.4253C81.3641 30.0386 81.3641 29.6871 81.3641 29.3146C83.515 29.3146 85.6591 29.3146 87.8238 29.3146C87.8238 29.666 87.8238 30.0105 87.8238 30.3901C86.9675 30.3901 86.1044 30.3901 85.207 30.3901C85.207 32.4921 85.207 34.5588 85.207 36.6537C84.7892 36.6537 84.4124 36.6537 83.9877 36.6537C83.9877 34.594 83.9877 32.5272 83.9877 30.4253Z" fill="white"/>
<path d="M64.6224 7.92959C65.0197 7.92959 65.3896 7.92959 65.7869 7.92959C65.7869 10.0034 65.7869 12.0702 65.7869 14.1792C67.1021 14.1792 68.39 14.1792 69.6915 14.1792C69.6915 14.5658 69.6915 14.9103 69.6915 15.2828C68.0132 15.2828 66.3281 15.2828 64.6224 15.2828C64.6224 12.8435 64.6224 10.4041 64.6224 7.92959Z" fill="white"/>
<path d="M96.5522 29.3075C96.9426 29.3075 97.3057 29.3075 97.7099 29.3075C97.7099 31.3743 97.7099 33.4411 97.7099 35.5501C99.0251 35.5501 100.313 35.5501 101.621 35.5501C101.621 35.9367 101.621 36.2812 101.621 36.6537C99.9498 36.6537 98.2647 36.6537 96.5522 36.6537C96.5522 34.2214 96.5522 31.782 96.5522 29.3075Z" fill="white"/>
<path d="M44.983 4C45.0857 4 45.1679 4 45.2707 4C45.2707 16 45.2707 27.9789 45.2707 39.9789C45.1748 39.9859 45.0857 39.993 44.983 40C44.983 27.9859 44.983 15.993 44.983 4Z" fill="white"/>
<path d="M62.6989 15.2969C62.3016 15.2969 61.9317 15.2969 61.5413 15.2969C61.5413 12.8435 61.5413 10.3971 61.5413 7.94365C61.9317 7.94365 62.3016 7.94365 62.6989 7.94365C62.6989 10.383 62.6989 12.8224 62.6989 15.2969Z" fill="white"/>
<path d="M79.8931 36.6678C79.4958 36.6678 79.1259 36.6678 78.7354 36.6678C78.7354 34.2144 78.7354 31.768 78.7354 29.3146C79.1259 29.3146 79.5027 29.3146 79.8931 29.3146C79.8931 31.7609 79.8931 34.2003 79.8931 36.6678Z" fill="white"/>
<path d="M20.9944 31.4798C20.9328 32.1125 20.3848 32.6468 19.7066 32.6679C18.8298 32.696 17.953 32.6749 17.0351 32.6749V30.0457C17.0693 30.0246 17.0967 29.9965 17.131 29.9965C18.0215 29.9965 18.912 29.9684 19.7957 30.0176C20.556 30.0528 21.0698 30.7276 20.9944 31.4798Z" fill="white"/>
</svg>
