<svg width="108" height="44" viewBox="0 0 108 44" fill="none" xmlns="http://www.w3.org/2000/svg">
<path d="M20.5106 15.4343C20.1587 14.3818 19.52 13.6247 18.5028 13.2508C17.6689 12.9461 16.8203 12.9492 15.9657 13.1C14.7356 13.3136 13.6001 13.8132 12.5238 14.4604C11.8141 14.8877 11.137 15.3778 10.4184 15.8584C10.4155 15.8553 10.3948 15.8522 10.377 15.8396C10.3208 15.7988 10.2647 15.7548 10.2085 15.7108C8.93401 14.7274 7.57971 13.9043 6.06869 13.4079C5.01305 13.0592 3.93967 12.8864 2.83967 13.1283C1.70419 13.3796 0.908761 14.0739 0.471128 15.2175C0.139946 16.0847 0.101504 16.9832 0.231611 17.9006C0.382417 18.9656 0.707686 19.971 1.13645 20.9418C1.83134 22.5063 2.75983 23.9044 3.83321 25.1957C3.96332 25.3496 3.98698 25.4816 3.95445 25.6701C3.8273 26.3801 3.76225 27.0933 3.85983 27.819C4.01063 28.9343 4.46305 29.8391 5.40041 30.4298C5.92971 30.7628 6.50041 30.9356 7.10955 30.9827C8.06761 31.055 8.99611 30.8979 9.89798 30.5586C10.2617 30.4204 10.6077 30.3261 10.9714 30.5398C11.0482 30.5837 11.1399 30.5994 11.2227 30.6246C12.1689 30.9105 13.1211 31.0738 14.1087 30.9262C14.8539 30.8162 15.5192 30.5052 16.0633 29.968C16.5275 29.5124 16.8114 28.9249 16.9563 28.2651C17.1515 27.3823 17.0982 26.4995 16.9356 25.6198C16.906 25.4659 16.9356 25.3653 17.0273 25.2522C17.9351 24.1715 18.7334 23.009 19.3869 21.7335C19.9754 20.5868 20.4308 19.3898 20.6407 18.0985C20.7915 17.2031 20.8004 16.3077 20.5106 15.4343ZM4.64343 23.4112C4.57837 23.3483 4.53402 23.3138 4.49854 23.2666C3.5523 21.9974 2.748 20.6402 2.22757 19.1101C2.00876 18.4692 1.86387 17.8063 1.8343 17.1246C1.82247 16.8355 1.85795 16.5402 1.91413 16.2543C2.05607 15.5034 2.52327 15.0856 3.20634 14.9191C3.73268 14.7903 4.26198 14.8374 4.78832 14.9442C5.79665 15.1453 6.71923 15.582 7.60632 16.1098C8.1031 16.4051 8.57621 16.7444 9.0996 17.0931C7.23079 18.9342 5.68429 20.9606 4.64343 23.4112ZM6.78428 29.1417C6.35552 29.0317 6.02434 28.7615 5.81144 28.3405C5.61627 27.9541 5.52757 27.5457 5.55122 27.0587C5.99477 27.4326 6.40579 27.7939 6.83159 28.1332C7.26331 28.4756 7.70982 28.7992 8.20363 29.17C7.69208 29.2799 7.23374 29.2579 6.78428 29.1417ZM10.7319 28.2997C10.5456 28.3971 10.3977 28.4034 10.2085 28.3028C8.97541 27.6494 7.86358 26.8105 6.82864 25.8491C6.58617 25.6229 6.35256 25.3779 6.10713 25.1517C5.95928 25.0166 5.93267 24.8815 6.0066 24.6836C6.33482 23.8039 6.75176 22.9776 7.23374 22.1859C7.88132 21.1177 8.65309 20.1563 9.48105 19.2421C9.7797 18.9122 10.1079 18.6106 10.4362 18.2807C11.1872 18.9593 11.8289 19.6788 12.4321 20.4391C13.266 21.4916 13.9934 22.6195 14.5493 23.8636C14.6765 24.1463 14.7829 24.4417 14.9042 24.7244C14.9751 24.8909 14.9456 25.0072 14.8184 25.136C14.1146 25.8554 13.3813 26.534 12.5741 27.1184C11.9827 27.5488 11.3794 27.9635 10.7319 28.2997ZM15.3388 27.4954C15.259 28.1363 15.0254 28.6924 14.4547 28.9909C14.0171 29.2202 13.5351 29.2736 13.0472 29.2139C12.9703 29.2045 12.8934 29.1857 12.787 29.1637C13.6504 28.4756 14.4872 27.8096 15.3447 27.1278C15.3418 27.2598 15.3536 27.3792 15.3388 27.4954ZM18.6743 19.1384C18.1627 20.6622 17.3584 22.01 16.427 23.2792C16.3915 23.3295 16.3679 23.3892 16.3058 23.496C15.7439 22.2142 15.0993 21.0957 14.3512 20.0432C13.6001 18.9876 12.7396 18.0419 11.8171 17.1089C12.6332 16.4837 13.4552 15.959 14.3453 15.5474C15.0165 15.2364 15.7025 14.9725 16.4329 14.8939C16.8114 14.8531 17.2047 14.8437 17.5773 14.9065C18.5058 15.0636 19.0173 15.7108 19.0735 16.7161C19.1179 17.555 18.9345 18.3561 18.6743 19.1384Z" fill="white"/>
<path d="M70.735 20.2505C71.4062 20.2505 72.0213 20.2505 72.6659 20.2505C73.1627 21.8937 73.6594 23.5305 74.1533 25.1705C74.174 25.1705 74.1947 25.1736 74.2154 25.1736C74.2538 25.0857 74.2952 24.9977 74.3277 24.9066C74.789 23.5933 75.2503 22.2801 75.7116 20.97C75.8151 20.6747 75.818 20.6747 76.1108 20.6747C76.575 20.6747 77.0363 20.6747 77.5006 20.6747C77.7815 20.6747 77.7874 20.6747 77.885 20.9543C78.3137 22.1576 78.7395 23.3609 79.1683 24.5641C79.2393 24.7683 79.3191 24.9663 79.4137 25.2176C79.4581 25.1202 79.4876 25.0731 79.5024 25.0228C79.943 23.5368 80.3836 22.0508 80.8242 20.5647C80.9218 20.2317 80.9218 20.2317 81.25 20.2317C81.6729 20.2317 82.0987 20.2317 82.5215 20.2317C82.6191 20.2317 82.7137 20.2317 82.8586 20.2317C82.8202 20.3825 82.7965 20.4893 82.764 20.593C82.282 22.1073 81.7971 23.6248 81.3151 25.1391C81.0844 25.8617 80.8567 26.5874 80.6261 27.31C80.5462 27.5582 80.5462 27.5613 80.2919 27.5613C79.7508 27.5645 79.2067 27.5551 78.6656 27.5645C78.4882 27.5676 78.4054 27.5017 78.3463 27.3226C77.8879 25.9873 77.4207 24.6552 76.9565 23.32C76.9151 23.2038 76.8707 23.0875 76.8027 22.8959C76.4863 23.7159 76.229 24.4856 75.957 25.2522C75.6879 26.0156 75.4129 26.7728 75.1409 27.5331C75.061 27.5425 75.0049 27.5551 74.9457 27.5582C74.3839 27.5613 73.8221 27.5551 73.2602 27.5613C73.0976 27.5645 73.0178 27.5079 72.9645 27.3383C72.3879 25.5035 71.8054 23.6687 71.2229 21.8371C71.0928 21.4318 70.9597 21.0265 70.8296 20.6213C70.8 20.5207 70.7764 20.4108 70.735 20.2505Z" fill="white"/>
<path d="M91.0763 26.0188C90.9669 26.0125 90.89 26.0125 90.8132 26.0062C90.5322 25.9779 90.3844 25.8271 90.3548 25.5318C90.3459 25.4501 90.3519 25.3653 90.3519 25.2805C90.3519 24.517 90.3666 23.7505 90.3459 22.987C90.3371 22.6697 90.2898 22.3398 90.1981 22.0351C89.9201 21.1491 89.2903 20.6401 88.483 20.3668C87.4954 20.0307 86.4871 20.0149 85.4817 20.26C84.775 20.4328 84.154 20.7909 83.7046 21.4224C83.4266 21.812 83.264 22.2519 83.2285 22.7671H85.1239C85.1446 22.742 85.1594 22.7263 85.1683 22.7074C85.1831 22.6791 85.1978 22.6509 85.2067 22.6226C85.3457 22.1827 85.6503 21.9408 86.0524 21.8309C86.2594 21.7743 86.4782 21.7272 86.6911 21.724C87.114 21.7209 87.5398 21.7586 87.9153 22.0005C88.2583 22.2204 88.4121 22.5472 88.3707 22.987C88.2968 23.009 88.2347 23.0436 88.1696 23.0467C87.2766 23.119 86.3865 23.1849 85.4935 23.2572C84.911 23.3043 84.3462 23.4143 83.8228 23.7159C82.578 24.4354 82.6785 26.267 83.4 26.9267C83.74 27.2378 84.1185 27.4294 84.5414 27.5551C85.1298 27.731 85.7331 27.7216 86.3304 27.687C87.1849 27.6368 87.9833 27.4043 88.6013 26.7194C88.6191 26.7005 88.6516 26.6974 88.693 26.6817C88.9443 27.2378 89.3879 27.4954 89.9408 27.5488C90.2632 27.5802 90.5914 27.5677 90.9137 27.5739C90.9699 27.5739 91.0231 27.552 91.097 27.5362C91.1059 27.0147 91.1443 26.5215 91.0763 26.0188ZM87.9567 25.5758C87.6935 25.8114 87.3771 25.9308 87.0489 26.0062C86.5374 26.1256 86.0169 26.1853 85.4995 26.0691C85.3486 26.0345 85.1919 25.9748 85.0677 25.8837C84.7779 25.6669 84.7632 25.2522 85.0145 24.9852C85.2245 24.7652 85.4965 24.6993 85.7715 24.671C86.3481 24.6113 86.9277 24.5736 87.5072 24.5265C87.7142 24.5108 87.9183 24.4888 88.1253 24.4731C88.2021 24.4668 88.279 24.4731 88.3648 24.4731C88.4239 24.9443 88.2731 25.293 87.9567 25.5758Z" fill="white"/>
<path d="M62.5293 25.1454C62.4524 25.1486 62.3578 25.2365 62.3046 25.3119C62.1094 25.5915 61.8669 25.802 61.5505 25.8837C61.2755 25.956 60.9917 25.9968 60.7108 26.0314C60.214 26.0911 59.7261 26.0188 59.2707 25.8083C58.7591 25.5695 58.4132 25.1611 58.286 24.5108C58.4132 24.5014 58.4989 24.4888 58.5847 24.4888C58.7828 24.4856 58.978 24.4888 59.1761 24.4888C60.761 24.4888 62.3489 24.4888 63.9339 24.4888C64.2414 24.4888 64.2651 24.4731 64.2621 24.1589C64.2591 23.8165 64.2651 23.4677 64.2148 23.1284C64.0196 21.8058 63.3129 20.9041 62.1419 20.4265C61.1366 20.0181 60.1016 20.0087 59.0637 20.2757C58.3304 20.4642 57.6769 20.835 57.1831 21.4476C56.3108 22.5283 56.1067 23.7819 56.4882 25.1203C56.8371 26.3518 57.6887 27.065 58.8153 27.4514C59.5605 27.7091 60.3264 27.7248 61.0952 27.6776C61.7398 27.6399 62.3548 27.4546 62.9255 27.1247C63.5081 26.7854 63.9339 26.2953 64.1852 25.6449C64.2414 25.4973 64.265 25.3339 64.3124 25.1391C63.6884 25.136 63.1089 25.1297 62.5293 25.1454ZM58.8065 22.2644C59.1169 21.988 59.4866 21.8592 59.8828 21.7963C60.418 21.7115 60.9414 21.7461 61.447 21.9503C61.8433 22.1105 62.1331 22.3933 62.2898 22.8142C62.3105 22.8708 62.3164 22.9305 62.3371 23.0279H58.3659C58.4102 22.6854 58.5906 22.4592 58.8065 22.2644Z" fill="white"/>
<path d="M105.252 25.1517C105.015 25.6795 104.56 25.8931 104.051 25.9874C103.484 26.0942 102.913 26.091 102.363 25.8868C102.118 25.7957 101.872 25.6575 101.668 25.4878C101.381 25.2522 101.213 24.9255 101.162 24.495H107.068C107.192 24.0426 107.153 23.6373 107.103 23.2321C106.94 21.944 106.308 21.0077 105.187 20.4988C103.969 19.9427 102.709 19.9364 101.47 20.4296C98.8649 21.4664 98.6993 24.6364 99.8791 26.1822C100.429 26.9047 101.157 27.31 101.987 27.5394C102.546 27.6933 103.117 27.6902 103.691 27.687C104.383 27.6808 105.042 27.5205 105.66 27.2001C106.382 26.8231 106.893 26.2387 107.13 25.4093C107.15 25.3339 107.15 25.2522 107.162 25.1548H105.252V25.1517ZM102.138 21.9691C102.792 21.6989 103.463 21.68 104.131 21.8874C104.616 22.0382 104.998 22.3272 105.157 22.8708C105.169 22.9085 105.166 22.9493 105.172 22.987C104.962 23.0593 101.618 23.0813 101.204 23.0121C101.361 22.4781 101.689 22.1545 102.138 21.9691Z" fill="white"/>
<path d="M42.0489 20.2506C42.7202 20.2506 43.3352 20.2506 43.9473 20.2506C44.0153 20.502 44.0272 27.197 43.9591 27.5457C43.3884 27.5457 42.8118 27.5457 42.2145 27.5457C42.1524 27.2536 42.0933 26.9614 42.0253 26.6441C41.9514 26.7006 41.91 26.7226 41.8774 26.7603C41.4221 27.285 40.8425 27.5646 40.1949 27.6525C39.4793 27.7499 38.7608 27.7342 38.0688 27.4609C37.1108 27.0808 36.5401 26.3519 36.339 25.2963C36.2828 25.0009 36.2592 24.6962 36.2592 24.3946C36.2503 23.1599 36.2562 21.9252 36.2562 20.6905C36.2562 20.5554 36.2562 20.4234 36.2562 20.2475C36.9156 20.2318 37.5366 20.2412 38.1901 20.2412C38.196 20.392 38.2078 20.5114 38.2078 20.6339C38.2078 21.7524 38.2049 22.874 38.2108 23.9924C38.2108 24.1998 38.2374 24.4103 38.2847 24.6114C38.4266 25.2397 38.8199 25.6199 39.3906 25.7958C39.9051 25.9529 40.4255 25.9372 40.9282 25.7424C41.561 25.4973 41.907 24.9946 42.0046 24.2972C42.0371 24.049 42.0489 23.7976 42.0489 23.5463C42.0548 22.5944 42.0519 21.6424 42.0519 20.6905C42.0489 20.5522 42.0489 20.4171 42.0489 20.2506Z" fill="white"/>
<path d="M31.9334 17.5047C31.827 17.998 31.7205 18.4818 31.6082 18.9908C31.481 18.9625 31.3775 18.9405 31.274 18.9217C30.9901 18.8683 30.7063 18.8368 30.4283 18.9405C30.0942 19.0662 29.9168 19.3207 29.9108 19.6945C29.9079 19.861 29.9108 20.0244 29.9108 20.2349C30.6176 20.2349 31.3006 20.2349 32.0074 20.2349C32.0399 20.8067 32.0428 21.3314 32.0044 21.8875C31.3036 21.8875 30.6294 21.8875 29.9138 21.8875C29.9138 23.7851 29.9138 25.6513 29.9138 27.5426C29.2426 27.5426 28.6068 27.5426 27.9297 27.5426C27.9178 27.0745 27.9238 26.6063 27.9238 26.1414C27.9208 25.6701 27.9238 25.1988 27.9238 24.7276C27.9238 24.2657 27.9238 23.8071 27.9238 23.3452C27.9238 22.8771 27.9238 22.4058 27.9238 21.9C27.3885 21.9 26.8829 21.9 26.3359 21.9C26.3122 21.3377 26.3211 20.8098 26.3299 20.2475C26.8563 20.2475 27.3619 20.2475 27.9001 20.2475C27.909 20.0621 27.9178 19.9082 27.9208 19.7574C27.9267 19.1824 28.0213 18.6389 28.3555 18.1614C28.6719 17.7121 29.0977 17.4419 29.5974 17.3162C30.3426 17.1309 31.0818 17.1811 31.8092 17.4293C31.8418 17.4388 31.8654 17.4608 31.9334 17.5047Z" fill="white"/>
<path d="M99.3085 20.2789C99.1577 20.6307 99.0187 20.9512 98.8798 21.2717C98.3091 22.5818 97.7354 23.8887 97.1647 25.1957C96.8513 25.9151 96.5378 26.6377 96.2303 27.3603C96.1712 27.5017 96.0884 27.5677 95.9405 27.5645C95.3107 27.5583 94.6779 27.5583 94.048 27.5645C93.8854 27.5677 93.8085 27.4986 93.7405 27.3415C93.1846 26.0597 92.6169 24.7841 92.058 23.5054C91.6381 22.5472 91.2182 21.5921 90.8013 20.6339C90.754 20.5239 90.7126 20.4077 90.6682 20.2946C90.9048 20.2192 92.2354 20.2003 92.7499 20.2569C93.4803 21.9785 94.2195 23.7159 94.9854 25.5193C95.0593 25.3779 95.1066 25.3025 95.1392 25.224C95.7808 23.6971 96.4195 22.1671 97.0583 20.6402C97.0937 20.5553 97.1381 20.4705 97.1706 20.3857C97.212 20.2726 97.2889 20.2317 97.4013 20.2317C97.9927 20.2349 98.584 20.2349 99.1754 20.238C99.2021 20.2412 99.2287 20.2537 99.3085 20.2789Z" fill="white"/>
<path d="M55.8965 21.8875C55.2874 21.8875 54.6871 21.8875 54.0602 21.8875C54.0543 22.0226 54.0454 22.1357 54.0454 22.2456C54.0454 23.1881 54.0425 24.1307 54.0454 25.07C54.0454 25.7581 54.4328 26.1225 55.0892 26.0471C55.3228 26.022 55.5535 25.9906 55.8167 25.9591C55.8758 26.4807 55.8403 26.9865 55.8403 27.53C55.6304 27.574 55.4322 27.6337 55.2312 27.6557C54.8024 27.6997 54.3677 27.7342 53.939 27.6714C52.7532 27.5017 52.1027 26.8074 52.0879 25.4313C52.079 24.3946 52.0849 23.3609 52.0849 22.3242C52.0849 22.1922 52.0731 22.0571 52.0642 21.8906C51.5941 21.8906 51.1446 21.8906 50.6597 21.8906C50.6419 21.3282 50.639 20.8036 50.6626 20.2412C51.1505 20.2412 51.6207 20.2412 52.1175 20.2412C52.1589 19.5563 52.1944 18.9028 52.2357 18.2211C52.839 18.1834 53.4215 18.2054 54.0336 18.2054C54.0336 18.8902 54.0336 19.5343 54.0336 20.2192C54.6664 20.2192 55.2696 20.2192 55.861 20.2192C55.9438 20.4768 55.9615 21.4445 55.8965 21.8875Z" fill="white"/>
<path d="M49.9325 27.5394C49.7521 27.5771 49.5925 27.6242 49.4269 27.643C48.7704 27.7184 48.114 27.7718 47.4753 27.5394C46.7035 27.2597 46.3013 26.666 46.2156 25.8177C46.189 25.5475 46.1831 25.2742 46.1831 25.004C46.1801 24.1054 46.1831 23.2069 46.1831 22.3084C46.1831 22.1858 46.1831 22.0602 46.1831 21.9031C45.6981 21.9031 45.2516 21.9031 44.814 21.9031C44.7282 21.6549 44.7075 20.7061 44.7755 20.2443C45.2398 20.2191 45.7188 20.2474 46.2215 20.2254C46.2599 19.5468 46.2954 18.8965 46.3309 18.2241C46.9341 18.2241 47.5107 18.2241 48.1258 18.2241C48.1524 18.8807 48.1228 19.5374 48.1435 20.2285C48.7704 20.2285 49.3736 20.2285 49.9976 20.2285C49.9976 20.7972 49.9976 21.3219 49.9976 21.878C49.3855 21.878 48.7882 21.878 48.1583 21.878C48.1495 22.0036 48.1376 22.1042 48.1376 22.2016C48.1347 23.1315 48.1376 24.0646 48.1376 24.9945C48.1376 25.026 48.1376 25.0574 48.1376 25.0888C48.1702 25.78 48.5546 26.1161 49.211 26.0345C49.4328 26.0062 49.6575 25.9905 49.9177 25.9653C49.9769 26.49 49.9503 27.0021 49.9325 27.5394Z" fill="white"/>
<path d="M65.4215 27.5394C65.4215 25.0982 65.4215 22.6885 65.4215 20.2568C66.007 20.2568 66.5747 20.2568 67.1661 20.2568C67.2282 20.5804 67.2903 20.904 67.3643 21.2936C67.7487 20.8412 68.1597 20.5176 68.6831 20.3919C69.1946 20.2694 69.7091 20.2128 70.2266 20.2443C70.2976 20.4925 70.3094 21.9565 70.2443 22.3084C70.1823 22.3084 70.1172 22.3178 70.0521 22.3084C69.65 22.2487 69.2508 22.2518 68.8487 22.3367C67.935 22.5283 67.3672 23.2383 67.3583 24.2311C67.3495 25.2051 67.3554 26.179 67.3554 27.1498C67.3554 27.2723 67.3554 27.3948 67.3554 27.5456C66.7019 27.5394 66.078 27.5394 65.4215 27.5394Z" fill="white"/>
<path d="M32.9179 17.2313C33.5448 17.2313 34.1628 17.2313 34.7749 17.2313C34.8429 17.4732 34.8577 27.1403 34.7927 27.5393C34.1717 27.5393 33.5478 27.5393 32.9268 27.5393C32.8617 27.2911 32.847 17.6178 32.9179 17.2313Z" fill="white"/>
</svg>
