<svg width="193" height="44" viewBox="0 0 193 44" fill="none" xmlns="http://www.w3.org/2000/svg">
<path fill-rule="evenodd" clip-rule="evenodd" d="M33.4097 20.9472L33.7137 21.1288L34.0185 21.3096C34.2577 21.456 34.4545 21.5864 34.6121 21.7016C35.0385 22.0192 35.3481 22.3712 35.5401 22.7584C35.8089 23.3128 35.8601 23.9696 35.6921 24.7288C35.5457 25.388 35.1801 25.9416 34.5969 26.3896C33.8969 26.9336 32.8345 27.2048 31.4097 27.2048C30.3393 27.2048 29.2785 26.9176 28.2289 26.3448L27.9777 26.2008C27.8977 26.1532 27.8137 26.1128 27.7265 26.08C27.5567 25.9977 27.3659 25.9687 27.1793 25.9968C26.7833 25.9968 26.6033 26.3288 26.6385 26.9936H26.2889V23.408H26.6385V23.416C26.7553 23.964 27.0265 24.5152 27.4529 25.0688C27.8099 25.5408 28.2673 25.9274 28.7921 26.2008C29.4417 26.548 30.1897 26.7208 31.0361 26.7208C31.3761 26.7208 31.6761 26.6408 31.9337 26.48C32.2177 26.304 32.3977 26.0576 32.4745 25.7408C32.5753 25.3528 32.5385 24.9776 32.3601 24.6152C32.1265 24.1472 31.6929 23.7248 31.0593 23.3472C30.7876 23.188 30.5083 23.0419 30.2225 22.9096L29.8041 22.7136C29.6313 22.6336 29.4969 22.568 29.4009 22.5176C28.9441 22.296 28.5769 22.1016 28.2969 21.9368C27.9186 21.7149 27.5645 21.4543 27.2401 21.1592C26.5145 20.4792 26.2401 19.7328 26.4185 18.9176C26.6161 18.0264 27.2369 17.332 28.2825 16.8336C29.1497 16.4256 30.0977 16.2224 31.1273 16.2224C31.9545 16.2224 32.7537 16.376 33.5241 16.6824C33.7673 16.7784 34.0209 16.8944 34.2849 17.0304C34.3249 17.0544 34.3713 17.0808 34.4225 17.1056L34.4833 17.1432L34.5433 17.1736C34.6249 17.2184 34.6857 17.2488 34.7265 17.264C35.0305 17.3952 35.2225 17.3496 35.3049 17.128C35.3297 17.048 35.3529 16.7864 35.3729 16.3432H35.7233V19.4832H35.3657C35.3419 19.0918 35.2327 18.7103 35.0457 18.3656C34.7979 17.894 34.4061 17.5137 33.9273 17.28C32.9689 16.8168 32.1033 16.5856 31.3329 16.5856C30.6937 16.5856 30.1457 16.8072 29.6897 17.2496C29.5735 17.3558 29.4861 17.4897 29.4356 17.6388C29.3851 17.788 29.3732 17.9474 29.4009 18.1024C29.4513 18.404 29.6113 18.676 29.8801 18.9184C30.0625 19.0888 30.2961 19.2544 30.5793 19.416C30.6865 19.476 30.8129 19.544 30.9601 19.62L31.3481 19.816C32.2561 20.2896 32.9433 20.6664 33.4105 20.948M46.6257 16.3504V20.344H46.2761C46.2761 19.1568 46.0201 18.264 45.5073 17.6648C44.9393 17.0008 44.0433 16.6688 42.8217 16.6688H41.1321V21.5144H42.0457C42.7553 21.5144 43.2681 21.3464 43.5817 21.0088C43.7041 20.8776 43.7929 20.7216 43.8489 20.5408C43.8945 20.3944 43.9169 20.2384 43.9169 20.0728H44.2745V23.2728H43.9169C43.9169 22.8904 43.8001 22.576 43.5673 22.3288C43.2529 21.9928 42.7457 21.824 42.0457 21.824H41.1321V26.6696H42.8217C44.0441 26.6696 44.9393 26.3376 45.5073 25.6736C46.0193 25.0744 46.2753 24.1816 46.2753 22.9936H46.6257V26.9864H37.0473V26.6696H38.0361V16.668H37.0473V16.3504H46.6257ZM52.2713 16.6984V22.1104H53.4657C54.2921 22.044 54.9297 21.7648 55.3753 21.272C55.7961 20.8 56.0073 20.18 56.0073 19.4152C56.0073 18.5952 55.7657 17.9432 55.2841 17.46C55.0457 17.2139 54.7593 17.0194 54.4426 16.8884C54.126 16.7574 53.7859 16.6927 53.4433 16.6984H52.2713ZM60.3737 25.1144C60.4905 26.0552 60.2649 26.6792 59.6969 26.9856C59.2609 27.2224 58.8169 27.34 58.3657 27.34C56.8641 27.34 55.8441 26.588 55.3065 25.084C55.2149 24.8258 55.1135 24.5713 55.0025 24.3208C54.8618 24.0162 54.6882 23.7278 54.4849 23.4608C53.9577 22.8016 53.3969 22.472 52.8033 22.472L52.6969 22.464H52.2713V26.684H53.2601V27.0008H48.1857V26.684H49.1753V16.6832H48.1857V16.3664H54.7137C55.2417 16.3664 55.7257 16.4008 56.1673 16.4712C56.7305 16.5624 57.2169 16.7056 57.6281 16.9016C58.6729 17.4056 59.1961 18.2432 59.1961 19.4152C59.1961 20.98 57.9753 21.9488 55.5361 22.3208C57.1537 22.4112 58.1457 23.204 58.5105 24.6992C58.6169 25.1616 58.6905 25.4592 58.7313 25.5896C58.8633 25.9976 59.0177 26.2336 59.1953 26.2992C59.3473 26.3592 59.4945 26.3568 59.6361 26.2912C59.8241 26.2008 59.9537 26.0352 60.0249 25.7928C60.0779 25.5784 60.096 25.3569 60.0785 25.1368L60.3737 25.1144ZM71.1553 16.3504V20.344H70.8049C70.8049 19.1568 70.5489 18.264 70.0369 17.6648C69.4689 17.0008 68.5729 16.6688 67.3513 16.6688H65.6617V21.5144H66.5745C67.2849 21.5144 67.7969 21.3464 68.1121 21.0088C68.2337 20.8776 68.3225 20.7216 68.3777 20.5408C68.4233 20.3944 68.4465 20.2384 68.4465 20.0728H68.8041V23.2728H68.4465C68.4465 22.8904 68.3297 22.576 68.0969 22.3288C67.7817 21.9928 67.2745 21.824 66.5745 21.824H65.6617V26.6696H67.3513C68.5729 26.6696 69.4681 26.3376 70.0361 25.6736C70.5481 25.0744 70.8049 24.1816 70.8049 22.9936H71.1553V26.9864H61.5761V26.6696H62.5657V16.668H61.5761V16.3504H71.1553ZM83.2825 16.3504V16.668H82.2937V26.9856H81.8601V26.9408L74.1369 18.208V26.6688H75.1337V26.9856H72.7145V26.6688H73.7041V16.668H72.7145V16.3504H76.6105L76.8913 16.668L81.8593 22.2904V16.668H80.8705V16.3504H83.2825ZM86.4553 23.2344H89.9857L88.2201 19.28L86.4553 23.2344ZM90.3961 16.3512L94.9841 26.6688H95.9809V26.9856H90.5185V26.6688H91.5145L90.1225 23.5512H86.3185L84.9265 26.6688H86.2121V26.9856H83.4729V26.6688H84.5761L88.0449 18.8872L89.1713 16.3512H90.3961ZM118.692 16.3504V16.668H117.618L113.145 26.9856H111.966L109.516 21.34L107.074 26.9856H105.887L101.421 16.668H100.454V16.3504H105.765V16.668H104.798L108.002 24.0648L109.349 20.948L107.493 16.668H106.533V16.3504H111.837V16.668H110.87L114.074 24.0648L117.277 16.668H116.021V16.3504H118.692ZM124.718 16.3504V16.668H123.729V26.6688H124.718V26.9856H119.643V26.6688H120.632V16.668H119.643V16.3504H124.718ZM132.052 26.6688C133.274 26.6688 134.17 26.3368 134.738 25.6728C135.25 25.0736 135.506 24.1808 135.506 22.9928H135.856V26.9856H126.277V26.6688H127.266V16.668H126.277V16.3504H131.352V16.668H130.362V26.6688H132.052ZM142.582 26.6688C143.805 26.6688 144.7 26.3368 145.267 25.6728C145.78 25.0736 146.036 24.1808 146.036 22.9928H146.386V26.9856H136.807V26.6688H137.796V16.668H136.807V16.3504H141.882V16.668H140.893V26.6688H142.582ZM152.411 16.3504V16.668H151.423V26.6688H152.411V26.9856H147.337V26.6688H148.326V16.668H147.337V16.3504H152.411ZM156.346 23.2344H159.875L158.11 19.28L156.345 23.2352L156.346 23.2344ZM160.286 16.3512L164.874 26.6688H165.871V26.9856H160.408V26.6688H161.405L160.013 23.5512H156.208L154.816 26.6688H156.102V26.9856H153.363V26.6688H154.466L157.935 18.8872L159.061 16.3512H160.286ZM179.977 16.3504V16.668H178.987V26.6688H179.977V26.9856H174.902V26.6688H175.891V17.3088L173.646 23.144L172.163 26.9856H171.813L168.245 17.732V26.6688H169.242V26.9856H166.822V26.6688H167.811V16.668H166.822V16.3504H171.03L173.479 22.6984L175.922 16.3504H179.977ZM189.099 20.9472L189.403 21.1288L189.707 21.3096C189.947 21.456 190.144 21.5864 190.302 21.7016C190.727 22.0192 191.037 22.3712 191.23 22.7584C191.498 23.3128 191.55 23.9696 191.382 24.7288C191.234 25.388 190.87 25.9416 190.286 26.3896C189.586 26.9336 188.524 27.2048 187.098 27.2048C186.028 27.2048 184.967 26.9176 183.918 26.3448L183.667 26.2008C183.587 26.1532 183.503 26.1128 183.416 26.08C183.246 25.9975 183.055 25.9685 182.868 25.9968C182.472 25.9968 182.292 26.3288 182.328 26.9936H181.978V23.408H182.328V23.416C182.445 23.964 182.716 24.5152 183.142 25.0688C183.499 25.5408 183.956 25.9274 184.481 26.2008C185.13 26.548 185.878 26.7208 186.726 26.7208C187.065 26.7208 187.364 26.6408 187.623 26.48C187.907 26.304 188.087 26.0576 188.163 25.7408C188.265 25.3528 188.227 24.9776 188.05 24.6152C187.816 24.1472 187.382 23.7248 186.748 23.3472C186.476 23.1881 186.197 23.042 185.911 22.9096L185.493 22.7136C185.32 22.6336 185.186 22.568 185.09 22.5176C184.714 22.3392 184.346 22.1454 183.986 21.9368C183.608 21.7151 183.253 21.4545 182.929 21.1592C182.203 20.4792 181.93 19.7328 182.107 18.9176C182.305 18.0264 182.926 17.332 183.971 16.8336C184.838 16.4256 185.787 16.2224 186.817 16.2224C187.643 16.2224 188.442 16.376 189.214 16.6824C189.457 16.7784 189.71 16.8944 189.974 17.0304C190.014 17.0544 190.061 17.0808 190.111 17.1056L190.173 17.1432L190.233 17.1736C190.314 17.2184 190.375 17.2488 190.415 17.264C190.719 17.3952 190.913 17.3496 190.994 17.128C191.019 17.048 191.042 16.7864 191.062 16.3432H191.412V19.4832H191.054C191.031 19.0917 190.922 18.7102 190.734 18.3656C190.487 17.8942 190.096 17.5139 189.618 17.28C188.659 16.8168 187.794 16.5856 187.023 16.5856C186.384 16.5856 185.836 16.8072 185.38 17.2496C185.263 17.3556 185.176 17.4895 185.125 17.6386C185.074 17.7878 185.063 17.9474 185.09 18.1024C185.141 18.404 185.302 18.676 185.57 18.9184C185.752 19.0888 185.986 19.2544 186.27 19.416C186.377 19.476 186.502 19.544 186.65 19.62L187.038 19.816C187.946 20.2896 188.634 20.6664 189.1 20.948M11.4945 14.2632C10.2017 14.2632 9.13534 15.2688 9.13534 16.5384C9.13534 17.7864 10.2017 18.816 11.4953 18.816C12.8113 18.816 13.8553 17.7864 13.8553 16.5384C13.8553 15.2688 12.8105 14.2632 11.4945 14.2632ZM3.91534 25.316C2.60014 25.316 1.55535 26.3448 1.55535 27.6144C1.55535 28.8624 2.60014 29.8904 3.91534 29.8904C5.20894 29.8904 6.27534 28.8624 6.27534 27.6144C6.27534 26.3448 5.20894 25.316 3.91534 25.316ZM13.6273 24.1776C14.2625 25.4912 14.0129 27.0016 13.0369 28.052C11.4945 29.672 9.27134 30 7.38734 30C7.09294 30 7.11614 29.76 7.29694 29.672C9.40734 28.752 9.81694 27.5712 9.45294 26.4752C8.50014 23.7624 4.30254 23.3464 2.37294 20.872C1.87535 20.216 1.51215 19.472 1.44415 18.64C1.35295 17.48 1.92015 16.2112 2.84974 15.4448C4.23374 14.3504 6.23134 14 7.97774 14C8.22734 14 8.22734 14.24 8.11374 14.3064C7.77374 14.5032 5.88974 15.0072 5.73134 16.4728C5.36814 19.9312 12.1073 21.0248 13.6273 24.1768" fill="white"/>
</svg>
