<svg width="64" height="44" viewBox="0 0 64 44" fill="none" xmlns="http://www.w3.org/2000/svg">
<g clip-path="url(#clip0_5411_3220)">
<path fill-rule="evenodd" clip-rule="evenodd" d="M17.2527 17.0591V13.7294C17.2527 11.3527 15.2345 9.42859 12.7416 9.42859H4.51606C2.02312 9.42859 0.00439453 11.3527 0.00439453 13.7294V17.0591C0.00439453 18.8099 1.09466 20.3015 2.65866 20.9752V21.5909C1.09466 22.2646 0.00439453 23.7655 0.00439453 25.507V30.2702C0.00439453 32.6469 2.02312 34.5714 4.51606 34.5714H12.7416C15.2345 34.5714 17.2527 32.6469 17.2527 30.2702V25.507C17.2527 23.7655 16.163 22.2646 14.5985 21.5909V20.9752C16.163 20.3015 17.2527 18.8006 17.2527 17.0591ZM12.5294 29.1883C12.5294 30.0461 11.7998 30.7416 10.9001 30.7416H6.35674C5.45704 30.7416 4.72792 30.0461 4.72792 29.1883V26.3056C4.72792 25.4478 5.45704 24.7523 6.35674 24.7523H10.9001C11.7998 24.7523 12.5294 25.4478 12.5294 26.3056V29.1883ZM4.72792 14.8024C4.72792 13.9442 5.45704 13.2491 6.35674 13.2491H10.9001C11.7998 13.2491 12.5294 13.9442 12.5294 14.8024V16.8883C12.5294 17.7465 11.7998 18.4416 10.9001 18.4416H6.35674C5.45704 18.4416 4.72792 17.7465 4.72792 16.8883V14.8024Z" fill="white"/>
<path d="M38.1099 32.6679H44.7387V30.5875H40.3647V28.9845H43.8821V26.9469H40.3647V25.3434H44.7387V23.2635H38.1099V32.6679Z" fill="white"/>
<path d="M49.2913 15.4277H51.5913V11.6571H53.8913V21.0615H51.5913V17.5076H49.2913V21.0615H46.9918V11.6571H49.2913V15.4277Z" fill="white"/>
<path d="M47.034 32.6679H53.6628V30.5875H49.2888V28.9845H52.8062V26.9469H49.2888V25.3434H53.6628V23.2635H47.034V32.6679Z" fill="white"/>
<path fill-rule="evenodd" clip-rule="evenodd" d="M55.7365 23.2635H59.9756C61.1028 23.2635 62.8615 23.697 62.8615 26.2976C62.8615 28.7244 61.0577 29.3313 59.9756 29.3313H57.9914V32.6684H55.7365V23.2635ZM57.9914 27.3809H59.705C60.336 27.3809 60.6518 27.0336 60.6518 26.2542C60.6518 25.4305 60.2463 25.2571 59.705 25.2571H57.9914V27.3809Z" fill="white"/>
<path d="M41.3539 17.4645H42.7067C42.7067 18.8513 42.211 19.1986 41.2637 19.1986C40.2267 19.1986 39.8659 18.635 39.8659 17.4645V14.6476C39.8659 13.8673 40.4523 13.3909 41.2637 13.3909C42.211 13.3909 42.5713 13.9545 42.5713 14.6476H44.9164C44.9164 13.0441 43.7892 11.4401 41.2637 11.4401C38.6936 11.4401 37.5659 12.6539 37.5659 14.6476V17.4645C37.5659 19.068 38.1072 21.1484 41.2637 21.1484C44.2849 21.1484 44.9615 19.3715 44.9615 17.5517V15.7309H41.3539V17.4645Z" fill="white"/>
<path d="M23.8574 26.0368C23.8574 26.3403 24.1275 26.8171 25.2101 26.99C27.2846 27.3373 28.5471 27.9871 28.5471 29.8074C28.5471 30.674 28.1862 32.7973 25.0748 32.7973C21.9183 32.7973 21.6025 30.7607 21.6025 29.5907H23.8574C23.8574 30.7607 24.5335 30.8474 25.0748 30.8474C25.8867 30.8474 26.2471 30.4572 26.2471 29.8508C26.2471 29.0704 25.3454 28.897 24.7139 28.8103C22.8655 28.5502 21.6025 27.597 21.6025 26.0801C21.6025 24.7796 22.3242 23.0465 25.0748 23.0465C27.5547 23.0465 28.3215 24.8668 28.3215 25.9501H26.1569C26.1569 25.6466 25.9318 25.1269 25.0748 25.1269C24.3085 25.1269 23.8574 25.4303 23.8574 26.0368Z" fill="white"/>
<path d="M28.3686 18.9386H23.9941V17.3351H27.5115V15.2975H23.9941V13.6945H28.3686V11.6141H21.7397V21.0185H28.3686V18.9386Z" fill="white"/>
<path d="M30.4872 23.2635H32.7415V30.5008H36.0339V32.6679H30.4872V23.2635Z" fill="white"/>
<path d="M57.9928 21.0615H60.3374V13.8242H62.4119V11.6571H55.8737V13.8242H57.9928V21.0615Z" fill="white"/>
<path d="M30.4874 19.0249H32.0657V13.6946H30.4423V11.6571H35.8983V13.6946H34.3206V19.0249H35.9434V21.0615H30.4874V19.0249Z" fill="white"/>
</g>
<defs>
<clipPath id="clip0_5411_3220">
<rect width="64" height="44" fill="white" transform="translate(0.00439453)"/>
</clipPath>
</defs>
</svg>
