<svg width="13" height="12" viewBox="0 0 13 12" fill="none" xmlns="http://www.w3.org/2000/svg">
<g id="mark-proto">
<g id="Vector">
<path fill-rule="evenodd" clip-rule="evenodd" d="M4.01273 3.12V9H5.27273V7.0092H7.20473C7.59673 7.0092 7.95513 6.9224 8.27993 6.7488C8.61033 6.5696 8.87073 6.3288 9.06113 6.0264C9.25153 5.724 9.34673 5.3852 9.34673 5.01C9.34673 4.6516 9.25433 4.3296 9.06953 4.044C8.89033 3.7584 8.64953 3.5344 8.34713 3.372C8.04473 3.204 7.70873 3.12 7.33913 3.12H4.01273ZM7.01153 5.8752H5.25593V4.254H7.01153C7.19633 4.254 7.36433 4.2876 7.51553 4.3548C7.67233 4.4164 7.79553 4.506 7.88513 4.6236C7.97473 4.7356 8.01953 4.8672 8.01953 5.0184C8.01953 5.1808 7.97473 5.3292 7.88513 5.4636C7.79553 5.5924 7.67233 5.6932 7.51553 5.766C7.36433 5.8388 7.19633 5.8752 7.01153 5.8752Z" fill="white"/>
<path fill-rule="evenodd" clip-rule="evenodd" d="M12.5 6C12.5 9.31371 9.81371 12 6.5 12C3.18629 12 0.5 9.31371 0.5 6C0.5 2.68629 3.18629 0 6.5 0C9.81371 0 12.5 2.68629 12.5 6ZM11.3 6C11.3 8.65097 9.15097 10.8 6.5 10.8C3.84903 10.8 1.7 8.65097 1.7 6C1.7 3.34903 3.84903 1.2 6.5 1.2C9.15097 1.2 11.3 3.34903 11.3 6Z" fill="white"/>
</g>
</g>
</svg>
