<svg width="111" height="44" viewBox="0 0 111 44" fill="none" xmlns="http://www.w3.org/2000/svg">
<path d="M6.95225 20.1611C8.13761 20.171 9.31721 20.2444 10.4864 20.4558C11.2886 20.6013 12.0804 20.7966 12.7833 21.2617C13.0107 21.4122 13.2196 21.6062 13.4054 21.8139C13.6582 22.0974 13.784 22.4531 13.7944 22.8523C13.8151 23.7689 13.6224 24.6382 13.2842 25.4715C12.811 26.638 12.1104 27.6205 11.1847 28.4115C10.1321 29.3107 8.94209 29.8603 7.59629 29.9723C4.86314 30.1999 2.75326 29.0209 1.20086 26.6306C0.613369 25.7264 0.259029 24.7116 0.132066 23.6122C0.102057 23.3498 0.0858982 23.0812 0.100903 22.8188C0.140146 22.1211 0.519878 21.6547 1.04042 21.299C1.58636 20.9272 2.19232 20.7195 2.81674 20.5715C3.7401 20.3526 4.6727 20.222 5.61914 20.2083C6.06351 20.2021 6.50788 20.1772 6.95109 20.1611H6.95225Z" fill="white"/>
<path d="M57.8964 18.9025C57.3909 19.2196 56.8842 19.538 56.3671 19.8614C55.6054 18.665 54.57 18.0083 53.2254 18.0195C52.1831 18.0282 51.299 18.4722 50.5984 19.3092C49.2745 20.8923 49.3703 23.3784 50.9158 24.8434C52.4521 26.301 55.0536 26.1393 56.3694 23.9318C56.875 24.2477 57.3805 24.5649 57.8861 24.8807C57.1912 26.3582 55.2499 27.9202 52.863 27.7113C50.1414 27.4713 48.0903 25.1481 47.901 22.3213C47.7083 19.4422 49.4996 16.8442 52.0643 16.2112C54.6277 15.5782 56.965 17.083 57.8964 18.9025Z" fill="white"/>
<path d="M58.582 27.7337V16.2423H60.3895V20.9396C60.4068 20.9446 60.423 20.9496 60.4403 20.9545C60.4888 20.8575 60.5372 20.7605 60.5834 20.6635C60.8962 20.0131 61.3579 19.5281 62.0227 19.3465C63.0476 19.0679 63.9952 19.2308 64.757 20.0939C65.1691 20.5615 65.3549 21.1498 65.423 21.7791C65.4542 22.0614 65.4611 22.3474 65.4611 22.631C65.4645 24.2428 65.4622 25.8545 65.4622 27.4663C65.4622 27.5496 65.4622 27.633 65.4622 27.7337H63.6132C63.6132 27.6392 63.6132 27.5571 63.6132 27.4763C63.6132 25.8583 63.6144 24.239 63.6074 22.621C63.6074 22.4171 63.5774 22.2056 63.5232 22.0104C63.3443 21.3637 62.9265 21.0167 62.3078 20.9433C61.6638 20.8675 60.9909 21.1199 60.6711 21.7803C60.5673 21.9942 60.5084 22.2392 60.4622 22.4768C60.4218 22.6832 60.4161 22.8996 60.4161 23.1123C60.4126 24.5686 60.4137 26.0249 60.4137 27.4825V27.7325H58.5786L58.582 27.7337Z" fill="white"/>
<path d="M84.2515 16.2423V22.6757C84.3727 22.7466 84.4212 22.6546 84.4743 22.5912C84.8194 22.177 85.1622 21.7604 85.505 21.3438C86.0116 20.7294 86.5172 20.1138 87.0239 19.4994C87.0631 19.4509 87.1058 19.4062 87.1405 19.3676H89.3081C88.2958 20.5864 87.309 21.7741 86.3106 22.9742C87.3678 24.5599 88.4158 26.1331 89.4858 27.7387H87.2755C86.4906 26.5597 85.7046 25.3795 84.9071 24.1818C84.6797 24.4417 84.4662 24.6867 84.248 24.9355V27.7312H82.4186V16.2423H84.2515Z" fill="white"/>
<path d="M93.5117 27.9277C91.2944 27.9277 89.502 25.9851 89.5031 23.5836C89.5031 21.1846 91.3141 19.2383 93.5394 19.2433C95.7543 19.2482 97.5583 21.1983 97.5491 23.5923C97.5398 26.1045 95.6262 27.96 93.5117 27.929V27.9277ZM93.5209 25.9316C94.7293 25.9316 95.6793 24.9069 95.6769 23.6035C95.6746 22.3188 94.7143 21.2791 93.529 21.2754C92.3505 21.2729 91.3683 22.3238 91.3637 23.5948C91.3602 24.887 92.3228 25.9304 93.5209 25.9316Z" fill="white"/>
<path d="M45.1286 24.1457H39.7478C39.7639 24.3311 39.772 24.4952 39.7928 24.6569C39.9128 25.561 40.4668 26.204 41.2886 26.3694C41.658 26.444 42.0308 26.4303 42.3932 26.3035C42.8006 26.1592 43.1053 25.8844 43.2923 25.464C43.3096 25.4242 43.3316 25.3857 43.3627 25.326C43.9237 25.3931 44.4869 25.4603 45.0709 25.5312C45.0421 25.6481 45.0271 25.7351 45.0005 25.8185C44.7281 26.6642 44.1937 27.2574 43.4366 27.5919C42.317 28.0869 41.1767 28.1006 40.0502 27.6131C39.2191 27.2536 38.6236 26.602 38.2946 25.7103C37.751 24.2403 37.7591 22.7591 38.3996 21.3264C38.9213 20.1586 39.8205 19.4994 41.0105 19.3166C41.7561 19.2022 42.4844 19.2768 43.178 19.6126C44.0518 20.0367 44.6058 20.7705 44.9082 21.7355C45.1448 22.4892 45.1725 23.2702 45.1529 24.0562C45.1529 24.0811 45.1413 24.1047 45.1298 24.147L45.1286 24.1457ZM43.3789 22.764C43.3419 22.0651 43.133 21.4694 42.5605 21.1075C41.9234 20.7046 41.2586 20.7244 40.6296 21.1299C40.0709 21.4893 39.8112 22.0601 39.7524 22.7653H43.38L43.3789 22.764Z" fill="white"/>
<path d="M73.7852 24.1445H68.4262C68.2439 24.8061 68.7933 25.8931 69.4638 26.2152C69.9313 26.4403 70.4195 26.4639 70.9101 26.3408C71.4214 26.2115 71.7884 25.8782 71.9904 25.326C72.5617 25.3944 73.125 25.4615 73.7078 25.5299C73.6536 25.8707 73.5301 26.1543 73.3743 26.4216C73.0015 27.0646 72.4578 27.48 71.7999 27.7101C70.8477 28.0434 69.884 28.0583 68.9318 27.7138C67.9311 27.3519 67.2339 26.6194 66.875 25.5548C66.4144 24.1868 66.4167 22.8038 66.9754 21.4694C67.5571 20.0815 68.6005 19.3714 70.0063 19.2781C70.6331 19.237 71.2425 19.3291 71.8173 19.6101C72.721 20.0541 73.2819 20.819 73.5751 21.8263C73.7921 22.5725 73.8129 23.3399 73.784 24.1433L73.7852 24.1445ZM71.9962 22.764C72.1162 21.8835 71.3602 20.9172 70.5061 20.8463C69.3438 20.7493 68.4135 21.5913 68.4054 22.764H71.9962Z" fill="white"/>
<path d="M32.1923 27.7772H30.4299V26.4204L30.3849 26.4104C30.3479 26.4739 30.3121 26.5373 30.2741 26.6007C29.8782 27.2661 29.3495 27.7548 28.6143 27.8916C27.6702 28.067 26.793 27.8916 26.0785 27.1417C25.7577 26.8047 25.588 26.3781 25.5187 25.9068C25.4437 25.3931 25.4668 24.8857 25.6607 24.4019C25.895 23.8199 26.3267 23.468 26.8576 23.2354C27.3747 23.009 27.9195 22.922 28.47 22.8523C28.9167 22.7964 29.3622 22.7292 29.8078 22.6596C29.9013 22.6447 29.9947 22.6098 30.0813 22.5663C30.2452 22.483 30.3364 22.3462 30.3456 22.141C30.3826 21.35 29.967 20.8463 29.2318 20.8003C28.9294 20.7817 28.6316 20.7978 28.3442 20.9122C27.9795 21.0565 27.7002 21.3065 27.5282 21.687C27.5051 21.7393 27.4774 21.789 27.444 21.8549C26.8819 21.7666 26.3198 21.6783 25.7427 21.5888C25.7565 21.5204 25.7611 21.4706 25.775 21.4246C26.0485 20.5242 26.6037 19.8974 27.4174 19.5616C28.4862 19.1214 29.5711 19.1127 30.6365 19.5716C31.621 19.9957 32.1404 20.8127 32.182 21.9495C32.212 22.764 32.1923 23.5811 32.1923 24.397C32.1923 25.4391 32.1923 26.4826 32.1923 27.5248V27.7797V27.7772ZM30.2914 23.8336C30.0017 23.9082 29.7189 23.9928 29.4326 24.0512C29.1383 24.1109 28.8371 24.1321 28.5439 24.1955C28.2981 24.249 28.0534 24.3211 27.8214 24.4218C27.5628 24.5338 27.3562 24.7303 27.2801 25.0325C27.1346 25.6095 27.3389 26.1418 27.9079 26.3458C28.3869 26.5174 28.8694 26.4938 29.3345 26.2873C29.8932 26.0386 30.2498 25.5909 30.3156 24.938C30.3525 24.5761 30.3052 24.2042 30.2948 23.8373C30.2948 23.8323 30.2879 23.8274 30.2925 23.8336H30.2914Z" fill="white"/>
<path d="M103.321 19.4422H105.152V27.7461H103.394V26.1306C103.377 26.1244 103.36 26.1182 103.343 26.112C103.313 26.1667 103.28 26.2189 103.255 26.2749C103.073 26.6828 102.823 27.0335 102.509 27.3345C101.356 28.4388 99.2434 28.0707 98.6178 26.2575C98.4586 25.7961 98.3812 25.321 98.3801 24.8335C98.3755 23.1048 98.3778 21.3761 98.3789 19.6474C98.3789 19.584 98.3859 19.5218 98.3905 19.4472H100.226C100.226 19.533 100.226 19.6151 100.226 19.6959C100.226 21.2692 100.226 22.8424 100.226 24.4156C100.226 24.7564 100.275 25.0847 100.421 25.3931C100.7 25.9888 101.271 26.2463 101.815 26.1779C102.752 26.0597 103.317 25.367 103.32 24.3373C103.326 22.8026 103.321 21.2679 103.321 19.7345V19.4422Z" fill="white"/>
<path d="M24.7281 26.0423V27.7337H18.3673V16.2398H20.2452V26.0423H24.7281Z" fill="white"/>
<path d="M81.7734 20.952C81.2552 21.2766 80.7485 21.595 80.2464 21.9097C79.076 20.7754 77.6241 21.2605 76.9927 22.0688C76.269 22.9954 76.2817 24.341 77.0343 25.2501C77.7476 26.112 79.1869 26.3818 80.2418 25.3509C80.7439 25.6655 81.2506 25.9826 81.7584 26.2998C81.1709 27.2735 79.7339 28.1143 78.1677 27.9003C76.4179 27.6603 74.8563 26.1294 74.697 23.9542C74.555 22.0216 75.6377 20.232 77.3586 19.5703C79.0541 18.9187 80.8351 19.6325 81.7746 20.9508L81.7734 20.952Z" fill="white"/>
<path d="M32.7267 20.9607V19.4136H33.8013V17.471H35.6226C35.8027 18.2073 35.4807 18.859 34.6496 19.4087H36.973V20.9632H35.6907C35.6861 21.059 35.6815 21.1286 35.6815 21.197C35.6815 22.5626 35.6815 23.9281 35.6815 25.2936C35.6815 25.3198 35.6815 25.3459 35.6815 25.3707C35.693 25.9279 35.962 26.2251 36.4767 26.2264C36.7157 26.2264 36.9546 26.1978 37.2177 26.1791C37.3182 26.6816 37.4186 27.184 37.5201 27.6939C37.4867 27.7163 37.459 27.7474 37.4278 27.7548C36.7595 27.9053 36.0866 28.0011 35.4114 27.8319C34.5608 27.6193 34.0114 27.0659 33.8521 26.1182C33.8186 25.9217 33.8105 25.719 33.8105 25.52C33.8071 24.0898 33.8094 22.6596 33.8082 21.2294C33.8082 21.1473 33.8001 21.0652 33.7955 20.9607H32.7267Z" fill="white"/>
<path d="M110.519 26.1754C110.62 26.6903 110.72 27.1877 110.821 27.6976C110.784 27.72 110.751 27.7524 110.714 27.7598C110.099 27.8979 109.479 27.9837 108.854 27.8655C107.742 27.6553 107.113 26.842 107.109 25.6182C107.105 24.1619 107.109 22.7044 107.109 21.248C107.109 21.1647 107.109 21.0814 107.109 20.9657H106.03V19.4111H107.107V17.4698H108.928C109.052 18.1961 108.804 18.9771 107.991 19.4062H110.279V20.9657H108.996C108.992 21.054 108.984 21.1224 108.984 21.1908C108.984 22.5315 108.981 23.8709 108.985 25.2116C108.985 25.3658 108.996 25.5237 109.029 25.673C109.093 25.9739 109.275 26.1729 109.562 26.1965C109.841 26.2189 110.124 26.1916 110.405 26.1853C110.433 26.1853 110.463 26.1804 110.519 26.1766V26.1754Z" fill="white"/>
<path d="M0.137837 16.5843C0.586821 16.302 1.03581 16.0185 1.5021 15.725C1.54019 15.1728 1.57828 14.6156 1.61637 14.0585C1.63022 14.0497 1.64292 14.041 1.65677 14.0336C2.05612 14.3967 2.45548 14.7586 2.86175 15.1268C3.37999 14.9875 3.89592 14.8494 4.45917 14.6977C4.23641 15.2461 4.02981 15.7548 3.81743 16.2796C4.09906 16.7522 4.37953 17.2223 4.66 17.6937C4.65423 17.7086 4.64846 17.7223 4.64269 17.7372C4.11637 17.6862 3.59006 17.634 3.0522 17.5817C2.70709 18.0183 2.36198 18.456 1.98456 18.9336C1.85644 18.3478 1.73756 17.8056 1.61637 17.2509C1.12583 17.0445 0.635298 16.838 0.144762 16.6303C0.142453 16.6154 0.140145 16.5992 0.137837 16.5843Z" fill="white"/>
<path d="M12.3758 15.7038C12.8387 15.9961 13.2923 16.2821 13.7794 16.5905C13.2496 16.8132 12.759 17.0196 12.2604 17.2298C12.1404 17.7782 12.0227 18.3217 11.8934 18.9124C11.5275 18.4473 11.187 18.0158 10.8442 17.5805C10.3098 17.634 9.78004 17.6862 9.20871 17.7422C9.51227 17.2335 9.79274 16.7634 10.0801 16.2809C9.87238 15.7685 9.66347 15.2573 9.43725 14.6989C9.99588 14.8482 10.5118 14.985 11.037 15.1255C11.4375 14.7611 11.8391 14.3955 12.2731 14C12.3089 14.597 12.3424 15.1479 12.3758 15.7051V15.7038Z" fill="white"/>
</svg>
