<svg width="69" height="44" viewBox="0 0 69 44" fill="none" xmlns="http://www.w3.org/2000/svg">
<path fill-rule="evenodd" clip-rule="evenodd" d="M46.1159 24.7171C45.186 26.2104 43.592 27.1021 41.8527 27.1021C39.0746 27.1021 36.8147 24.8132 36.8147 21.9999C36.8147 19.1866 39.0746 16.8978 41.8527 16.8978C43.5785 16.8978 45.1657 17.779 46.0979 19.2548L46.224 19.4538L47.8069 18.4393L47.6803 18.2383C46.4018 16.2107 44.2232 15.0001 41.8527 15.0001C38.0415 15.0001 34.9406 18.1402 34.9406 21.9999C34.9406 25.8597 38.0415 28.9999 41.8527 28.9999C44.2376 28.9999 46.4235 27.7781 47.6997 25.7315L47.8249 25.5308L46.2411 24.5159L46.1159 24.7171Z" fill="white"/>
<path fill-rule="evenodd" clip-rule="evenodd" d="M2.10072 15H0.0778809V28.9998H9.93036V27.0604H2.10072V15Z" fill="white"/>
<path fill-rule="evenodd" clip-rule="evenodd" d="M18.2794 15.0388L12.2111 29L14.3074 29L18.9887 18.2503L23.6675 29L25.7618 29L19.6762 15.0388H18.2794Z" fill="white"/>
<path fill-rule="evenodd" clip-rule="evenodd" d="M34.1823 15.0001H23.5719V16.94H27.8976V28.9999H29.8412V16.94H34.1823V15.0001Z" fill="white"/>
<path fill-rule="evenodd" clip-rule="evenodd" d="M58.7669 21.0277H51.2811V15.0001H49.3398V28.9976H51.2811V22.9635H58.7669V28.9999H60.7078V15.0001H58.7669V21.0277Z" fill="white"/>
<path fill-rule="evenodd" clip-rule="evenodd" d="M66.3358 16.6786C66.5065 16.6786 66.5912 16.6651 66.6623 16.6327C66.7618 16.5915 66.8231 16.4953 66.8231 16.3671C66.8231 16.2476 66.7569 16.1514 66.6623 16.1098C66.5867 16.0778 66.5065 16.0687 66.3358 16.0687H65.8675V16.6786H66.3358ZM65.8675 17.6696H65.6261V15.8438H66.3975C66.6479 15.8438 66.7763 15.8898 66.8848 15.963C67.0221 16.0595 67.0883 16.2016 67.0883 16.367C67.0883 16.6786 66.8375 16.8666 66.5817 16.899L67.15 17.6696H66.8425L66.2697 16.9037H65.8675V17.6696ZM66.2741 15.2096C65.3992 15.2096 64.7313 15.9043 64.7313 16.7525C64.7313 17.5903 65.3992 18.2799 66.2741 18.2799C67.1604 18.2799 67.8273 17.5903 67.8273 16.7525C67.8273 15.9043 67.1604 15.2096 66.2741 15.2096ZM66.2741 18.5C65.2591 18.5 64.4769 17.731 64.4769 16.7525C64.4769 15.7635 65.2591 15 66.2741 15C67.3 15 68.0768 15.7635 68.0768 16.7525C68.0768 17.731 67.3 18.5 66.2741 18.5Z" fill="white"/>
</svg>
