<svg width="78" height="44" viewBox="0 0 78 44" fill="none" xmlns="http://www.w3.org/2000/svg">
<path d="M41.9804 22.1584C41.9694 22.0271 41.9704 21.8208 41.9306 21.6221C41.7777 20.8488 41.513 20.1127 41.0537 19.4627C40.5113 18.695 39.813 18.1722 38.8002 18.21C38.4345 18.2241 38.122 18.3609 37.9122 18.6567C37.6335 19.0507 37.3981 19.4758 37.1083 19.8617C36.2988 20.9399 35.9199 22.1202 36.1986 23.455C36.4084 24.4587 36.9407 25.2657 37.8172 25.8362C38.3389 26.1758 38.916 26.2186 39.5147 26.1044C39.8568 26.039 40.1536 25.8905 40.3795 25.6214C40.5717 25.3919 40.7785 25.1736 40.9581 24.9361C41.5669 24.1337 41.9689 23.2532 41.9804 22.1584ZM31.8608 21.9783V16.3032C31.8608 15.5922 32.5108 14.9563 33.2373 14.9563H44.8089C45.4373 14.9563 46.0526 15.4619 46.1563 16.0697C46.1819 16.2206 46.195 16.3756 46.195 16.5291C46.197 20.2008 46.195 23.8725 46.198 27.5443C46.1985 28.4187 45.5405 29.0436 44.6832 29.0426C40.9017 29.039 37.1203 29.038 33.3394 29.0436C32.4575 29.0451 31.8467 28.3221 31.8547 27.5976C31.8749 25.7245 31.8608 23.8514 31.8608 21.9783ZM26.0402 22.2399C26.0402 22.0975 26.0599 21.9516 26.0367 21.8128C25.916 21.0732 25.684 20.3698 25.2911 19.7218C24.8936 19.0658 24.378 18.5481 23.6162 18.3081C22.8228 18.059 22.1693 18.289 21.8161 18.9229C21.6511 19.2197 21.469 19.5105 21.2627 19.7802C20.6836 20.5384 20.2635 21.3615 20.1925 22.3179C20.1271 23.2014 20.3168 24.0396 20.8224 24.7817C21.4061 25.638 22.1426 26.2618 23.2882 26.1622C23.7159 26.125 24.1204 26.0203 24.4162 25.6873C24.6602 25.4131 24.9067 25.1384 25.1206 24.842C25.682 24.0642 26.0694 23.221 26.0402 22.2399ZM30.4173 22.0035V27.6947C30.4173 28.2969 29.9258 28.8735 29.31 29.0028C29.1685 29.0305 29.0245 29.0436 28.8803 29.0421C25.1105 29.0436 21.3407 29.0436 17.5703 29.0436C16.7241 29.0436 16.0766 28.4111 16.0766 27.5825V16.4224C16.0761 15.5193 16.8257 14.9533 17.5618 14.9563C21.3819 14.9714 25.2026 14.9664 29.0227 14.9603C29.7386 14.9593 30.4214 15.6008 30.4194 16.3112C30.4133 18.2085 30.4173 20.1057 30.4168 22.003M6.36697 23.1511C5.84524 22.0105 5.55192 20.879 5.72248 19.667C5.82662 18.9274 6.15314 18.303 6.77197 17.8538C7.38074 17.412 8.05642 17.1886 8.82216 17.335C9.29962 17.4261 9.77506 17.5267 10.251 17.6243C10.7058 17.7174 11.2019 17.2948 11.0937 16.8797C10.9342 16.2654 10.5972 15.7603 10.0085 15.4594C9.32025 15.1072 8.59123 15.1289 7.86373 15.2914C6.66883 15.558 5.71191 16.199 4.93057 17.1197C3.96459 18.2588 3.55858 19.5548 3.77693 21.0219C3.89567 21.8223 4.08886 22.6122 4.20307 23.4137C4.27502 23.9198 4.28961 24.0089 3.82875 24.2775C3.72662 24.3374 3.62046 24.3913 3.51783 24.4506C3.30149 24.5744 3.20539 24.7505 3.23458 25.004C3.26879 25.2989 3.40865 25.4936 3.70599 25.5263C4.03352 25.5615 4.36658 25.5449 4.69562 25.5685C4.81285 25.5771 4.95975 25.6058 5.03472 25.6812C5.26917 25.9182 5.5001 26.1657 5.68877 26.4384C5.97001 26.8455 6.19742 27.2887 6.48017 27.6947C6.64821 27.9362 6.85951 28.1717 7.16792 28.2451C7.62676 28.3543 8.06598 28.2713 8.46093 28.0167C8.68481 27.8718 8.72154 27.6967 8.63048 27.4527C8.48307 27.0563 8.21189 26.7393 7.95127 26.4153C7.67909 26.0772 7.37018 25.7632 7.23433 25.3371C7.10705 24.9371 7.19811 24.677 7.57947 24.4929C7.88184 24.3465 8.20384 24.2393 8.51627 24.112C9.05812 23.8917 9.60551 23.6819 10.1388 23.4424C10.411 23.3201 10.6168 23.1118 10.7023 22.8089C10.807 22.4407 10.6575 22.0477 10.3325 21.9698C10.0907 21.9087 9.83967 21.8923 9.59193 21.9215C8.95448 22.0095 8.37842 22.2907 7.7948 22.5408C7.3259 22.742 6.8565 22.9418 6.36697 23.1511ZM0.304437 21.9838V16.3082C0.30494 15.5958 0.953958 14.9563 1.67693 14.9563H13.2496C13.88 14.9563 14.4928 15.4564 14.6014 16.0652C14.6271 16.2101 14.6402 16.359 14.6402 16.5059C14.6422 20.1968 14.6417 23.8876 14.6417 27.5785C14.6417 28.4086 13.9972 29.0426 13.1525 29.0426C9.35798 29.0426 5.56349 29.0411 1.769 29.0436C0.903646 29.0441 0.291356 28.3327 0.2984 27.6036C0.317015 25.7305 0.304437 23.8574 0.304437 21.9838ZM70.7646 20.3945C70.7617 20.3828 70.7589 20.371 70.7561 20.3593C70.2635 20.4378 69.7614 20.48 69.2809 20.6033C68.2832 20.8599 67.4783 21.4083 66.9399 22.2867C66.7085 22.6646 66.6209 23.0917 66.5792 23.5334C66.5319 24.035 66.6109 24.4979 66.8775 24.9306C67.2715 25.5695 67.8586 25.9569 68.5821 26.1149C69.3176 26.2749 70.0693 26.3655 70.8109 26.5018C70.9165 26.5214 71.0247 26.611 71.0992 26.696C71.1963 26.8067 71.2466 26.9566 71.3422 27.0688C71.6018 27.3757 72.0802 27.5543 72.3841 27.0145C72.4569 26.879 72.5159 26.7366 72.5602 26.5894C72.8032 25.8317 72.84 25.0428 72.8923 24.2599C72.935 23.619 73.0573 22.9956 73.1921 22.3702C73.3853 21.4767 73.6434 20.5892 73.5091 19.6569C73.4356 19.1503 73.2927 18.6693 72.9657 18.2608C72.3902 17.5423 71.5731 17.3854 70.7128 17.3683C70.4034 17.3617 70.0889 17.416 69.782 17.4714C69.049 17.6037 68.3612 17.8588 67.7333 18.2583C67.681 18.2915 67.6277 18.3564 67.6176 18.4132C67.5422 18.8751 67.6302 19.3088 67.9044 19.6932C68.0684 19.9246 68.2767 19.9779 68.5484 19.8818C68.7838 19.7988 69.0153 19.7057 69.2482 19.6152C69.9179 19.3566 70.583 19.0783 71.3321 19.2001C71.5444 19.2343 71.7693 19.2393 71.8367 19.4979C71.9172 19.8048 71.8815 20.1052 71.7502 20.3925C71.7341 20.4277 71.6687 20.4629 71.6284 20.4604C71.3402 20.4438 71.0524 20.4176 70.7646 20.3945ZM70.1105 14.9588H75.8873C76.6048 14.9588 77.2729 15.6013 77.2734 16.3047C77.2754 20.0941 77.2754 23.8831 77.2734 27.6726C77.2734 28.3005 76.7512 28.9007 76.1228 29.0038C75.9809 29.027 75.836 29.0405 75.6931 29.0405C71.9364 29.0426 68.1801 29.0405 64.4233 29.0436C64.2291 29.0472 64.0361 29.0121 63.8556 28.9404C63.675 28.8687 63.5106 28.7618 63.3717 28.6259C63.2329 28.49 63.1225 28.3279 63.0469 28.1489C62.9714 27.97 62.9322 27.7778 62.9316 27.5835C62.9437 23.8378 62.9397 20.0921 62.9346 16.3464C62.9336 15.632 63.5736 14.9533 64.3529 14.9563C66.2718 14.9634 68.1917 14.9588 70.1105 14.9588ZM50.1535 23.2185C50.146 23.7095 50.3759 24.2821 50.8156 24.7721C51.3892 25.4106 52.1167 25.8573 52.8482 26.289C53.4771 26.6598 54.1825 26.5743 54.8657 26.5079C55.2782 26.4676 55.4342 26.5069 55.6319 26.8701C55.7381 27.0648 55.8412 27.262 55.9514 27.4547C56.0691 27.662 56.2357 27.817 56.4772 27.8733C56.9184 27.9755 57.2756 27.7978 57.5875 27.5176C57.6494 27.4623 57.6831 27.3365 57.6716 27.25C57.5926 26.6412 57.4854 26.0364 57.414 25.4277C57.336 24.7676 57.253 24.1055 57.2338 23.4424C57.2132 22.6316 57.2245 21.8202 57.2676 21.0103C57.2977 20.3915 57.3647 19.7711 57.4607 19.1583C57.6087 18.2125 57.8582 17.2893 58.1797 16.3852C58.2079 16.3052 58.2451 16.2171 58.235 16.1371C58.1872 15.7241 57.6021 15.2869 57.181 15.3382C56.8616 15.3774 56.5631 15.5176 56.329 15.7385C56.095 15.9593 55.9376 16.2492 55.88 16.5658C55.8166 16.9285 55.7768 17.2953 55.7255 17.6601C55.6707 18.051 55.5519 18.4092 55.1771 18.6225C54.7168 18.8846 54.2625 19.1609 53.7885 19.3983C53.0343 19.7762 52.2555 20.1072 51.5607 20.5917C50.6974 21.1934 50.158 21.9733 50.1535 23.2185ZM47.639 21.9979C47.639 20.1364 47.6535 18.2759 47.6319 16.4148C47.6239 15.715 48.1068 15.1083 48.7881 14.9744C48.8496 14.9627 48.9121 14.957 48.9747 14.9573C52.8497 14.9563 56.7242 14.9563 60.5992 14.9563C61.2427 14.9563 61.8741 15.5148 61.936 16.1422C61.9581 16.3691 61.9732 16.598 61.9732 16.8264C61.9752 20.3864 61.9762 23.947 61.9732 27.5076C61.9732 28.2647 61.5596 28.787 60.9181 28.9797C60.7883 29.0184 60.6475 29.04 60.5121 29.04C56.7005 29.0436 52.8884 29.0436 49.0769 29.0426C48.2206 29.0426 47.6259 28.3166 47.6329 27.6358C47.6515 25.7562 47.6395 23.8771 47.639 21.9979Z" fill="white"/>
<path d="M39.9818 22.3324C39.9441 22.5065 39.926 22.6861 39.8656 22.8537C39.7403 23.2023 39.3912 23.4388 38.9651 23.4056C38.7336 23.3875 38.4946 23.3563 38.2783 23.2853C37.751 23.1133 37.4939 22.669 37.6248 22.1815C37.7787 21.6069 38.1269 21.134 38.641 20.7532C38.6798 20.7245 38.722 20.6978 38.7668 20.6772C38.9998 20.569 39.0793 20.5343 39.2689 20.7456C39.6865 21.2125 39.9501 21.7257 39.9818 22.3324ZM24.2042 22.3445C24.1639 22.746 24.0764 23.1399 23.5818 23.3387C23.0536 23.5505 21.9517 23.2728 21.8305 22.6152C21.7857 22.3752 21.833 22.1488 21.9231 21.9234C22.118 21.4238 22.4635 20.9973 22.9117 20.7028C22.9861 20.653 23.0777 20.6088 23.1673 20.5952C23.2412 20.5836 23.3559 20.5972 23.4002 20.6405C23.8912 21.1204 24.1609 21.6844 24.2042 22.3445ZM70.5435 24.8138C69.899 24.8058 69.2797 24.6755 68.7077 24.3711C68.1256 24.0611 68.0999 23.7794 68.3127 23.2028C68.4737 22.7676 68.836 22.5412 69.2561 22.4376C69.806 22.3012 70.3669 22.2102 70.9229 22.098C71.0059 22.0814 71.0919 22.0688 71.1674 22.0341C71.3349 21.9571 71.3968 22.0104 71.4527 22.185C71.6242 22.7224 71.5045 23.234 71.3621 23.7477C71.2831 24.0345 71.187 24.3182 71.1256 24.6095C71.0944 24.759 71.0089 24.7997 70.8912 24.8113C70.7765 24.8229 70.6592 24.8138 70.5435 24.8138ZM55.2816 20.5912C55.2353 21.0223 55.2041 21.4122 55.1502 21.7996C55.0491 22.5246 54.9404 23.2486 54.9827 23.9832C55.0003 24.2971 55.0043 24.2901 54.6954 24.3313C54.1179 24.4093 53.6389 24.2025 53.2148 23.8594C52.7554 23.4881 52.4631 23.0116 52.4163 22.4346C52.3831 22.022 52.5783 21.6729 52.9003 21.3941C53.3732 20.9841 53.9508 20.7949 54.5606 20.6812C54.7789 20.6405 55.0023 20.6249 55.2816 20.5912Z" fill="white"/>
</svg>
