<svg width="37" height="44" viewBox="0 0 37 44" fill="none" xmlns="http://www.w3.org/2000/svg">
<path d="M24.9577 22.0217C25.0117 20.801 25.4322 19.9493 26.1754 19.8499C26.671 19.7836 26.9736 20.1745 27.0353 20.6516C27.1829 21.7913 26.6509 23.0084 25.8033 23.1217C25.4512 23.169 25.1732 23.0712 24.9503 22.8854L24.9577 22.0217Z" fill="white"/>
<path fill-rule="evenodd" clip-rule="evenodd" d="M0.310059 22.0001C0.310059 12.0534 8.37353 3.98962 18.3203 3.98962C28.2671 3.98962 36.3306 12.0534 36.3306 22.0001C36.3306 31.9469 28.2671 40.0104 18.3203 40.0104C8.37353 40.0104 0.310059 31.9469 0.310059 22.0001ZM24.8514 24.7925C25.0967 24.9216 25.6177 25.0007 26.1198 24.9346C28.5633 24.6129 29.8301 22.4976 29.5346 20.2522C29.3345 18.7334 28.2869 17.7158 26.8338 17.9069C26.0415 18.0115 25.3172 18.4293 24.8606 19.1477L24.8343 19.1512L24.8427 18.413C24.8433 18.3692 24.8051 18.3353 24.7618 18.341L22.8451 18.5934C22.811 18.598 22.785 18.6261 22.7831 18.6605L22.2708 28.0736C22.2684 28.1185 22.3071 28.1545 22.3518 28.1486L24.0688 27.9225C24.4008 27.8789 24.6551 27.6062 24.6754 27.2721L24.8251 24.796L24.8514 24.7925ZM19.5562 17.2795C19.6447 17.9532 20.2104 18.2684 20.8048 18.1902C21.531 18.0946 22.1078 17.5752 22.0035 16.7826C21.9131 16.0956 21.3474 15.7804 20.7135 15.8638C20.0531 15.951 19.45 16.4737 19.5562 17.2795ZM21.4319 25.3906C21.4674 25.386 21.4942 25.3568 21.4964 25.321L21.8608 18.8086C21.8633 18.7637 21.8246 18.7277 21.7799 18.7336L19.5757 19.0236C19.5402 19.0283 19.5131 19.0575 19.5112 19.0932L19.1468 25.6027C19.1443 25.649 19.1844 25.6863 19.2307 25.6804L21.4319 25.3906ZM16.8483 22.4323L19.111 19.2094C19.1541 19.1607 19.1134 19.0846 19.0487 19.0932L16.7346 19.3979C16.7143 19.4006 16.6959 19.4117 16.6842 19.4287L15.3942 21.2482L15.3677 21.2514L15.6206 16.6218C15.6233 16.576 15.5837 16.5395 15.5385 16.5454L14.0939 16.7355C13.7524 16.7805 13.4917 17.0618 13.4724 17.4057L12.972 26.4174C12.9696 26.4629 13.0091 26.4995 13.0543 26.4935L15.0281 26.2336C15.0628 26.229 15.0893 26.2006 15.0912 26.1656L15.1716 24.7567L15.6655 24.063L16.8145 25.9563C16.8288 25.9801 16.8559 25.9929 16.8833 25.9893L18.9412 25.7186C19.0032 25.7102 19.0325 25.6373 18.9935 25.5886L16.8483 22.4323ZM7.10219 26.8518C7.63536 27.1277 8.58934 27.2425 9.51272 27.121C11.4675 26.8637 12.7879 25.8702 12.581 24.2983C12.4296 23.1491 11.2891 22.8558 10.5959 22.692C9.99824 22.5422 9.69469 22.3806 9.67384 22.2219C9.64433 21.9974 9.89453 21.8572 10.3172 21.8014C10.9839 21.7136 11.509 21.7973 11.8585 21.8807C11.8973 21.8899 11.9357 21.8655 11.9433 21.8266L12.258 20.2609C12.2647 20.2259 12.2447 20.1913 12.2108 20.1804C11.7944 20.0459 11.1095 19.9771 10.2533 20.0897C8.37759 20.337 7.13008 21.3746 7.32829 22.8802C7.45719 23.8574 8.41171 24.2693 9.2441 24.4689C9.868 24.6151 10.1152 24.7573 10.1447 24.9817C10.1691 25.1667 10.0034 25.3365 9.54116 25.3971C8.8382 25.4897 7.95164 25.2913 7.46883 25.1504C7.42957 25.1391 7.38895 25.1637 7.38083 25.2038L7.06536 26.7757C7.05913 26.8066 7.0743 26.8374 7.10219 26.8518Z" fill="white"/>
</svg>
