<svg width="87" height="44" viewBox="0 0 87 44" fill="none" xmlns="http://www.w3.org/2000/svg">
<path fill-rule="evenodd" clip-rule="evenodd" d="M85.3647 20.7565C85.403 20.7565 85.439 20.7556 85.4729 20.7529C85.504 20.7514 85.5344 20.7449 85.563 20.7337C85.589 20.7235 85.6109 20.7064 85.626 20.6847C85.6433 20.6568 85.6515 20.6251 85.6496 20.5932C85.6511 20.5654 85.6437 20.5378 85.6284 20.5137C85.6152 20.4945 85.5965 20.4788 85.5743 20.4682C85.5503 20.457 85.5243 20.4496 85.4975 20.4464C85.4692 20.4428 85.4405 20.441 85.4119 20.441H85.1895V20.7565H85.3647ZM85.4395 20.3161C85.5679 20.3161 85.6634 20.3393 85.7249 20.3866C85.7869 20.4334 85.8179 20.5044 85.8179 20.5999C85.8179 20.6891 85.7908 20.7547 85.7362 20.7962C85.6785 20.8391 85.6078 20.8649 85.5335 20.8703L85.8425 21.3085H85.6619L85.3676 20.8815H85.1895V21.3085H85.0212V20.3161H85.4395ZM84.6762 21.0983C84.7146 21.1867 84.7687 21.2634 84.8371 21.3286C84.9074 21.3954 84.992 21.4485 85.0858 21.4845C85.1796 21.5205 85.2805 21.5387 85.3824 21.5379C85.4835 21.5387 85.5837 21.5205 85.6767 21.4845C85.7697 21.4484 85.8534 21.3954 85.9227 21.3286C85.9924 21.2621 86.047 21.1838 86.0836 21.0983C86.1225 21.01 86.1422 20.9131 86.1422 20.8083C86.1422 20.7074 86.1225 20.6128 86.0836 20.5249C86.0104 20.3549 85.8658 20.2181 85.6816 20.1447C85.5873 20.1072 85.4853 20.0882 85.3824 20.0889C85.2807 20.0879 85.1798 20.1058 85.086 20.1414C84.9923 20.1771 84.9075 20.2299 84.8371 20.2964C84.7675 20.3623 84.7129 20.4399 84.6762 20.5249C84.637 20.6153 84.6173 20.7116 84.6181 20.8087C84.6181 20.9131 84.6378 21.0095 84.6762 21.0983ZM84.5237 20.4749C84.5956 20.3227 84.7155 20.1931 84.8682 20.1022C85.0209 20.0113 85.1997 19.9633 85.3824 19.964C85.5093 19.964 85.6289 19.9854 85.7416 20.0287C85.9637 20.1139 86.1408 20.2739 86.2357 20.4749C86.2849 20.5776 86.31 20.6891 86.31 20.8087C86.3115 20.9218 86.2879 21.034 86.2408 21.1387C86.1936 21.2434 86.1238 21.3385 86.0354 21.4183C85.9517 21.495 85.8533 21.5544 85.7411 21.5968C85.6273 21.6396 85.5051 21.6613 85.3819 21.6606C85.1366 21.6612 84.9009 21.5741 84.7259 21.4183C84.6374 21.3385 84.5674 21.2435 84.52 21.1388C84.4726 21.0341 84.4487 20.9219 84.4498 20.8087C84.4498 20.6891 84.4744 20.578 84.5237 20.4749ZM38.413 16.0937H32.8926C32.6992 16.0937 32.5255 16.2267 32.5151 16.4043C32.5122 16.4485 32.5192 16.4929 32.5358 16.5346C32.5524 16.5763 32.5782 16.6145 32.6117 16.6469C32.6451 16.6793 32.6855 16.7051 32.7303 16.7229C32.7751 16.7406 32.8235 16.7499 32.8724 16.7501H33.7479C33.7737 16.7502 33.7993 16.755 33.8231 16.764C33.8469 16.7731 33.8686 16.7864 33.8868 16.803C33.9049 16.8197 33.9193 16.8394 33.9291 16.8611C33.9389 16.8828 33.9438 16.9061 33.9437 16.9295V27.0459C33.9439 27.0694 33.939 27.0927 33.9293 27.1144C33.9195 27.1362 33.9051 27.156 33.8869 27.1727C33.8687 27.1894 33.8471 27.2027 33.8232 27.2118C33.7994 27.2209 33.7738 27.2256 33.7479 27.2257H32.8818C32.7979 27.2249 32.7164 27.2504 32.6508 27.2978C32.5853 27.3452 32.5398 27.4116 32.522 27.4859C32.5107 27.5334 32.5112 27.5827 32.5235 27.63C32.5357 27.6774 32.5595 27.7217 32.593 27.7597C32.6265 27.7976 32.6689 27.8284 32.7172 27.8497C32.7654 27.8709 32.8183 27.8822 32.8719 27.8826H36.576C36.6597 27.8833 36.7412 27.8578 36.8066 27.8104C36.872 27.763 36.9175 27.6967 36.9352 27.6224C36.9465 27.5749 36.9461 27.5257 36.9338 27.4784C36.9216 27.4311 36.8979 27.3868 36.8644 27.3489C36.831 27.3109 36.7886 27.2801 36.7404 27.2588C36.6922 27.2375 36.6394 27.2262 36.5858 27.2257H35.7099C35.6839 27.2257 35.6583 27.221 35.6344 27.2119C35.6104 27.2028 35.5887 27.1895 35.5705 27.1728C35.5522 27.1561 35.5378 27.1363 35.528 27.1145C35.5183 27.0927 35.5133 27.0694 35.5135 27.0459V16.9299C35.5135 16.8309 35.6016 16.7501 35.7099 16.7501H38.0154C39.4951 16.7501 40.2441 17.8822 40.2441 19.3664C40.2441 20.939 39.6925 22.114 38.0154 22.114C37.9435 22.114 36.7271 22.1176 36.6552 22.1193C36.608 22.1196 36.5613 22.1282 36.5178 22.1449C36.4743 22.1615 36.4348 22.1857 36.4016 22.2162C36.3684 22.2466 36.3422 22.2827 36.3244 22.3224C36.3066 22.3621 36.2976 22.4045 36.2979 22.4473C36.2979 22.6276 36.4564 22.7735 36.6523 22.7753L38.412 22.7758C40.2426 22.7758 41.905 21.6316 41.905 19.4267C41.905 17.2218 40.2436 16.0937 38.413 16.0937ZM53.8469 26.4216C53.8469 26.4216 52.8681 26.8643 52.5083 26.9593C51.6235 27.1932 51.125 26.6791 51.125 25.7817L51.1211 20.5593C51.1215 20.5123 51.1117 20.4657 51.0922 20.4222C51.0727 20.3786 51.0439 20.339 51.0076 20.3056C50.9712 20.2721 50.9279 20.2455 50.8802 20.2272C50.8324 20.209 50.7812 20.1994 50.7294 20.1991H48.5002C48.3063 20.1991 48.133 20.3321 48.1227 20.5097C48.1198 20.554 48.1269 20.5983 48.1436 20.6399C48.1602 20.6816 48.186 20.7198 48.2194 20.7521C48.2529 20.7844 48.2932 20.8102 48.338 20.8279C48.3828 20.8456 48.4311 20.8549 48.48 20.8551H49.3559C49.4642 20.8551 49.5518 20.9354 49.5518 21.035V25.4024C49.5518 26.9035 49.5582 27.6515 50.721 27.9732L50.722 27.9696L50.7245 27.9705C51.4794 28.2392 52.4153 27.9986 53.0246 27.6671C53.6343 27.3355 54.215 26.9812 54.215 26.9812C54.4108 26.858 54.4477 26.6586 54.3203 26.5006C54.1992 26.3502 54.0299 26.3288 53.8469 26.4216ZM57.2714 27.2257H56.9457C56.9198 27.2256 56.8941 27.2209 56.8703 27.2118C56.8464 27.2027 56.8248 27.1894 56.8066 27.1727C56.7884 27.156 56.774 27.1362 56.7643 27.1144C56.7545 27.0927 56.7496 27.0694 56.7498 27.0459V20.5588C56.7504 20.464 56.7096 20.3728 56.6361 20.3053C56.5627 20.2377 56.4627 20.1994 56.3581 20.1987H54.1279C53.9345 20.1987 53.7607 20.3321 53.7509 20.5097C53.748 20.554 53.7551 20.5983 53.7718 20.6399C53.7884 20.6816 53.8142 20.7198 53.8476 20.7521C53.8811 20.7844 53.9214 20.8102 53.9662 20.8279C54.011 20.8456 54.0593 20.8549 54.1082 20.8551H54.9841C55.01 20.8552 55.0356 20.86 55.0595 20.8691C55.0834 20.8782 55.105 20.8915 55.1232 20.9082C55.1414 20.9249 55.1558 20.9447 55.1655 20.9664C55.1753 20.9882 55.1802 21.0115 55.18 21.035V27.5229C55.18 27.7215 55.3552 27.8826 55.5717 27.8826H57.2916C57.3404 27.8823 57.3887 27.8725 57.4334 27.8547C57.4782 27.8369 57.5185 27.811 57.5518 27.7787C57.5852 27.7463 57.611 27.7082 57.6276 27.6665C57.6442 27.6248 57.6512 27.5805 57.6484 27.5363C57.6385 27.3592 57.4648 27.2257 57.2714 27.2257ZM47.0627 27.2257H46.1883C46.1624 27.2256 46.1368 27.2208 46.113 27.2116C46.0892 27.2025 46.0676 27.1892 46.0495 27.1725C46.0314 27.1558 46.017 27.136 46.0073 27.1143C45.9976 27.0926 45.9927 27.0693 45.9929 27.0459L45.9909 16.4534C45.9912 16.4064 45.9814 16.3599 45.9619 16.3164C45.9423 16.2729 45.9136 16.2333 45.8772 16.1999C45.8408 16.1665 45.7976 16.14 45.7499 16.1217C45.7022 16.1035 45.651 16.094 45.5992 16.0937H43.367C43.1918 16.0937 43.0294 16.2021 42.9979 16.3605C42.9879 16.4077 42.9894 16.4563 43.0024 16.5029C43.0154 16.5495 43.0396 16.5929 43.0732 16.6301C43.1067 16.6673 43.1489 16.6973 43.1967 16.7181C43.2445 16.7388 43.2968 16.7497 43.3498 16.7501H44.2248C44.333 16.7501 44.4211 16.8304 44.4211 16.9295V27.0459C44.4213 27.0694 44.4164 27.0928 44.4066 27.1146C44.3968 27.1364 44.3824 27.1562 44.3642 27.173C44.3459 27.1897 44.3242 27.2031 44.3003 27.2122C44.2764 27.2213 44.2507 27.2261 44.2248 27.2262H43.3562C43.2798 27.2251 43.205 27.2461 43.1426 27.2861C43.0802 27.3261 43.0335 27.3831 43.0093 27.4489C42.9909 27.498 42.9857 27.5504 42.9939 27.6018C43.0022 27.6531 43.0238 27.702 43.057 27.7443C43.0901 27.7866 43.1338 27.8212 43.1846 27.8453C43.2353 27.8693 43.2916 27.8821 43.3488 27.8826H47.0455C47.2212 27.8826 47.3836 27.7742 47.4146 27.6158C47.4247 27.5686 47.4232 27.52 47.4103 27.4733C47.3974 27.4267 47.3733 27.3833 47.3397 27.346C47.3062 27.3088 47.264 27.2787 47.2163 27.258C47.1685 27.2372 47.1157 27.2262 47.0627 27.2257ZM80.2719 22.7758H77.5082C77.3301 22.7758 77.1647 22.8873 77.1362 23.0484C77.1271 23.0953 77.1294 23.1434 77.1429 23.1893C77.1564 23.2353 77.1808 23.278 77.2144 23.3146C77.248 23.3511 77.2899 23.3806 77.3374 23.4009C77.3848 23.4212 77.4366 23.4319 77.489 23.4322L81.6503 23.4318C81.702 23.4315 81.7532 23.422 81.8009 23.4039C81.8486 23.3857 81.8918 23.3591 81.9282 23.3258C81.9646 23.2924 81.9934 23.2529 82.0129 23.2094C82.0324 23.166 82.0423 23.1194 82.042 23.0725V22.7401C82.039 21.006 80.5494 20.0113 78.6297 20.0113C76.7105 20.0113 74.7864 21.5004 74.7864 23.9672C74.7864 24.0877 74.7898 24.2573 74.7977 24.3729C74.9867 27.1548 78.0033 28.6943 80.7423 27.4908C81.1094 27.3293 81.4564 27.0878 81.7428 26.8826C81.8756 26.7871 82.0016 26.613 81.8633 26.4198C81.7255 26.2261 81.5218 26.2516 81.3417 26.3404C80.7059 26.6541 80.0091 26.8888 79.3713 26.8888C77.398 26.8888 76.3562 25.7313 76.3562 23.7638L76.3587 23.4318C76.3606 23.118 76.3921 22.8039 76.4802 22.5013C76.7986 21.4013 77.6288 20.6673 78.6317 20.6673C79.7576 20.6673 80.418 21.3594 80.4682 22.5919C80.4689 22.6157 80.4644 22.6394 80.4549 22.6616C80.4453 22.6838 80.431 22.7041 80.4127 22.7212C80.3944 22.7383 80.3725 22.7518 80.3483 22.7612C80.3241 22.7705 80.2981 22.7757 80.2719 22.7758ZM62.8981 27.7697C62.9548 27.716 62.9886 27.6458 62.9936 27.5716C62.9965 27.5273 62.9894 27.483 62.9728 27.4414C62.9561 27.3997 62.9303 27.3615 62.8969 27.3292C62.8634 27.2969 62.8231 27.2711 62.7783 27.2534C62.7335 27.2357 62.6852 27.2264 62.6363 27.2262H61.7604C61.7345 27.2261 61.7089 27.2213 61.685 27.2122C61.6612 27.2031 61.6395 27.1898 61.6213 27.1731C61.6031 27.1564 61.5887 27.1366 61.579 27.1149C61.5693 27.0931 61.5643 27.0698 61.5645 27.0463V20.5579C61.5649 20.511 61.555 20.4644 61.5355 20.421C61.516 20.3775 61.4872 20.3379 61.4508 20.3045C61.4145 20.2711 61.3712 20.2445 61.3235 20.2263C61.2758 20.2081 61.2246 20.1985 61.1728 20.1983H59.4529C59.4072 20.1987 59.3643 20.2072 59.324 20.2219L59.3161 20.2241C59.2784 20.2388 59.2437 20.2594 59.2138 20.2848L59.2039 20.2924C59.1758 20.3181 59.1525 20.3478 59.135 20.3803L59.1276 20.3937C59.1116 20.4277 59.1018 20.4639 59.0986 20.5008C59.0986 20.503 59.0966 20.5057 59.0966 20.5084L59.0976 20.5187C59.0976 20.5276 59.0957 20.5356 59.0961 20.5445C59.106 20.7141 59.2654 20.8417 59.4485 20.8524L59.4534 20.8547H59.793C59.8189 20.8548 59.8445 20.8595 59.8683 20.8687C59.8922 20.8778 59.9138 20.891 59.932 20.9077C59.9502 20.9245 59.9646 20.9443 59.9744 20.966C59.9841 20.9878 59.989 21.011 59.9888 21.0345V27.0455C59.989 27.0689 59.9841 27.0922 59.9744 27.114C59.9646 27.1357 59.9502 27.1555 59.932 27.1722C59.9138 27.1889 59.8922 27.2022 59.8683 27.2113C59.8445 27.2204 59.8189 27.2252 59.793 27.2253H59.4583L59.4519 27.2248C59.4047 27.2251 59.358 27.2339 59.3145 27.2505C59.2709 27.2672 59.2315 27.2915 59.1983 27.322C59.1651 27.3525 59.1389 27.3886 59.1211 27.4283C59.1033 27.468 59.0943 27.5104 59.0947 27.5533C59.0943 27.5961 59.1033 27.6386 59.1211 27.6782C59.1389 27.7179 59.1651 27.754 59.1983 27.7844C59.2315 27.8149 59.271 27.8391 59.3145 27.8558C59.358 27.8724 59.4047 27.881 59.4519 27.8813L59.4534 27.8822L62.6304 27.8817C62.7215 27.8817 62.8027 27.8496 62.8662 27.7983L62.8794 27.7876C62.8859 27.7818 62.8922 27.7759 62.8981 27.7697ZM67.7257 27.2253L67.7188 27.2257H67.3861C67.3339 27.2254 67.2839 27.2063 67.2472 27.1725C67.2105 27.1388 67.19 27.0933 67.1903 27.0459V22.6995L67.1893 22.695C67.1893 21.1938 67.1229 20.516 66.0205 20.1237C65.2657 19.8551 64.3297 20.0956 63.7204 20.4272C63.1107 20.7592 62.5296 21.1131 62.5296 21.1131C62.3342 21.2362 62.2973 21.4361 62.4242 21.5941C62.5458 21.7445 62.7072 21.7699 62.8898 21.6771C62.8898 21.6771 63.8607 21.2228 64.2367 21.1349C65.1288 20.927 65.62 21.4156 65.62 22.313V27.1057C65.6202 27.1214 65.6169 27.1369 65.6105 27.1515C65.604 27.166 65.5945 27.1793 65.5824 27.1905C65.5702 27.2017 65.5558 27.2106 65.5399 27.2167C65.524 27.2229 65.5069 27.2261 65.4896 27.2262L65.0831 27.2253C65.0358 27.2255 64.989 27.2342 64.9455 27.2508C64.9019 27.2675 64.8623 27.2917 64.8291 27.3223C64.7959 27.3528 64.7696 27.3889 64.7518 27.4286C64.734 27.4683 64.725 27.5109 64.7253 27.5537C64.7253 27.7349 64.8872 27.8822 65.0846 27.8826H67.7262C67.8 27.8826 67.8679 27.8612 67.925 27.8259L67.9304 27.8215C67.9468 27.8112 67.9623 27.7997 67.9767 27.7871L67.986 27.7773C67.9982 27.7654 68.0094 27.7528 68.0195 27.7394C68.0234 27.7349 68.0264 27.7295 68.0293 27.7246C68.0381 27.7121 68.0458 27.699 68.0524 27.6854L68.0603 27.6653C68.0652 27.6523 68.0702 27.6394 68.0741 27.6256L68.0775 27.6015C68.0795 27.5917 68.0825 27.5823 68.0825 27.572L68.082 27.5649C68.082 27.5613 68.0834 27.5577 68.0834 27.5537C68.0838 27.5109 68.0748 27.4683 68.057 27.4286C68.0391 27.3889 68.0129 27.3528 67.9796 27.3223C67.9464 27.2917 67.9069 27.2675 67.8633 27.2508C67.8197 27.2342 67.773 27.2255 67.7257 27.2253ZM73.349 27.2253L73.3426 27.2257H73.0109C72.9849 27.2257 72.9593 27.221 72.9354 27.2119C72.9114 27.2028 72.8897 27.1895 72.8715 27.1728C72.8532 27.1561 72.8388 27.1363 72.829 27.1145C72.8193 27.0927 72.8143 27.0694 72.8145 27.0459L72.814 22.695C72.814 21.1938 72.7476 20.516 71.6448 20.1237C70.8899 19.8551 69.9539 20.0956 69.3447 20.4272C68.9425 20.6477 68.5457 20.8764 68.1548 21.1131C67.9585 21.2362 67.9215 21.4361 68.049 21.5941C68.1701 21.7445 68.3393 21.7655 68.5224 21.6726C68.5224 21.6726 69.5017 21.2304 69.8609 21.1349C70.7462 20.9011 71.2442 21.4156 71.2442 22.313V27.0459C71.2444 27.0694 71.2395 27.0927 71.2298 27.1144C71.22 27.1362 71.2056 27.156 71.1874 27.1727C71.1693 27.1894 71.1476 27.2027 71.1237 27.2118C71.0999 27.2209 71.0742 27.2256 71.0484 27.2257H70.7152L70.7083 27.2253C70.641 27.2256 70.5752 27.2433 70.5186 27.2761C70.4619 27.309 70.4166 27.3557 70.388 27.4109L70.3845 27.4163C70.3771 27.4313 70.371 27.4468 70.3663 27.4627L70.3614 27.477C70.358 27.4911 70.3557 27.5054 70.3545 27.5198C70.354 27.5256 70.352 27.531 70.3515 27.5363V27.543L70.3511 27.5537C70.3511 27.56 70.3525 27.5662 70.353 27.5725C70.3574 27.6552 70.3966 27.7333 70.4625 27.7908C70.5283 27.8482 70.616 27.8806 70.7073 27.8813L70.7088 27.8826H73.3509C73.4427 27.8819 73.5308 27.849 73.597 27.7913C73.6633 27.7336 73.7027 27.6552 73.7072 27.572C73.7082 27.5517 73.7065 27.5313 73.7023 27.5113C73.6919 27.4328 73.6502 27.3605 73.5852 27.3078C73.5201 27.2552 73.4361 27.2258 73.349 27.2253ZM19.2515 23.795L19.2505 23.7937C19.3551 23.9618 19.4098 24.1516 19.4094 24.3446C19.409 24.5376 19.3534 24.7273 19.248 24.895L19.249 24.8941L16.2093 29.7283C15.957 30.132 15.5913 30.4679 15.1495 30.702C14.7076 30.936 14.2053 31.0598 13.6936 31.0608L6.85092 31.059C6.60192 31.059 6.37112 31.2152 6.33126 31.4405C6.31868 31.506 6.32197 31.5731 6.3409 31.6373C6.35982 31.7014 6.39394 31.7611 6.44086 31.8121C6.48779 31.8631 6.5464 31.9042 6.61263 31.9326C6.67885 31.961 6.7511 31.976 6.82435 31.9765L13.6936 31.9787C14.3813 31.9773 15.0564 31.8108 15.6502 31.4962C16.244 31.1816 16.7354 30.7301 17.0744 30.1875L20.1146 25.3533L20.1156 25.3524C20.3075 25.0453 20.4086 24.6985 20.4091 24.3455C20.4095 23.9925 20.3092 23.6455 20.1181 23.338L20.1171 23.3367L17.5891 19.3142C17.5579 19.2642 17.5126 19.2226 17.4579 19.1936C17.4032 19.1646 17.341 19.1493 17.2776 19.1491H16.4848C16.469 19.1493 16.4535 19.1533 16.4398 19.1606C16.4262 19.1679 16.4148 19.1783 16.407 19.1908C16.3991 19.2033 16.395 19.2174 16.395 19.2318C16.3951 19.2461 16.3992 19.2603 16.4071 19.2727L19.2515 23.795Z" fill="white"/>
<path fill-rule="evenodd" clip-rule="evenodd" d="M14.2735 28.1196L14.2745 28.1187C14.1699 28.2853 14.0185 28.4238 13.8358 28.5202C13.6531 28.6166 13.4455 28.6675 13.2342 28.6676H13.2351H7.15519C6.64356 28.6664 6.1414 28.5424 5.69973 28.3082C5.25806 28.074 4.89262 27.738 4.64054 27.3342L1.22238 21.8945C1.09148 21.6865 0.809507 21.583 0.571329 21.6821C0.296735 21.7954 0.195361 22.0971 0.342008 22.3305L3.77493 27.793C4.11373 28.3358 4.60502 28.7877 5.19883 29.1025C5.79265 29.4174 6.46781 29.584 7.15568 29.5855H13.2366C13.6229 29.5848 14.0021 29.4912 14.3355 29.3142C14.6692 29.1372 14.946 28.8841 15.1386 28.5802L15.1391 28.5788L17.6695 24.5581C17.7011 24.5078 17.7177 24.4508 17.7177 24.3928C17.7177 24.3348 17.7011 24.2779 17.6695 24.2275L17.2738 23.5974C17.266 23.5848 17.2547 23.5744 17.241 23.5671C17.2273 23.5599 17.2117 23.5561 17.1958 23.5561C17.18 23.5561 17.1644 23.5599 17.1507 23.5671C17.137 23.5744 17.1256 23.5848 17.1178 23.5974L14.2735 28.1196Z" fill="white"/>
<path fill-rule="evenodd" clip-rule="evenodd" d="M7.70467 26.3246H7.70614C7.49608 26.3239 7.28996 26.2728 7.10873 26.1765C6.92543 26.0788 6.77358 25.9392 6.66829 25.7717V25.773L3.62955 20.9393C3.37462 20.5331 3.24057 20.0737 3.24057 19.6064C3.24057 19.139 3.37462 18.6796 3.62955 18.2734L7.05312 12.8337C7.17762 12.636 7.14563 12.3741 6.95273 12.2299C6.89684 12.1874 6.83129 12.1565 6.76075 12.1396C6.69022 12.1226 6.61643 12.12 6.54463 12.1318C6.47284 12.1437 6.40481 12.1697 6.34538 12.2081C6.28595 12.2465 6.23658 12.2963 6.20079 12.354L2.76345 17.8142C2.42081 18.3603 2.24065 18.9778 2.24065 19.6061C2.24065 20.2344 2.42081 20.8519 2.76345 21.398L5.80317 26.2318L5.80367 26.2331C5.99635 26.5388 6.27412 26.7933 6.60924 26.9712C6.94099 27.1474 7.31824 27.2409 7.7027 27.2421L12.763 27.2434C12.891 27.2434 13.0105 27.181 13.0745 27.0783L13.4706 26.4482C13.4785 26.4357 13.4827 26.4216 13.4827 26.4072C13.4827 26.3929 13.4786 26.3787 13.4707 26.3662C13.4629 26.3538 13.4516 26.3434 13.4379 26.336C13.4243 26.3287 13.4087 26.3248 13.3929 26.3246H7.70467Z" fill="white"/>
<path fill-rule="evenodd" clip-rule="evenodd" d="M6.11372 20.2045L6.11421 20.2058C6.00951 20.0378 5.95469 19.8479 5.95512 19.6549C5.95555 19.4618 6.01122 19.2722 6.11667 19.1045L6.11618 19.1054L9.1559 14.2717C9.40803 13.868 9.77351 13.5321 10.2152 13.2981C10.6569 13.064 11.159 12.9402 11.6706 12.9392L18.5142 12.941C18.7628 12.941 18.9936 12.7848 19.0334 12.5594C19.0461 12.494 19.0429 12.4268 19.024 12.3626C19.0051 12.2984 18.971 12.2387 18.924 12.1877C18.8771 12.1367 18.8184 12.0955 18.7522 12.0672C18.6859 12.0388 18.6136 12.0239 18.5403 12.0235L11.6711 12.0212C10.9833 12.0227 10.3083 12.1891 9.7145 12.5037C9.12071 12.8184 8.62933 13.2699 8.29029 13.8125L5.25007 18.6462L5.24958 18.6476C5.05729 18.9545 4.95595 19.3014 4.95543 19.6544C4.95492 20.0074 5.05524 20.3545 5.24663 20.6619L5.24761 20.6632L7.77555 24.6857C7.80684 24.7358 7.8522 24.7774 7.907 24.8064C7.9618 24.8354 8.0241 24.8507 8.08755 24.8508H8.87983C8.89573 24.8507 8.91131 24.8468 8.92503 24.8395C8.93876 24.8323 8.95014 24.8219 8.95805 24.8094C8.96597 24.7969 8.97013 24.7827 8.97014 24.7683C8.97014 24.7539 8.96598 24.7397 8.95808 24.7272L6.11372 20.2045Z" fill="white"/>
<path fill-rule="evenodd" clip-rule="evenodd" d="M11.0915 15.8794L11.091 15.8811C11.1956 15.7146 11.347 15.5761 11.5297 15.4797C11.7124 15.3833 11.9199 15.3325 12.1313 15.3323L12.1298 15.3318H18.2093C18.7209 15.3329 19.2231 15.4569 19.6648 15.6911C20.1065 15.9253 20.4719 16.2614 20.7239 16.6652L24.1431 22.1049C24.2735 22.3129 24.5555 22.416 24.7941 22.3174C25.0677 22.204 25.1696 21.9023 25.023 21.669L21.59 16.2069C21.2513 15.664 20.76 15.212 20.1662 14.8971C19.5724 14.5822 18.8972 14.4154 18.2093 14.4139H12.1288C11.7425 14.4147 11.3634 14.5083 11.03 14.6852C10.6964 14.8622 10.4197 15.1153 10.2274 15.4193L10.2264 15.4206L7.69597 19.4413C7.66438 19.4916 7.64778 19.5485 7.64778 19.6064C7.64778 19.6643 7.66438 19.7212 7.69597 19.7715L8.09211 20.4021C8.12656 20.4574 8.21317 20.4574 8.24761 20.4021L11.0915 15.8794Z" fill="white"/>
<path fill-rule="evenodd" clip-rule="evenodd" d="M17.6606 17.6751H17.6586C17.8722 17.6751 18.0769 17.7282 18.2565 17.8228C18.4356 17.9183 18.5882 18.0562 18.6969 18.2271L18.696 18.2262L21.7362 23.06C21.991 23.4662 22.1249 23.9256 22.1248 24.393C22.1248 24.8603 21.9907 25.3197 21.7357 25.7259L18.3121 31.1656C18.1876 31.3633 18.2196 31.6248 18.4125 31.7694C18.6586 31.9537 19.0129 31.8872 19.1649 31.6453L22.6013 26.185C22.9442 25.639 23.1245 25.0215 23.1246 24.3932C23.1247 23.7649 22.9445 23.1473 22.6018 22.6012L19.5621 17.7675L19.5616 17.7666C19.3689 17.4609 19.0911 17.2064 18.756 17.0285C18.4241 16.8521 18.0467 16.7585 17.6621 16.7572L12.6017 16.7559C12.5384 16.756 12.4762 16.7714 12.4215 16.8004C12.3668 16.8294 12.3215 16.871 12.2902 16.921L11.8941 17.5511C11.8862 17.5635 11.8821 17.5777 11.882 17.592C11.882 17.6064 11.8861 17.6205 11.894 17.633C11.9019 17.6455 11.9132 17.6559 11.9268 17.6632C11.9405 17.6705 11.956 17.6745 11.9719 17.6747L17.6606 17.6751Z" fill="white"/>
</svg>
