<svg width="30" height="44" viewBox="0 0 30 44" fill="none" xmlns="http://www.w3.org/2000/svg">
<path d="M13.4184 23.7249C13.5768 23.2548 14.0613 22.8325 14.8045 22.8325C15.5477 22.8325 16.0322 23.2548 16.1906 23.7249C16.2876 23.9688 16.3358 24.3255 16.3358 24.9745V29.177C16.3358 29.8585 16.3034 30.1993 16.1906 30.426C16.0163 30.9292 15.5609 31.3349 14.8045 31.3349C14.0481 31.3349 13.5953 30.9292 13.4184 30.426C13.3214 30.1993 13.2725 29.8585 13.2725 29.177V24.9745C13.2725 24.3255 13.3049 23.9688 13.4184 23.7249Z" fill="white"/>
<path fill-rule="evenodd" clip-rule="evenodd" d="M0.658203 36.2595V7.7406H29.0518V36.2595H0.658203ZM10.1977 30.686C10.2816 30.3937 10.3298 29.9396 10.3298 29.4039L10.3258 28.6408C10.3258 28.0409 10.2776 27.4727 10.1001 26.9695C9.71196 25.8664 8.85589 25.2982 7.54703 25.2982C6.88501 25.2982 6.28767 25.4447 5.86723 25.6715L6.25533 22.9945H9.93835V21.3557H4.93063L4.13859 26.7919L5.57615 27.2626C6.07298 26.9956 6.62782 26.8562 7.19127 26.8568C7.98266 26.8568 8.25789 27.1485 8.45128 27.6358C8.54831 27.9116 8.59649 28.1065 8.59649 28.8039V29.4039C8.59649 30.0045 8.53181 30.2637 8.48363 30.4427C8.30608 31.0109 7.85395 31.3351 7.15893 31.3351C6.22431 31.3351 5.70684 30.7344 5.70684 29.7287H3.96236C3.96236 31.4484 4.98014 32.893 7.14507 32.893C8.87305 32.893 9.87499 31.9682 10.1977 30.686ZM17.7592 31.0759C18.0001 30.5077 18.0661 29.8587 18.0661 29.0147V25.153C18.0661 24.3091 18.0179 23.6442 17.775 23.0926C17.3248 21.9729 16.2259 21.2754 14.8048 21.2754C13.3838 21.2754 12.3013 21.9729 11.8485 23.0926C11.6076 23.6442 11.5416 24.3091 11.5416 25.153V29.0147C11.5416 29.8587 11.5904 30.5077 11.8327 31.0759C12.2993 32.244 13.4458 32.893 14.8028 32.893C16.1599 32.893 17.2905 32.244 17.7592 31.0759ZM24.6803 16.9815V14.8753L26.1753 10.9639H24.774L24.2817 12.4476L24.0526 13.4964L23.8315 12.4476L23.3391 10.9639H21.8534L23.3563 14.8753V16.9815H24.6803Z" fill="white"/>
</svg>
