<svg width="77" height="44" viewBox="0 0 77 44" fill="none" xmlns="http://www.w3.org/2000/svg">
<path d="M54.6396 21.7742C54.6396 20.6205 53.9272 19.9393 53.2149 19.9393C52.067 19.9393 51.2499 20.2888 51.2499 23.2053C51.2499 26.1224 51.9961 26.5224 52.8504 26.5224C53.4407 26.5224 54.6396 25.7214 54.6396 24.1677V21.7742ZM42.2302 21.5624V21.4801C42.2222 20.7103 42.1039 20.0114 41.5351 20.0114C40.391 20.0114 40.2781 22.5167 41.291 23.1338C41.5529 23.2909 41.8422 23.3967 42.1437 23.4457C42.2007 22.9113 42.2302 22.2876 42.2302 21.5624ZM32.366 21.7742C32.366 20.6205 31.6547 19.9393 30.9424 19.9393C29.7946 19.9393 28.9768 20.2888 28.9768 23.2053C28.9768 26.1224 29.7263 26.5224 30.5757 26.5224C31.1671 26.5224 32.366 25.7214 32.366 24.1677V21.7742ZM15.9885 24.1671C15.4315 24.8483 14.7192 25.9816 14.7192 27.2923C14.7192 28.3567 14.9638 28.7062 15.3434 28.7062C15.8154 28.7062 15.9724 27.9734 15.9885 25.18V24.1671ZM24.142 19.1044C24.7866 18.6324 25.6576 17.619 25.6576 15.4379C25.6576 14.2503 25.3081 12.8875 24.8216 12.8875C24.3001 12.8875 24.142 14.2132 24.142 19.1044ZM65.0919 21.4592C65.0919 22.0721 64.6404 22.4215 64.2576 22.4215C63.8398 22.4215 63.7361 22.2124 63.7361 22.2124C63.7361 22.2124 63.8398 21.9495 63.8398 21.5662C63.8398 20.7786 63.3366 20.1689 62.7103 20.1689C61.4915 20.1689 60.5899 23.086 60.5899 24.1849V26.9606C60.5899 26.9606 60.4136 27.2036 59.926 27.2036C59.4744 27.2036 59.0534 26.9095 59.026 26.2138C58.612 26.8407 57.9905 27.203 57.182 27.203C55.9831 27.203 55.217 26.6455 54.8498 25.6493C54.4315 26.5595 53.6498 27.203 52.6428 27.203C51.3273 27.203 50.3795 26.6563 49.9166 25.3859C49.5134 26.4504 48.6655 27.203 47.5817 27.203C45.6688 27.203 44.799 25.9816 44.799 23.9929V23.0414C44.4425 23.5542 43.9205 23.9376 43.2017 24.0886C42.956 24.9343 42.6001 25.6461 42.1641 26.1697C42.0426 26.3127 41.8324 26.5428 41.5862 26.7138C41.1378 27.0294 40.6453 27.203 40.1066 27.203C38.7981 27.203 37.7201 26.5256 37.1626 25.2692C36.8454 26.4606 36.0632 27.2036 34.9046 27.2036C33.7068 27.2036 32.9412 26.6455 32.5762 25.6488C32.1595 26.5595 31.3773 27.2036 30.3677 27.2036C29.0731 27.2036 28.1398 26.6756 27.6661 25.4509C27.2565 26.4815 26.421 27.2036 25.3608 27.2036C23.4485 27.2036 22.5614 25.9816 22.5614 23.9929V16.554C22.5614 16.304 22.5647 16.0685 22.5738 15.839H17.554V20.4463H20.2658C20.683 20.4463 20.8927 20.6931 20.8927 20.9699C20.8927 21.2506 20.7357 21.357 20.7357 21.357H17.5546V25.0397C17.5546 27.8847 17.103 29.3873 15.3643 29.3873C14.4756 29.3873 13.973 28.6175 13.973 27.2369C13.973 25.5972 15.224 24.0951 15.9885 23.3629V15.8379H14.5815C14.1649 15.8379 13.9531 15.6121 13.9531 15.3325C13.9531 15.0508 14.1101 14.9481 14.1101 14.9481L22.6313 14.9315C22.8141 13.1412 23.3786 12.2069 24.6818 12.2069C25.8307 12.2069 26.4022 13.8294 26.4022 15.4175C26.4022 18.0916 24.9968 19.3302 24.142 19.8367V24.5166C24.142 25.8794 24.7173 26.5219 25.5699 26.5219C26.1828 26.5219 27.1634 25.9364 27.3452 23.8446C27.3325 23.6315 27.3264 23.4182 27.3269 23.2048C27.3269 20.3608 28.8564 19.2614 30.7859 19.2614C31.6714 19.2614 32.1945 19.4711 32.4907 19.7652C32.6445 19.4157 32.9585 19.2614 33.2902 19.2614C33.7751 19.2614 33.9498 19.5049 33.9498 19.5049V24.516C33.9498 25.8789 34.4192 26.5213 35.1143 26.5213C36.0702 26.5213 36.7492 25.6316 36.7492 23.1188C36.7492 23.1188 36.7514 23.1161 36.7546 23.1053V20.3259C36.7546 19.5727 37.189 19.2582 37.6572 19.2582C38.1459 19.2582 38.3164 19.5049 38.3164 19.5049V23.2048C38.3164 25.7891 39.2249 26.5939 40.3163 26.5939C40.5625 26.5939 40.8201 26.5391 41.0829 26.3299C41.3141 26.1418 41.484 25.8617 41.5722 25.7031C41.762 25.337 41.9308 24.8311 42.0485 24.1386C41.5297 24.0876 41.0829 23.9268 40.7082 23.6731C39.9034 23.1494 39.3792 21.7086 39.9238 20.356C40.2383 19.5313 40.8201 19.0657 41.7969 19.0657C42.8937 19.0657 43.6049 19.8867 43.6049 21.1086C43.6072 21.8521 43.5365 22.594 43.3936 23.3236C44.0979 23.0161 44.6544 22.2323 44.799 20.8318V20.3248C44.799 19.5722 45.2339 19.2603 45.7065 19.2603C46.1903 19.2603 46.364 19.5033 46.364 19.5033V24.5144C46.364 25.8773 46.9371 26.5197 47.7887 26.5197C48.4677 26.5197 49.5967 25.8047 49.5967 23.1172C49.5967 23.1172 49.5999 23.1172 49.5999 23.1145C49.6332 20.3345 51.1499 19.2598 53.0573 19.2598C53.9444 19.2598 54.4643 19.4684 54.7605 19.763C54.9202 19.4136 55.2304 19.2593 55.56 19.2593C56.0519 19.2593 56.2234 19.5023 56.2234 19.5023V24.5139C56.2234 25.8767 56.6949 26.5192 57.39 26.5192C58.3459 26.5192 59.0255 25.6294 59.0255 23.1166V19.5023C59.0255 19.5023 59.1975 19.2593 59.6846 19.2593C60.1544 19.2593 60.5888 19.57 60.5888 20.3237V21.6489C61.041 20.5157 61.7904 19.4851 62.9888 19.4851C64.5694 19.4883 65.0919 20.5522 65.0919 21.4592ZM44.5716 16.8142C44.5716 16.239 45.0232 15.7664 45.5973 15.7664C46.1726 15.7664 46.6419 16.2395 46.6419 16.8142C46.6419 17.3932 46.1721 17.8448 45.5973 17.8448C45.4619 17.846 45.3276 17.8201 45.2023 17.7686C45.077 17.7172 44.9632 17.6412 44.8677 17.5452C44.7722 17.4492 44.6967 17.3351 44.6459 17.2096C44.595 17.0841 44.5698 16.9496 44.5716 16.8142Z" fill="white"/>
<path d="M76.1338 8.04973L38.5806 1.67096L38.5311 1.66235L38.4816 1.67042L0.734319 8.0078L0.484863 8.04919V35.2777L38.4811 41.6543L38.5311 41.6624L38.5806 41.6538L76.1338 35.2771V8.04973ZM75.537 35.0234L75.7854 34.7277L38.4806 41.0624H38.58L0.83324 34.7271L1.0827 35.0228V8.30348L0.83324 8.59917L38.58 2.26233H38.4811L75.7854 8.59917L75.5365 8.30348L75.537 35.0234ZM75.3489 34.3578L38.48 40.6183H38.5789L1.26979 34.3562L1.51924 34.6519V8.67444L1.26979 8.97012L38.5795 2.70694H38.4806L75.3494 8.97012L75.1005 8.6739V34.654L75.3489 34.3578ZM75.4483 34.9492L75.6972 34.9072V8.41961L75.4483 8.37767L38.5795 2.11502L38.53 2.10642L38.4806 2.11502L1.17033 8.37821L0.920872 8.41961V34.9067L1.17033 34.9481L38.4806 41.2097L38.53 41.2183L38.5795 41.2097L75.4483 34.9492Z" fill="white"/>
<path d="M71.9253 32.5928C71.8443 32.6345 71.7548 32.6573 71.6637 32.6593C71.5725 32.6613 71.4821 32.6426 71.3993 32.6045C71.3164 32.5665 71.2433 32.51 71.1855 32.4395C71.1277 32.3691 71.0867 32.2863 71.0656 32.1976C71.0444 32.109 71.0438 32.0166 71.0636 31.9276C71.0834 31.8387 71.1232 31.7554 71.18 31.684C71.2368 31.6127 71.3091 31.5552 71.3913 31.516C71.4736 31.4767 71.5638 31.4567 71.6549 31.4574C71.735 31.2203 71.9587 31.0488 72.2216 31.0488C72.5517 31.0488 72.8194 31.3176 72.8194 31.6493V32.4681L72.013 32.5863C71.984 32.5908 71.9547 32.5929 71.9253 32.5928ZM8.93306 33.2084C8.90409 33.2082 8.87517 33.2061 8.8465 33.2019L8.2406 33.1137C8.08305 33.0909 7.94101 33.0065 7.84573 32.8789C7.75045 32.7514 7.70974 32.5912 7.73255 32.4337C7.75537 32.2761 7.83984 32.1341 7.96738 32.0388C8.09492 31.9435 8.25508 31.9028 8.41264 31.9256L9.01854 32.0143C9.16823 32.0365 9.30404 32.1143 9.39875 32.2323C9.49346 32.3503 9.54008 32.4998 9.52927 32.6507C9.51846 32.8016 9.45102 32.9429 9.34045 33.0462C9.22989 33.1495 9.08437 33.2078 8.93306 33.2084ZM67.6857 33.2164C67.3938 33.2164 67.1384 33.0014 67.0948 32.7025C67.0465 32.3745 67.2733 32.0697 67.6002 32.0224L68.2056 31.9331C68.2834 31.9218 68.3626 31.9258 68.4388 31.9452C68.5151 31.9645 68.5867 31.9987 68.6496 32.0458C68.7126 32.0929 68.7656 32.152 68.8056 32.2197C68.8457 32.2874 68.872 32.3623 68.883 32.4401C68.9314 32.7681 68.705 33.0723 68.3781 33.1202L67.7728 33.2094C67.744 33.214 67.7149 33.2163 67.6857 33.2164ZM13.1733 33.825C13.1448 33.825 13.1152 33.8229 13.0867 33.8186L12.4808 33.7304C12.3232 33.7076 12.1812 33.6231 12.0859 33.4956C11.9907 33.368 11.9499 33.2079 11.9728 33.0503C11.9956 32.8927 12.08 32.7507 12.2076 32.6554C12.3351 32.5602 12.4953 32.5194 12.6528 32.5423L13.2582 32.631C13.5851 32.6788 13.8114 32.9831 13.7636 33.3105C13.7206 33.6094 13.4652 33.825 13.1733 33.825ZM63.446 33.839C63.1536 33.839 62.8987 33.6239 62.8546 33.3261C62.8068 32.9976 63.0331 32.6933 63.36 32.6455L63.9654 32.5562C64.0431 32.545 64.1223 32.5492 64.1984 32.5685C64.2745 32.5879 64.3461 32.6221 64.409 32.6691C64.4719 32.7161 64.5249 32.7751 64.565 32.8426C64.6052 32.9102 64.6316 32.9849 64.6428 33.0627C64.6911 33.3906 64.4654 33.6954 64.1385 33.7433L63.5326 33.8325C63.5038 33.8369 63.4752 33.8391 63.446 33.839ZM17.414 34.4422C17.385 34.4422 17.3559 34.44 17.3269 34.4363L16.721 34.3476C16.5634 34.3248 16.4214 34.2403 16.3261 34.1127C16.2309 33.9852 16.1901 33.825 16.213 33.6675C16.2358 33.5099 16.3202 33.3679 16.4478 33.2726C16.5753 33.1773 16.7355 33.1366 16.893 33.1594L17.4989 33.2481C17.8253 33.296 18.0516 33.6003 18.0043 33.9282C17.9613 34.2271 17.7059 34.4422 17.414 34.4422ZM59.2064 34.4621C58.9144 34.4621 58.6591 34.247 58.6155 33.9487C58.5924 33.7914 58.6327 33.6314 58.7274 33.5038C58.8222 33.3762 58.9637 33.2914 59.1209 33.268L59.7262 33.1793C59.8838 33.1565 60.044 33.1972 60.1715 33.2925C60.299 33.3878 60.3835 33.5298 60.4063 33.6874C60.4291 33.8449 60.3884 34.0051 60.2932 34.1326C60.1979 34.2602 60.0558 34.3446 59.8983 34.3675L59.2929 34.4562C59.2642 34.46 59.2353 34.462 59.2064 34.4621ZM21.6537 35.0588C21.6252 35.0588 21.5967 35.0567 21.5676 35.0535L20.9617 34.9647C20.8837 34.9535 20.8087 34.927 20.7409 34.8867C20.6732 34.8465 20.614 34.7932 20.5668 34.7301C20.4715 34.6026 20.4307 34.4425 20.4534 34.2849C20.4647 34.2069 20.4912 34.1319 20.5315 34.0641C20.5717 33.9964 20.6249 33.9372 20.6881 33.89C20.8156 33.7947 20.9757 33.7539 21.1332 33.7766L21.7386 33.8648C22.0649 33.9121 22.2924 34.2169 22.2445 34.5449C22.2015 34.8438 21.9461 35.0588 21.6537 35.0588ZM54.9667 35.0852C54.6748 35.0852 54.4194 34.8701 54.3764 34.5718C54.328 34.2438 54.5538 33.939 54.8807 33.8917L55.4866 33.8024C55.5644 33.7911 55.6436 33.7952 55.7198 33.8146C55.796 33.834 55.8676 33.8682 55.9305 33.9153C55.9934 33.9624 56.0465 34.0214 56.0865 34.0891C56.1266 34.1567 56.1529 34.2316 56.164 34.3094C56.2124 34.6373 55.9866 34.9416 55.6597 34.9895L55.0538 35.0787C55.025 35.0831 54.9958 35.0853 54.9667 35.0852ZM25.8944 35.676C25.8659 35.676 25.8369 35.6739 25.8084 35.6696L25.2019 35.5819C25.1239 35.5706 25.0489 35.5441 24.9812 35.5038C24.9134 35.4635 24.8542 35.4103 24.8071 35.3471C24.7599 35.284 24.7256 35.2121 24.7062 35.1357C24.6868 35.0593 24.6826 34.9799 24.6939 34.9018C24.7052 34.8238 24.7317 34.7488 24.772 34.6811C24.8123 34.6133 24.8656 34.5541 24.9287 34.507C24.9919 34.4598 25.0637 34.4255 25.1401 34.4061C25.2165 34.3867 25.296 34.3825 25.374 34.3938L25.9793 34.482C26.3057 34.5293 26.5326 34.8336 26.4847 35.1615C26.4417 35.461 26.1869 35.676 25.8944 35.676ZM50.727 35.7083C50.4356 35.7083 50.1797 35.4932 50.1367 35.1948C50.0883 34.8669 50.3147 34.5626 50.6415 34.5148L51.2469 34.4255C51.3258 34.4121 51.4065 34.4145 51.4844 34.4328C51.5623 34.451 51.6358 34.4846 51.7005 34.5317C51.7652 34.5787 51.8199 34.6382 51.8613 34.7067C51.9026 34.7752 51.9299 34.8512 51.9414 34.9304C51.953 35.0096 51.9486 35.0902 51.9285 35.1677C51.9084 35.2451 51.873 35.3177 51.8244 35.3813C51.7758 35.4449 51.715 35.4981 51.6456 35.5378C51.5761 35.5775 51.4994 35.6029 51.42 35.6126L50.8141 35.7013C50.7853 35.7058 50.7562 35.7082 50.727 35.7083ZM30.1351 36.2932C30.1061 36.2932 30.0771 36.291 30.048 36.2867L29.4422 36.1986C29.3641 36.1873 29.2891 36.1607 29.2214 36.1204C29.1536 36.0801 29.0945 36.0269 29.0473 35.9637C28.952 35.8362 28.9113 35.676 28.9341 35.5185C28.9569 35.3609 29.0414 35.2189 29.1689 35.1236C29.2965 35.0283 29.4566 34.9876 29.6142 35.0104L30.2201 35.0992C30.5464 35.147 30.7728 35.4507 30.7254 35.7787C30.6824 36.0776 30.4271 36.2932 30.1351 36.2932ZM46.4874 36.3308C46.196 36.3308 45.9401 36.1163 45.8971 35.8179C45.8487 35.49 46.075 35.1852 46.4019 35.1373L47.0072 35.0486C47.1644 35.026 47.324 35.0667 47.4511 35.1618C47.5782 35.2569 47.6624 35.3985 47.6852 35.5556C47.7336 35.8835 47.5067 36.1878 47.1804 36.2357L46.575 36.3249C46.546 36.3291 46.5167 36.3307 46.4874 36.3308ZM34.3748 36.9098C34.3468 36.9098 34.3178 36.9071 34.2888 36.9034L33.6829 36.8152C33.6049 36.8039 33.5299 36.7774 33.4621 36.7371C33.3943 36.6968 33.3352 36.6435 33.288 36.5804C33.1927 36.4529 33.152 36.2927 33.1748 36.1351C33.1977 35.9776 33.2821 35.8355 33.4097 35.7403C33.5372 35.645 33.6974 35.6043 33.8549 35.6271L34.4603 35.7153C34.6115 35.7356 34.7494 35.8128 34.8457 35.9312C34.942 36.0496 34.9896 36.2002 34.9788 36.3524C34.9679 36.5047 34.8995 36.647 34.7874 36.7506C34.6753 36.8541 34.5274 36.9111 34.3748 36.9098ZM42.2477 36.9539C41.9563 36.9539 41.7009 36.7389 41.6574 36.441C41.6095 36.1131 41.8359 35.8083 42.1628 35.7604L42.7676 35.6712C42.8454 35.6599 42.9246 35.6641 43.0007 35.6835C43.0769 35.7029 43.1485 35.7371 43.2114 35.7842C43.2743 35.8313 43.3273 35.8903 43.3674 35.9579C43.4075 36.0255 43.4338 36.1003 43.445 36.1781C43.4934 36.5061 43.2676 36.8109 42.9407 36.8588L42.3353 36.9475C42.3063 36.9519 42.277 36.954 42.2477 36.9539ZM38.4838 37.5136L37.9231 37.4319C37.8451 37.4206 37.7701 37.394 37.7023 37.3537C37.6345 37.3134 37.5754 37.2602 37.5282 37.197C37.4329 37.0695 37.3922 36.9093 37.415 36.7518C37.4379 36.5942 37.5223 36.4522 37.6499 36.3569C37.7774 36.2616 37.9376 36.2209 38.0951 36.2437L38.4838 36.3007L38.529 36.2943C38.607 36.283 38.6865 36.2872 38.7629 36.3067C38.8392 36.3261 38.911 36.3604 38.9742 36.4076C39.0373 36.4548 39.0905 36.514 39.1308 36.5818C39.171 36.6495 39.1975 36.7246 39.2088 36.8026C39.2201 36.8806 39.2159 36.9601 39.1964 37.0364C39.177 37.1128 39.1426 37.1846 39.0954 37.2478C39.0482 37.3109 38.9891 37.3641 38.9213 37.4044C38.8535 37.4446 38.7785 37.4711 38.7005 37.4824L38.4838 37.5136ZM4.69339 32.5912C4.6649 32.5912 4.63587 32.589 4.60737 32.5847L3.79933 32.467V31.6477C3.79933 31.3165 4.06707 31.0477 4.39716 31.0477C4.6606 31.0477 4.88317 31.2181 4.96328 31.4552C5.08302 31.5166 5.17871 31.6163 5.23505 31.7385C5.29139 31.8606 5.3051 31.9982 5.27401 32.1291C5.24291 32.26 5.16879 32.3766 5.06353 32.4604C4.95826 32.5442 4.82793 32.5903 4.69339 32.5912ZM4.39716 16.3881C4.06707 16.3881 3.79933 16.1193 3.79933 15.7881V15.2005C3.79933 14.8693 4.06707 14.6005 4.39716 14.6005C4.72672 14.6005 4.99392 14.8693 4.99392 15.2005V15.7881C4.99392 16.1193 4.72672 16.3881 4.39716 16.3881ZM4.39716 20.4997C4.06707 20.4997 3.79933 20.2309 3.79933 19.8998V19.3122C3.79933 18.981 4.06707 18.7122 4.39716 18.7122C4.72672 18.7122 4.99392 18.981 4.99392 19.3122V19.8998C4.99392 20.2315 4.72672 20.4997 4.39716 20.4997ZM4.39716 24.6119C4.06707 24.6119 3.79933 24.3431 3.79933 24.0114V23.4244C3.79933 23.0926 4.06707 22.8244 4.39716 22.8244C4.72672 22.8244 4.99392 23.0926 4.99392 23.4244V24.0114C4.99392 24.3431 4.72672 24.6119 4.39716 24.6119ZM4.39716 28.7236C4.06707 28.7236 3.79933 28.4548 3.79933 28.1231V27.536C3.79933 27.2043 4.06707 26.936 4.39716 26.936C4.72672 26.936 4.99392 27.2048 4.99392 27.536V28.1231C4.99392 28.4548 4.72672 28.7236 4.39716 28.7236ZM4.39716 12.2764C4.06707 12.2764 3.79933 12.0076 3.79933 11.677V10.8571L4.60737 10.7394C4.68513 10.6994 4.7707 10.6768 4.85808 10.6733C4.94546 10.6698 5.03255 10.6855 5.11326 10.7191C5.19397 10.7528 5.26636 10.8037 5.32536 10.8682C5.38436 10.9328 5.42855 11.0094 5.45484 11.0928C5.48114 11.1762 5.4889 11.2644 5.47758 11.3511C5.46626 11.4378 5.43614 11.521 5.38933 11.5948C5.34251 11.6687 5.28013 11.7315 5.20654 11.7787C5.13295 11.8259 5.04992 11.8565 4.96328 11.8684C4.88317 12.106 4.66006 12.2764 4.39716 12.2764ZM38.0096 7.08684C37.8577 7.08707 37.7114 7.02967 37.6001 6.92622C37.4889 6.82277 37.421 6.68097 37.4103 6.52944C37.3995 6.37791 37.4466 6.22793 37.5421 6.10978C37.6375 5.99162 37.7743 5.91408 37.9247 5.8928L38.4838 5.81108L38.7021 5.84334C38.8595 5.86615 39.0014 5.95057 39.0966 6.078C39.1918 6.20544 39.2324 6.36547 39.2096 6.52288C39.1868 6.6803 39.1024 6.8222 38.9749 6.91738C38.8475 7.01255 38.6875 7.0532 38.5301 7.03039L38.4838 7.02394L38.0957 7.08039C38.0672 7.08475 38.0384 7.08691 38.0096 7.08684ZM42.8563 7.66047C42.8273 7.66047 42.7982 7.65778 42.7692 7.65402L42.1633 7.56478C42.0061 7.54141 41.8647 7.45659 41.77 7.32896C41.6753 7.20134 41.6352 7.04135 41.6585 6.88416C41.6812 6.72718 41.7653 6.58563 41.8923 6.49059C42.0193 6.39554 42.1788 6.35476 42.3359 6.37719L42.9423 6.46643C43.2686 6.51482 43.4944 6.81911 43.4466 7.14705C43.4036 7.44543 43.1477 7.66047 42.8563 7.66047ZM33.7689 7.70348C33.617 7.70371 33.4706 7.64631 33.3594 7.54286C33.2482 7.43941 33.1803 7.29761 33.1695 7.14608C33.1587 6.99455 33.2058 6.84457 33.3013 6.72642C33.3968 6.60826 33.5335 6.53072 33.684 6.50944L34.2899 6.42128C34.3679 6.41001 34.4473 6.41423 34.5237 6.43368C34.6001 6.45313 34.6719 6.48744 34.735 6.53464C34.7982 6.58184 34.8514 6.64101 34.8916 6.70878C34.9319 6.77654 34.9584 6.85157 34.9697 6.92959C34.9809 7.0076 34.9767 7.08707 34.9573 7.16345C34.9378 7.23984 34.9035 7.31164 34.8563 7.37477C34.8091 7.43789 34.7499 7.49111 34.6822 7.53136C34.6144 7.57162 34.5394 7.59814 34.4614 7.6094L33.856 7.69703C33.8272 7.70123 33.7981 7.70339 33.7689 7.70348ZM47.0954 8.28357C47.0663 8.28344 47.0372 8.28128 47.0083 8.27711L46.403 8.18787C46.2455 8.16491 46.1036 8.08034 46.0084 7.95275C45.9133 7.82516 45.8728 7.665 45.8957 7.50752C45.9187 7.35004 46.0033 7.20812 46.1308 7.113C46.2584 7.01787 46.4186 6.97733 46.5761 7.00028L47.1809 7.08953C47.5078 7.13791 47.7341 7.44274 47.6863 7.77015C47.6432 8.06906 47.3873 8.28357 47.0954 8.28357ZM29.5287 8.32066C29.3768 8.32089 29.2304 8.26349 29.1192 8.16004C29.008 8.05659 28.9401 7.91479 28.9293 7.76326C28.9185 7.61173 28.9656 7.46175 29.0611 7.3436C29.1566 7.22544 29.2933 7.1479 29.4438 7.12662L30.0491 7.03792C30.1271 7.02666 30.2066 7.03087 30.283 7.05032C30.3594 7.06977 30.4312 7.10408 30.4943 7.15128C30.5574 7.19848 30.6106 7.25765 30.6509 7.32542C30.6912 7.39319 30.7177 7.46822 30.7289 7.54623C30.7402 7.62424 30.736 7.70371 30.7165 7.78009C30.6971 7.85648 30.6628 7.92828 30.6156 7.99141C30.5684 8.05454 30.5092 8.10775 30.4414 8.14801C30.3737 8.18826 30.2986 8.21478 30.2206 8.22604L29.6153 8.31421C29.5866 8.31858 29.5577 8.32074 29.5287 8.32066ZM51.3356 8.90666C51.3066 8.90666 51.277 8.90451 51.248 8.90021L50.6421 8.81096C50.4847 8.78801 50.3428 8.70346 50.2477 8.57592C50.1527 8.44838 50.1122 8.2883 50.1351 8.13088C50.1581 7.97347 50.2426 7.83162 50.3702 7.73655C50.4977 7.64147 50.6578 7.60096 50.8152 7.62391L51.4211 7.71262C51.7474 7.76101 51.9738 8.06529 51.9259 8.39324C51.8829 8.69161 51.627 8.90666 51.3356 8.90666ZM25.288 8.9373C24.9966 8.9373 24.7407 8.72226 24.6977 8.42281C24.6747 8.26562 24.7151 8.10577 24.81 7.97836C24.9049 7.85095 25.0464 7.76639 25.2036 7.74326L25.8095 7.6551C25.8875 7.64384 25.9669 7.64805 26.0433 7.6675C26.1197 7.68695 26.1915 7.72126 26.2546 7.76846C26.3178 7.81566 26.371 7.87483 26.4112 7.9426C26.4515 8.01036 26.478 8.0854 26.4893 8.16341C26.5005 8.24142 26.4963 8.32089 26.4769 8.39727C26.4574 8.47366 26.4231 8.54546 26.3759 8.60859C26.3287 8.67172 26.2695 8.72493 26.2018 8.76519C26.134 8.80544 26.059 8.83196 25.981 8.84322L25.3751 8.93085C25.3464 8.93503 25.3169 8.93718 25.288 8.9373ZM55.5747 9.52975C55.5457 9.52975 55.5167 9.5276 55.4871 9.5233L54.8823 9.43406C54.7248 9.41117 54.5829 9.32666 54.4877 9.19912C54.3925 9.07158 54.3519 8.91146 54.3748 8.75398C54.3977 8.59649 54.4822 8.45455 54.6097 8.35937C54.7372 8.2642 54.8974 8.22359 55.0549 8.24647L55.6602 8.33571C55.8107 8.35699 55.9475 8.43457 56.0429 8.55279C56.1384 8.67101 56.1855 8.82105 56.1747 8.97262C56.1638 9.12419 56.0958 9.266 55.9845 9.36941C55.8731 9.47282 55.7267 9.53012 55.5747 9.52975ZM21.0478 9.55448C20.8959 9.55471 20.7495 9.49731 20.6383 9.39386C20.527 9.29041 20.4592 9.14861 20.4484 8.99708C20.4376 8.84555 20.4847 8.69557 20.5802 8.57742C20.6757 8.45926 20.8124 8.38172 20.9628 8.36044L21.5687 8.27174C21.6466 8.26057 21.7258 8.26485 21.802 8.28435C21.8782 8.30384 21.9498 8.33816 22.0127 8.38534C22.0756 8.43253 22.1286 8.49165 22.1687 8.55933C22.2087 8.62701 22.235 8.70192 22.2461 8.77978C22.269 8.93703 22.2287 9.09694 22.1338 9.22444C22.039 9.35194 21.8974 9.43661 21.7402 9.45986L21.1343 9.54803C21.1058 9.55218 21.0766 9.55434 21.0478 9.55448ZM59.8144 10.1528C59.7848 10.1528 59.7558 10.1507 59.7268 10.1464L59.1214 10.0571C59.0435 10.0458 58.9685 10.0192 58.9009 9.97885C58.8332 9.93852 58.7742 9.88526 58.7271 9.82211C58.632 9.69457 58.5915 9.53448 58.6144 9.37707C58.6374 9.21966 58.7219 9.07781 58.8495 8.98274C58.977 8.88766 59.1371 8.84714 59.2945 8.8701L59.8999 8.95881C60.0504 8.98009 60.1872 9.05771 60.2827 9.17598C60.3782 9.29426 60.4252 9.44437 60.4143 9.59598C60.4034 9.7476 60.3353 9.88942 60.2239 9.99278C60.1124 10.0961 59.9664 10.1534 59.8144 10.1528ZM16.807 10.1711C16.5151 10.1711 16.2597 9.95608 16.2167 9.65663C16.1939 9.49955 16.2343 9.33984 16.329 9.21248C16.4238 9.08512 16.5651 9.00047 16.7221 8.97709L17.328 8.88892C17.406 8.87766 17.4855 8.88187 17.5618 8.90132C17.6382 8.92077 17.71 8.95508 17.7732 9.00228C17.8363 9.04948 17.8895 9.10865 17.9298 9.17642C17.97 9.24419 17.9965 9.31922 18.0078 9.39723C18.0191 9.47524 18.0148 9.55471 17.9954 9.63109C17.9759 9.70748 17.9416 9.77928 17.8944 9.84241C17.8472 9.90554 17.7881 9.95875 17.7203 9.99901C17.6525 10.0393 17.5775 10.0658 17.4995 10.077L16.8941 10.1647C16.8653 10.1689 16.8362 10.171 16.807 10.1711ZM64.0535 10.7765C64.0245 10.7765 63.996 10.7743 63.9664 10.7695L63.3611 10.6808C63.2038 10.6575 63.0622 10.5728 62.9674 10.4451C62.8727 10.3175 62.8325 10.1574 62.8557 10.0002C62.8785 9.84307 62.9626 9.70144 63.0898 9.60638C63.2169 9.51132 63.3765 9.47061 63.5337 9.49319L64.1395 9.5819C64.4659 9.63029 64.6922 9.93511 64.6444 10.2625C64.624 10.4048 64.5531 10.5351 64.4446 10.6294C64.3361 10.7238 64.1973 10.776 64.0535 10.7765ZM12.5674 10.7878C12.4154 10.788 12.2691 10.7306 12.1579 10.6271C12.0466 10.5237 11.9788 10.3819 11.968 10.2304C11.9572 10.0788 12.0043 9.92886 12.0998 9.8107C12.1953 9.69254 12.332 9.615 12.4824 9.59373L13.0878 9.50556C13.2453 9.48282 13.4055 9.5236 13.533 9.61892C13.6605 9.71425 13.7449 9.85632 13.7676 10.0139C13.7903 10.1714 13.7496 10.3316 13.6542 10.4591C13.5589 10.5865 13.4168 10.6709 13.2593 10.6937L12.6539 10.7819C12.6252 10.7858 12.5963 10.7878 12.5674 10.7878ZM68.2932 11.399C68.2642 11.399 68.2351 11.3969 68.2061 11.3926L67.6007 11.3039C67.5228 11.2926 67.4478 11.266 67.3801 11.2258C67.3123 11.1855 67.2532 11.1323 67.2061 11.0691C67.1589 11.006 67.1246 10.9342 67.1052 10.8578C67.0858 10.7815 67.0817 10.702 67.093 10.6241C67.1043 10.5461 67.1308 10.4711 67.1711 10.4034C67.2114 10.3357 67.2646 10.2765 67.3277 10.2294C67.3908 10.1822 67.4626 10.148 67.539 10.1286C67.6154 10.1092 67.6948 10.105 67.7728 10.1163L68.3792 10.2055C68.7056 10.2534 68.9313 10.5582 68.8835 10.8861C68.8405 11.1851 68.5851 11.399 68.2932 11.399ZM8.32662 11.4044C8.17535 11.4037 8.02992 11.3459 7.91946 11.2425C7.809 11.1392 7.74165 10.9979 7.73092 10.847C7.72018 10.6961 7.76683 10.5468 7.86154 10.4288C7.95625 10.3108 8.09203 10.233 8.24168 10.2109L8.84758 10.1227C8.92541 10.1113 9.00473 10.1155 9.08097 10.1348C9.15721 10.1542 9.22887 10.1884 9.29182 10.2356C9.35478 10.2828 9.40779 10.3419 9.4478 10.4097C9.48781 10.4774 9.51404 10.5523 9.52497 10.6302C9.5479 10.7875 9.50751 10.9474 9.41267 11.0749C9.31782 11.2024 9.17627 11.2871 9.01908 11.3103L8.41318 11.3985C8.3845 11.4025 8.35558 11.4045 8.32662 11.4044ZM72.2216 12.2764C71.9581 12.2764 71.7345 12.1055 71.6549 11.8678C71.5284 11.8033 71.4288 11.6959 71.3739 11.5649C71.3191 11.4338 71.3125 11.2875 71.3555 11.1521C71.3984 11.0167 71.488 10.9008 71.6083 10.8253C71.7286 10.7497 71.8718 10.7192 72.0125 10.7394L72.8194 10.8577V11.677C72.8194 12.0081 72.5522 12.2764 72.2216 12.2764ZM72.2216 16.3886C71.8915 16.3886 71.6237 16.1198 71.6237 15.7886V15.201C71.6237 14.8693 71.8915 14.6011 72.2216 14.6011C72.5522 14.6011 72.8194 14.8699 72.8194 15.201V15.7886C72.8194 16.1198 72.5522 16.3886 72.2216 16.3886ZM72.2216 20.5003C71.8915 20.5003 71.6237 20.2315 71.6237 19.9008V19.3132C71.6237 18.9815 71.8915 18.7127 72.2216 18.7127C72.5522 18.7127 72.8194 18.9815 72.8194 19.3132V19.9008C72.8194 20.232 72.5522 20.5003 72.2216 20.5003ZM72.2216 24.6125C71.8915 24.6125 71.6237 24.3437 71.6237 24.012V23.4249C71.6237 23.0937 71.8915 22.8249 72.2216 22.8249C72.5522 22.8249 72.8194 23.0937 72.8194 23.4249V24.012C72.8194 24.3437 72.5522 24.6125 72.2216 24.6125ZM72.2216 28.7247C71.8915 28.7247 71.6237 28.4559 71.6237 28.1247V27.5371C71.6237 27.2054 71.8915 26.9366 72.2216 26.9366C72.5522 26.9366 72.8194 27.2054 72.8194 27.5371V28.1247C72.8194 28.4559 72.5522 28.7247 72.2216 28.7247Z" fill="white"/>
</svg>
