<svg width="85" height="44" viewBox="0 0 85 44" fill="none" xmlns="http://www.w3.org/2000/svg">
<path d="M58.0715 28.7188C56.147 28.7188 54.8067 27.2067 54.8067 25.2478C54.8067 23.2889 56.0783 21.7424 58.0715 21.7424C60.0648 21.7424 61.3364 23.2889 61.3364 25.2478C61.3364 27.2067 60.0304 28.7188 58.0715 28.7188ZM58.0715 18.7181C54.4974 18.7181 51.5762 21.6393 51.5762 25.2134C51.5762 28.7876 54.4974 31.7087 58.0715 31.7087C61.6457 31.7087 64.5668 28.7876 64.5668 25.2134C64.5324 21.6393 61.6457 18.7525 58.0715 18.7181Z" fill="white"/>
<path d="M78.1761 28.7188C76.2516 28.7188 74.9113 27.2067 74.9113 25.2478C74.9113 23.2889 76.1829 21.7424 78.1761 21.7424C80.1694 21.7424 81.441 23.2889 81.441 25.2478C81.441 27.2067 80.135 28.7188 78.1761 28.7188ZM78.2105 18.7181C74.6364 18.7181 71.7152 21.6393 71.7152 25.2134C71.7152 28.7876 74.6364 31.7087 78.2105 31.7087C81.7846 31.7087 84.7058 28.7876 84.7058 25.2134C84.7058 21.6393 81.7846 18.7525 78.2105 18.7181Z" fill="white"/>
<path d="M43.4317 28.7188C41.5072 28.7188 40.1669 27.2067 40.1669 25.2134C40.1669 23.2202 41.4384 21.708 43.4317 21.708C45.425 21.708 46.6965 23.2545 46.6965 25.2134C46.6965 27.1723 45.3562 28.7188 43.4317 28.7188ZM43.4317 18.7181C39.5483 18.7181 36.9364 21.33 36.9364 25.8664V38.2384H40.1669V30.2653C40.9917 31.1932 42.1945 31.7431 43.4317 31.7431C47.0402 31.4682 49.7208 28.3408 49.4802 24.7667C49.2397 21.5362 46.6622 18.9587 43.4317 18.7181Z" fill="white"/>
<path d="M69.7564 12.6008H66.4916V31.4338H69.7564V12.6008Z" fill="white"/>
<path d="M21.7465 18.7525C20.0626 18.8899 18.9628 19.7491 18.4473 20.8832V12.6008H15.1825V31.4338H18.4473V25.2478C18.4473 23.2889 19.1347 21.7424 21.7122 21.7424C24.2897 21.7424 24.9426 23.2889 24.9426 25.2478V31.4338H28.2075V25.2478C28.1387 20.677 25.3207 18.4775 21.7465 18.7525Z" fill="white"/>
<path d="M34.1524 19.0616H30.9219V31.3993H34.1524V19.0616Z" fill="white"/>
<path d="M57.454 8.37358C57.454 9.81698 56.2855 10.9854 54.8421 10.9854C53.3987 10.9854 52.2302 9.81698 52.2302 8.37358C52.2302 6.93018 53.3987 5.76172 54.8421 5.76172C56.2855 5.76172 57.454 6.93018 57.454 8.37358Z" fill="white"/>
<path d="M6.72777 28.6157C4.87197 28.6157 3.35984 27.1035 3.35984 25.2477C3.35984 23.3919 4.87197 21.8798 6.72777 21.8798C7.96497 21.8798 9.09907 22.6359 9.61457 23.77H13.0512C12.2264 20.2646 8.7554 18.0651 5.21564 18.8899C1.71024 19.6803 -0.489227 23.1857 0.335572 26.6911C1.16037 30.1965 4.6314 32.396 8.1368 31.6056C10.5768 31.0557 12.467 29.1312 13.0512 26.6911H9.61457C9.13343 27.8596 7.99933 28.6157 6.72777 28.6157Z" fill="white"/>
</svg>
