<svg width="86" height="44" viewBox="0 0 86 44" fill="none" xmlns="http://www.w3.org/2000/svg">
<path fill-rule="evenodd" clip-rule="evenodd" d="M0.967773 15.9549L2.99136 15.9549L2.99136 18.0124H0.967774L0.967773 15.9549ZM2.88923 19.5597L2.88923 27.501H1.08682L1.08682 19.5597H2.88923Z" fill="white"/>
<path fill-rule="evenodd" clip-rule="evenodd" d="M12.4001 22.7733V27.5016H10.5979L10.5979 23.0282C10.5979 21.8036 9.93469 21.004 8.60863 21.004C7.43535 21.004 6.36403 21.9056 6.36403 23.4195V27.5016H4.56177L4.56177 19.5583L6.36403 19.5583V20.2898C6.84024 19.7287 7.75847 19.3371 8.89756 19.3371C11.023 19.3371 12.4001 20.6981 12.4001 22.7733Z" fill="white"/>
<path fill-rule="evenodd" clip-rule="evenodd" d="M13.8402 15.9549L15.8637 15.9549L15.8637 18.0124H13.8402V15.9549ZM15.7616 19.5597V27.5009H13.9592V19.5597H15.7616Z" fill="white"/>
<path fill-rule="evenodd" clip-rule="evenodd" d="M19.8279 17.5707V19.5601L22.3099 19.5601V21.1417H19.8279V24.73C19.8279 25.4949 20.2187 25.92 21.0349 25.92H22.3099V27.5016H21.0176C19.0287 27.5016 18.0255 26.5322 18.0255 25.0359V21.1417H16.5635V19.5601H18.0255V17.5707H19.8279Z" fill="white"/>
<path fill-rule="evenodd" clip-rule="evenodd" d="M23.1866 15.9549L25.2102 15.9549V18.0124H23.1866V15.9549ZM25.1073 19.5597V27.5009H23.3049V19.5597H25.1073Z" fill="white"/>
<path fill-rule="evenodd" clip-rule="evenodd" d="M32.2678 23.9467H30.023C28.9008 23.9467 28.2206 24.2868 28.2206 25.052C28.2206 25.7663 28.8497 26.1912 29.8869 26.1912C31.2475 26.1912 32.2678 25.5113 32.2678 24.3718V23.9467ZM34.0696 22.5013V27.5007H32.2672V26.7697C31.6718 27.3984 30.7196 27.7219 29.5973 27.7219C27.693 27.7219 26.4176 26.8036 26.4176 25.052C26.4176 23.0965 28.1859 22.5013 30.0394 22.5013H32.2672C32.2672 21.413 31.332 21.0048 30.1756 21.0048C29.2573 21.0048 28.4412 21.2941 28.152 22.0254H26.2304C26.6897 20.2399 28.339 19.3383 30.1586 19.3383C32.4712 19.3383 34.0696 20.4777 34.0696 22.5013Z" fill="white"/>
<path fill-rule="evenodd" clip-rule="evenodd" d="M37.4528 16.1262V27.5016H35.6483V16.1262L37.4528 16.1262Z" fill="white"/>
<path fill-rule="evenodd" clip-rule="evenodd" d="M39.0053 15.9547L41.0289 15.9547V18.0122L39.0053 18.0122V15.9547ZM40.9269 19.5595L40.927 27.5007H39.1245L39.1245 19.5595H40.9269Z" fill="white"/>
<path fill-rule="evenodd" clip-rule="evenodd" d="M42.0758 27.5016V25.9197L46.8362 21.1404H42.0758V19.5585L49.2164 19.5585V21.1404L44.4218 25.9197H49.2503V27.5016H42.0758Z" fill="white"/>
<path fill-rule="evenodd" clip-rule="evenodd" d="M51.7151 22.7227H56.0852C55.9151 21.6682 55.0991 20.9539 53.9596 20.9539C52.8035 20.9539 51.8682 21.6682 51.7151 22.7227ZM55.9158 25.1883H57.8713C57.2934 26.7526 55.7799 27.7221 54.0453 27.7221C51.6135 27.7221 49.8111 25.9535 49.8111 23.5218C49.8111 21.1412 51.5285 19.3384 53.9603 19.3384C56.324 19.3384 57.9905 21.1412 57.9905 23.4537C57.9905 23.6918 57.9905 23.9299 57.9563 24.1681H51.6816C51.8859 25.2903 52.855 26.0555 54.0453 26.0555C54.8447 26.0555 55.5249 25.7832 55.9158 25.1883Z" fill="white"/>
<path fill-rule="evenodd" clip-rule="evenodd" d="M62.9244 21.005C61.5301 21.005 60.5607 22.1614 60.5607 23.5387C60.5607 24.8994 61.5301 26.0555 62.9244 26.0555C64.1658 26.0555 65.3731 25.2222 65.3731 23.5387C65.3731 21.8383 64.1658 21.005 62.9244 21.005ZM67.1074 16.1247L67.1074 27.5007H65.305V26.7697C64.7437 27.3646 63.8085 27.7219 62.8051 27.7219C60.2203 27.7219 58.758 25.7152 58.758 23.5386C58.758 21.3449 60.2203 19.3383 62.8051 19.3383C63.8085 19.3383 64.7437 19.6956 65.305 20.2908V16.1247L67.1074 16.1247Z" fill="white"/>
<path fill-rule="evenodd" clip-rule="evenodd" d="M77.8999 26.6704C75.8016 26.2187 74.3171 24.3784 74.3171 22.0001C74.3171 19.6216 75.8016 17.7813 77.8999 17.3298V15.7667C74.8752 16.2348 72.6685 18.7641 72.6685 22.0001C72.6685 25.2362 74.8752 27.7651 77.8999 28.2332V26.6704Z" fill="white"/>
<path fill-rule="evenodd" clip-rule="evenodd" d="M80.4268 26.6704C82.5251 26.2187 84.0096 24.3784 84.0096 22.0001C84.0096 19.6216 82.5251 17.7813 80.4268 17.3298V15.7667C83.4515 16.2348 85.6582 18.7641 85.6582 22.0001C85.6582 25.2362 83.4515 27.7651 80.4268 28.2332V26.6704Z" fill="white"/>
</svg>
