<svg width="88" height="44" viewBox="0 0 88 44" fill="none" xmlns="http://www.w3.org/2000/svg">
<g clip-path="url(#clip0_5411_3235)">
<path d="M8.21047 14H14.9922V20.7818H8.21047V14Z" fill="white"/>
<path d="M0.274902 21.9354H7.05666V28.7171H0.274902V21.9354Z" fill="white"/>
<path d="M0.274902 14L1.68087 19.3716L7.05666 20.7818L5.70031 15.3564L0.274902 14Z" fill="white"/>
<path d="M9.61645 27.3112L8.21047 21.9354L13.6317 23.2958L14.9922 28.7171L9.61645 27.3112Z" fill="white"/>
<path d="M21.4479 17.5385C21.7828 17.2821 22.2543 17.1539 22.8621 17.1539C23.4907 17.1539 23.9786 17.3069 24.326 17.6129C24.6734 17.9189 24.847 18.349 24.847 18.899H27.3282C27.3282 18.1753 27.1421 17.5302 26.7699 16.9637C26.3978 16.3972 25.8767 15.9547 25.2027 15.6445C24.5286 15.3344 23.7636 15.1773 22.9035 15.1773C22.0475 15.1773 21.2783 15.322 20.5919 15.6073C19.9055 15.8927 19.3803 16.2938 19.0123 16.8024C18.6442 17.311 18.4623 17.8941 18.4623 18.5433C18.4623 19.7963 19.1446 20.7888 20.5133 21.529C21.0137 21.7978 21.696 22.0748 22.5561 22.3519C23.4163 22.6289 24.0117 22.8936 24.3426 23.1458C24.6734 23.3981 24.8388 23.7578 24.8388 24.2251C24.8388 24.6552 24.6734 24.9901 24.3426 25.23C24.0117 25.4698 23.5527 25.5898 22.9614 25.5898C21.3735 25.5898 20.5795 24.924 20.5795 23.5966H18.0901C18.0901 24.374 18.2886 25.0563 18.6897 25.6476C19.0908 26.239 19.6697 26.7021 20.4306 27.0412C21.1915 27.3803 22.0351 27.5498 22.9614 27.5498C24.2971 27.5498 25.3557 27.2521 26.1455 26.6608C26.9353 26.0694 27.3282 25.2507 27.3282 24.2086C27.3282 23.2699 27.0056 22.4883 26.3605 21.8598C25.7154 21.2312 24.6858 20.7061 23.2757 20.2801C22.5106 20.0486 21.9276 19.8004 21.5347 19.5358C21.1419 19.2711 20.9434 18.9445 20.9434 18.5516C20.9434 18.1339 21.1129 17.7949 21.4479 17.5385Z" fill="white"/>
<path d="M39.7843 18.4361L39.8504 19.503C40.3301 18.6801 40.9959 18.2707 41.8436 18.2707C42.1083 18.2707 42.3564 18.3079 42.5879 18.3782V20.6774C42.2613 20.6319 41.9428 20.6112 41.6947 20.6112C40.7891 20.6112 40.1978 20.9172 39.9166 21.5292V27.3847H37.5264V18.4361H39.7843Z" fill="white"/>
<path d="M43.7263 27.3858H46.1247V18.4372L43.7263 19.5909V27.3858Z" fill="white"/>
<path d="M46.1247 17.3054L43.7263 18.4219V16.2427L46.1247 15.0848V17.3054Z" fill="white"/>
<path d="M52.1743 18.272C51.0992 18.272 50.2432 18.6731 49.6022 19.4712L49.5278 18.4374H47.2782V27.386H49.6684V21.0633C50.0033 20.4885 50.5078 20.2032 51.1819 20.2032C51.6946 20.2032 52.0627 20.3189 52.2818 20.5464C52.501 20.7738 52.6127 21.146 52.6127 21.6546V27.3902H55.0028V21.6091C54.9904 20.5009 54.7547 19.6697 54.2916 19.1115C53.8284 18.5491 53.1254 18.272 52.1743 18.272Z" fill="white"/>
<path d="M56.1418 16.9637L58.532 15.7852V18.5765H60.153V20.3257H58.532V24.4857C58.532 24.8165 58.594 25.0522 58.7222 25.197C58.8504 25.3417 59.0902 25.412 59.45 25.412H60.153V27.3804H58.7057C57.0309 27.3804 56.1749 26.5326 56.1418 24.8413V16.9637Z" fill="white"/>
<path d="M84.5347 18.4372L82.8806 24.0032L81.2183 18.4372H78.6462L81.7806 27.4106L81.4995 28.1467C81.3713 28.4651 81.1976 28.6967 80.9743 28.8331C80.751 28.9696 80.4119 29.0399 79.9612 29.0399L79.589 29.0316L78.6462 31H80.6559C81.884 31 82.769 30.4169 83.3024 29.2467L83.5009 28.7753L87.0985 18.4372H84.5347Z" fill="white"/>
<path fill-rule="evenodd" clip-rule="evenodd" d="M74.8704 18.272C75.9745 18.272 76.847 18.5491 77.4962 19.1032C78.1413 19.6573 78.468 20.4347 78.468 21.4396V27.5514H73.911C73.0343 27.5514 72.3065 27.2992 71.7317 26.7906C71.1569 26.2819 70.8675 25.6451 70.8675 24.8718C70.8675 23.9249 71.219 23.1971 71.9219 22.6884C72.6249 22.1798 73.6422 21.9234 74.9696 21.9193H76.0696V21.4065C76.0696 20.993 75.9621 20.6622 75.7512 20.4141C75.5403 20.1659 75.2053 20.0419 74.7463 20.0419C74.3452 20.0419 74.0268 20.137 73.7993 20.3314C73.5719 20.5257 73.4561 20.7904 73.4561 21.1253H71.0659C71.0659 20.6084 71.2272 20.1287 71.5456 19.6863C71.8641 19.2438 72.3189 18.9006 72.902 18.6483C73.4851 18.3961 74.1426 18.272 74.8704 18.272ZM74.432 25.7237H76.0696V23.317H75.1764C73.9813 23.317 73.3445 23.7305 73.2659 24.5576L73.2576 24.6981C73.2576 24.9959 73.361 25.2399 73.5719 25.4342C73.7828 25.6286 74.0681 25.7237 74.432 25.7237Z" fill="white"/>
<path d="M68.0677 22.3491C68.7914 22.0224 69.329 21.5882 69.6846 21.0382C70.0402 20.4882 70.218 19.8059 70.218 18.983C70.218 17.8251 69.8335 16.9278 69.0602 16.2951C68.2869 15.6624 67.191 15.344 65.7685 15.344H61.319V17.3537H65.7685C66.4343 17.3537 66.9305 17.515 67.2531 17.8417C67.5756 18.1684 67.7369 18.615 67.7369 19.1815C67.7369 19.7397 67.5674 20.1739 67.2241 20.4923C66.8809 20.8108 66.4012 20.9679 65.7768 20.9679H63.7754V18.5819H61.319V27.3858H63.7754V22.9776H65.752L68.0098 27.3858H70.6729V27.27L68.0677 22.3491Z" fill="white"/>
<path d="M32.9974 18.4372C34.1015 18.4372 34.9575 18.8259 35.5695 19.6075C36.1815 20.389 36.4875 21.4683 36.4875 22.8453V22.9653C36.4875 24.2844 36.1732 25.343 35.5488 26.137C34.9244 26.9309 34.0766 27.3279 33.0139 27.3279H30.632V30.9917L28.4321 29.9786V21.704H30.632V25.2934H32.3853C33.5267 25.2934 34.0973 24.5821 34.0973 22.7875C34.0973 21.9894 33.9485 21.5634 33.6549 21.1292C33.3613 20.695 32.9312 20.4759 32.3688 20.4759H28.4321V18.4372H32.9974Z" fill="white"/>
</g>
<defs>
<clipPath id="clip0_5411_3235">
<rect width="87" height="44" fill="white" transform="translate(0.274902)"/>
</clipPath>
</defs>
</svg>
