<svg width="53" height="44" viewBox="0 0 53 44" fill="none" xmlns="http://www.w3.org/2000/svg">
<path d="M26.8333 42L30.6923 39.7601V35.2804L26.8333 33.0405L22.9742 35.2804V39.7601L26.8333 42Z" fill="white"/>
<path d="M48.4891 4.22542L45.005 5.9131L44.1451 9.70383L46.5565 12.7426L50.4216 12.7427L52.8331 9.70413L51.9732 5.91295L48.4891 4.22542Z" fill="white"/>
<path d="M1.18145 9.55392H3.83991C3.95941 10.6352 4.66122 11.0858 5.93085 11.0858C6.79713 11.0858 7.64847 10.7704 7.64847 9.95935C7.64847 9.10347 6.78219 8.92326 5.31852 8.56284C3.46659 8.12729 1.5101 7.55655 1.5101 5.304C1.5101 3.00613 3.36202 2 5.75158 2C8.0666 2 9.85877 3.05115 9.96334 5.304H7.37958C7.27501 4.47792 6.64774 4.01227 5.66195 4.01227C4.73607 4.01227 4.12359 4.41786 4.12359 5.01856C4.12359 5.76935 4.94506 5.94972 6.54332 6.31014C8.52955 6.77564 10.3219 7.3914 10.3219 9.68911C10.3219 11.9418 8.41019 13.1884 5.94578 13.1884C3.10807 13.1884 1.24121 11.9268 1.18145 9.55392Z" fill="white"/>
<path d="M16.2813 8.2627C16.1919 7.3466 15.6243 6.76095 14.8326 6.76095C13.9067 6.76095 13.4288 7.3466 13.2644 8.2627H16.2813ZM10.8599 9.07372C10.8599 6.77601 12.4578 5.01892 14.7878 5.01892C15.8781 5.01892 16.7444 5.37934 17.4016 5.98004C18.3127 6.82102 18.7607 8.15762 18.7457 9.71944H13.2496C13.3988 10.7557 13.9663 11.4014 14.967 11.4014C15.6093 11.4014 16.0275 11.1161 16.2365 10.6355H18.6113C18.4471 11.3264 17.999 11.9872 17.3269 12.4528C16.6847 12.9033 15.908 13.1585 14.9372 13.1585C12.413 13.1585 10.8599 11.4014 10.8599 9.07372Z" fill="white"/>
<path d="M18.4533 5.24389H20.9625L22.0079 8.71304C22.232 9.4789 22.4261 10.2598 22.4261 10.2598H22.4561C22.4561 10.2598 22.6501 9.4789 22.8742 8.71304L23.9347 5.24389H26.3691L23.7254 12.933H21.0968L18.4533 5.24389Z" fill="white"/>
<path d="M31.4773 8.2627C31.3879 7.3466 30.8203 6.76095 30.0286 6.76095C29.1027 6.76095 28.6248 7.3466 28.4604 8.2627H31.4773ZM26.0559 9.07372C26.0559 6.77601 27.6538 5.01892 29.9838 5.01892C31.0741 5.01892 31.9404 5.37934 32.5976 5.98004C33.5087 6.82102 33.9567 8.15762 33.9417 9.71944H28.4456C28.595 10.7557 29.1625 11.4014 30.163 11.4014C30.8053 11.4014 31.2235 11.1161 31.4325 10.6355H33.8073C33.6431 11.3264 33.195 11.9872 32.5229 12.4528C31.8807 12.9033 31.104 13.1585 30.1332 13.1585C27.609 13.1585 26.0559 11.4014 26.0559 9.07372Z" fill="white"/>
<path d="M34.6438 5.24389H36.9887V6.29519H37.0336C37.6011 5.46912 38.3329 5.01867 39.3934 5.01867C41.066 5.01867 42.0517 6.22007 42.0517 7.93214V12.933H39.6173V8.42775C39.6173 7.61673 39.2141 7.06105 38.4224 7.06105C37.616 7.06105 37.0782 7.73687 37.0782 8.68293V12.933H34.6438V5.24389Z" fill="white"/>
<path d="M48.3228 18.5365L44.8387 20.2241L43.9788 24.0149L46.3902 27.0536L50.2552 27.0537L52.6667 24.0152L51.8069 20.224L48.3228 18.5365Z" fill="white"/>
<path d="M1.01489 23.8653H3.67335C3.79285 24.9465 4.49481 25.3971 5.76429 25.3971C6.63057 25.3971 7.48191 25.0817 7.48191 24.2707C7.48191 23.4148 6.61563 23.2346 5.15181 22.8742C3.30003 22.4385 1.34354 21.8679 1.34354 19.6154C1.34354 17.3175 3.19546 16.3114 5.58502 16.3114C7.90004 16.3114 9.69221 17.3625 9.79678 19.6154H7.21302C7.10845 18.7893 6.48118 18.3236 5.49539 18.3236C4.5695 18.3236 3.95703 18.7292 3.95703 19.3299C3.95703 20.0807 4.77849 20.2611 6.37676 20.6215C8.36298 21.087 10.1553 21.7028 10.1553 24.0005C10.1553 26.2532 8.24363 27.4997 5.77922 27.4997C2.94151 27.4997 1.0745 26.2381 1.01489 23.8653Z" fill="white"/>
<path d="M16.1148 22.5738C16.0254 21.6577 15.4579 21.072 14.6663 21.072C13.7402 21.072 13.2623 21.6577 13.098 22.5738H16.1148ZM10.6935 23.3848C10.6935 21.0871 12.2915 19.33 14.6214 19.33C15.7118 19.33 16.5779 19.6904 17.2351 20.2911C18.1462 21.1321 18.5942 22.4687 18.5792 24.0305H13.0831C13.2325 25.0668 13.8 25.7125 14.8007 25.7125C15.4428 25.7125 15.861 25.4272 16.07 24.9466H18.4449C18.2806 25.6375 17.8325 26.2983 17.1604 26.7639C16.5182 27.2144 15.7417 27.4696 14.7708 27.4696C12.2465 27.4696 10.6935 25.7125 10.6935 23.3848Z" fill="white"/>
<path d="M18.2868 19.5549H20.796L21.8412 23.0241C22.0653 23.7899 22.2595 24.5709 22.2595 24.5709H22.2894C22.2894 24.5709 22.4836 23.7899 22.7076 23.0241L23.768 19.5549H26.2025L23.5588 27.244H20.9301L18.2868 19.5549Z" fill="white"/>
<path d="M31.3108 22.5738C31.2211 21.6577 30.6538 21.072 29.862 21.072C28.9361 21.072 28.4581 21.6577 28.2938 22.5738H31.3108ZM25.8893 23.3848C25.8893 21.0871 27.4873 19.33 29.8172 19.33C30.9076 19.33 31.7739 19.6904 32.4309 20.2911C33.342 21.1321 33.79 22.4687 33.775 24.0305H28.2789C28.4282 25.0668 28.9958 25.7125 29.9965 25.7125C30.6387 25.7125 31.0568 25.4272 31.2658 24.9466H33.6407C33.4764 25.6375 33.0282 26.2983 32.3562 26.7639C31.714 27.2144 30.9375 27.4696 29.9666 27.4696C27.4425 27.4696 25.8893 25.7125 25.8893 23.3848Z" fill="white"/>
<path d="M34.4773 19.5549H36.822V20.6062H36.867C37.4345 19.7802 38.1662 19.3297 39.2268 19.3297C40.8995 19.3297 41.8853 20.5311 41.8853 22.2432V27.244H39.4508V22.7388C39.4508 21.9278 39.0476 21.3721 38.256 21.3721C37.4494 21.3721 36.9118 22.0479 36.9118 22.994V27.244H34.4773V19.5549Z" fill="white"/>
<path d="M1.20863 38.2115H3.86708C3.98659 39.2927 4.6884 39.7433 5.95802 39.7433C6.8243 39.7433 7.6755 39.4279 7.6755 38.6169C7.6755 37.761 6.80921 37.5808 5.34554 37.2204C3.49377 36.7847 1.53712 36.2141 1.53712 33.9616C1.53712 31.6637 3.38905 30.6576 5.77876 30.6576C8.09377 30.6576 9.88594 31.7087 9.99037 33.9616H7.4066C7.30218 33.1355 6.67492 32.6698 5.68913 32.6698C4.76309 32.6698 4.15076 33.0754 4.15076 33.6761C4.15076 34.4269 4.97208 34.6073 6.57035 34.9677C8.55657 35.4332 10.349 36.049 10.349 38.3467C10.349 40.5994 8.43736 41.8459 5.97296 41.8459C3.13509 41.8459 1.26823 40.5843 1.20863 38.2115Z" fill="white"/>
<path d="M11.0422 33.9011H13.4766V41.5902H11.0422V33.9011ZM11.0422 30.8524H13.4766V32.8349H11.0422V30.8524Z" fill="white"/>
<path d="M16.703 37.5504L14.2983 33.9011H17.0764L18.2114 35.8834H18.2413L19.3167 33.9011H21.8706L19.6004 37.5203L22.1993 41.5902H19.3763L18.1218 39.2925H18.0919L16.703 41.5902H14.0445L16.703 37.5504Z" fill="white"/>
</svg>
