<svg width="36" height="26" viewBox="0 0 36 26" fill="none" xmlns="http://www.w3.org/2000/svg">
<g id="Vector">
<path d="M12.6824 16.3864C12.6251 16.255 12.5964 16.1272 12.5964 16.0049C12.5964 15.7485 12.6831 15.5366 12.8571 15.3677C13.0312 15.1989 13.2633 15.1148 13.5547 15.1148C13.8462 15.1148 14.0475 15.1933 14.2034 15.3503C14.3593 15.5074 14.4369 15.695 14.4369 15.9132C14.4369 16.1675 14.3565 16.3898 14.1957 16.5809C14.102 16.6928 13.9448 16.8213 13.7239 16.968L14.4501 17.8344C14.4984 17.6899 14.5319 17.5822 14.5508 17.5113C14.5697 17.4398 14.5885 17.3404 14.6081 17.2125H15.0736C15.0429 17.4669 14.9814 17.7108 14.8891 17.9449C14.7968 18.1791 14.7507 18.2729 14.7507 18.227L15.4595 19.0852H14.829L14.455 18.6307C14.3068 18.7912 14.1712 18.9087 14.0482 18.9823C13.8329 19.1123 13.5855 19.1769 13.3052 19.1769C12.8914 19.1769 12.5901 19.0657 12.4021 18.8427C12.2141 18.6196 12.1197 18.3688 12.1197 18.0888C12.1197 17.7879 12.2113 17.5357 12.3937 17.3335C12.5055 17.2105 12.7145 17.0576 13.0207 16.8735C12.8522 16.6803 12.7397 16.5184 12.6824 16.3864ZM13.8595 18.6106C14.0042 18.5189 14.1153 18.416 14.1929 18.3021L13.2926 17.2063C13.0382 17.3758 12.8725 17.5058 12.7949 17.5961C12.6761 17.7316 12.616 17.8963 12.616 18.0915C12.616 18.3028 12.6929 18.4654 12.8474 18.5786C13.0018 18.6919 13.1668 18.7489 13.3415 18.7489C13.5421 18.7489 13.7155 18.703 13.8595 18.6106ZM13.821 16.3572C13.9266 16.2349 13.9797 16.0987 13.9797 15.9493C13.9797 15.8326 13.9413 15.7318 13.863 15.647C13.7854 15.5623 13.6806 15.5199 13.5491 15.5199C13.3492 15.5199 13.2101 15.5866 13.1325 15.72C13.0927 15.7881 13.0731 15.8631 13.0731 15.9444C13.0731 16.0542 13.1039 16.1599 13.1647 16.2606C13.2255 16.3614 13.3269 16.492 13.4688 16.6525C13.6393 16.5316 13.7567 16.4329 13.821 16.3572Z" fill="white"/>
<path d="M16.8016 18.4521C16.9987 18.4521 17.1595 18.4306 17.2825 18.3882C17.516 18.3062 17.6334 18.1541 17.6334 17.9317C17.6334 17.8018 17.5754 17.701 17.4594 17.6301C17.3433 17.5606 17.1616 17.4995 16.9134 17.446L16.4898 17.3529C16.0732 17.2605 15.7853 17.1597 15.6259 17.0513C15.3561 16.87 15.2212 16.5858 15.2212 16.1994C15.2212 15.8472 15.3519 15.5539 15.6126 15.3211C15.8733 15.0877 16.2564 14.9716 16.7625 14.9716C17.1846 14.9716 17.5446 15.0814 17.8424 15.3017C18.1402 15.5213 18.2967 15.8409 18.3114 16.2592H17.5069C17.4922 16.0223 17.3874 15.8541 17.1916 15.7547C17.0609 15.6887 16.8988 15.6561 16.7051 15.6561C16.4898 15.6561 16.3172 15.6992 16.1886 15.7839C16.06 15.8694 15.9957 15.9889 15.9957 16.1418C15.9957 16.2821 16.0593 16.3877 16.1858 16.4565C16.2676 16.5031 16.4409 16.5573 16.7072 16.6191L17.3978 16.7817C17.7005 16.8533 17.9284 16.9485 18.0829 17.0673C18.3219 17.2521 18.4414 17.5203 18.4414 17.8712C18.4414 18.2221 18.3016 18.5293 18.0213 18.7669C17.7417 19.0046 17.3461 19.1234 16.8351 19.1234C16.3242 19.1234 15.9027 19.0066 15.6042 18.7725C15.3051 18.5383 15.1555 18.2166 15.1555 17.8073H15.9544C15.9796 17.9873 16.0299 18.1214 16.104 18.2103C16.2396 18.3722 16.4724 18.4535 16.8023 18.4535L16.8016 18.4521Z" fill="white"/>
<path d="M20.3574 18.6091C20.3505 18.6182 20.3323 18.6446 20.3029 18.689C20.2736 18.7335 20.2393 18.7724 20.1995 18.8065C20.0778 18.9135 19.9611 18.9864 19.8479 19.0253C19.7346 19.0642 19.6018 19.0837 19.4495 19.0837C19.0112 19.0837 18.7155 18.9288 18.5638 18.6189C18.4785 18.4479 18.4359 18.1964 18.4359 17.8629V16.1084H19.2293V17.8629C19.2293 18.0282 19.2495 18.1533 19.2894 18.2367C19.36 18.3847 19.4984 18.4583 19.7053 18.4583C19.9702 18.4583 20.1512 18.3534 20.2491 18.1436C20.2994 18.0296 20.3253 17.8795 20.3253 17.6926V16.1091H21.111V19.0191H20.3581V18.6077L20.3574 18.6091Z" fill="white"/>
<path d="M22.7115 16.674C22.4487 16.674 22.2684 16.7838 22.1705 17.0027C22.1195 17.1187 22.0943 17.266 22.0943 17.446V19.0212H21.3226V16.1161H22.0699V16.5406C22.1691 16.3912 22.2635 16.2835 22.3523 16.2175C22.5116 16.1001 22.7136 16.041 22.9583 16.041C23.2645 16.041 23.5147 16.1195 23.7097 16.2773C23.9047 16.435 24.0019 16.6963 24.0019 17.061V19.0212H23.2085V17.2507C23.2085 17.0979 23.1876 16.9804 23.1463 16.8985C23.0701 16.7491 22.9254 16.674 22.7115 16.674Z" fill="white"/>
<path d="M25.5712 16.674C25.3084 16.674 25.1281 16.7838 25.0302 17.0027C24.9792 17.1187 24.954 17.266 24.954 17.446V19.0212H24.1823V16.1161H24.9295V16.5406C25.0288 16.3912 25.1232 16.2835 25.2119 16.2175C25.3713 16.1001 25.5733 16.041 25.818 16.041C26.1241 16.041 26.3744 16.1195 26.5694 16.2773C26.7644 16.435 26.8616 16.6963 26.8616 17.061V19.0212H26.0682V17.2507C26.0682 17.0979 26.0472 16.9804 26.006 16.8985C25.9298 16.7491 25.7851 16.674 25.5712 16.674Z" fill="white"/>
<path d="M28.2413 18.2568L28.8529 16.1104H29.6764L28.66 18.9725C28.4643 19.5242 28.3098 19.8668 28.1952 19.9988C28.0806 20.1308 27.8527 20.1975 27.5102 20.1975C27.441 20.1975 27.3857 20.1975 27.3445 20.1962C27.3026 20.1955 27.2404 20.192 27.1572 20.1871V19.5784L27.255 19.584C27.3312 19.5875 27.4032 19.5847 27.4724 19.5757C27.5409 19.5666 27.5989 19.5465 27.6465 19.5145C27.6919 19.4839 27.7338 19.4207 27.773 19.3248C27.8121 19.2289 27.8275 19.1699 27.8205 19.1483L26.7336 16.1097H27.5947L28.2413 18.2568Z" fill="white"/>
<path d="M15.7552 8.10721C14.3977 9.94509 13.2605 11.8399 12.3441 13.7911C11.6178 15.3225 10.9629 17.1945 10.3792 19.4069C9.79555 21.6193 9.50407 23.4349 9.50407 24.8531H4.21758C4.37206 20.4283 5.89656 15.8277 8.7897 11.0513C10.6588 8.08984 12.2246 6.02544 13.4869 4.85671H0.57373L0.645027 0.5H18.9335V4.29527C18.1716 5.01027 17.1126 6.28115 15.7552 8.10721Z" fill="white"/>
<path d="M33.1811 10.7108C31.5853 9.33849 29.7155 8.65128 27.5723 8.65128C26.5127 8.65128 25.6138 8.78191 24.8756 9.04318C24.4353 9.2023 23.8223 9.5254 23.0359 10.0132L23.9648 4.61837H34.556V0.5H20.2853L18.4638 14.1316L23.0359 14.3358C23.4406 13.5986 24.0424 13.0935 24.84 12.8211C25.2922 12.6738 25.8284 12.6001 26.4477 12.6001C27.7569 12.6001 28.7215 13.0337 29.3408 13.9016C29.9601 14.7694 30.2698 15.8332 30.2698 17.093C30.2698 18.3528 29.9391 19.4388 29.2786 20.2838C28.6173 21.1287 27.6555 21.5519 26.3938 21.5519H18.5721C19.0013 22.3489 19.5794 23.0347 20.3035 23.6107C21.8867 24.8705 23.911 25.5 26.3757 25.5C29.4359 25.5 31.7342 24.6036 33.2698 22.8109C34.8062 21.0182 35.5737 18.9816 35.5737 16.7011C35.5737 14.0801 34.7762 12.0838 33.1811 10.7108ZM25.7403 11.5287L26.6832 9.2023L27.6968 11.5287H25.7403ZM34.0073 14.7027L32.0543 16.3328L31.4944 14.4693L34.0073 14.7027ZM29.3667 12.1269L31.5762 10.9151L30.8835 13.3547L29.3667 12.1269ZM26.5602 24.489L25.5977 22.1418L27.5535 22.1835L26.5602 24.489ZM28.978 21.4872L30.5473 20.3261L31.1882 22.7519L28.978 21.4872ZM31.2721 19.3277L32.0103 17.5273L33.8214 19.2735L31.2721 19.3277Z" fill="white"/>
</g>
</svg>
