<svg width="95" height="28" viewBox="0 0 95 28" fill="none" xmlns="http://www.w3.org/2000/svg">
<g id="Layer_1" clip-path="url(#clip0_8988_2109)">
<path id="Vector" d="M9.695 0.944128C9.8622 1.32868 10.1312 1.71324 10.3805 2.05371C12.1589 4.47504 14.7854 5.95094 17.8178 4.78663C18.1157 4.67263 18.5337 4.4948 18.7282 4.2516C18.7875 4.29568 18.8134 4.35648 18.8331 4.4264C18.9152 4.71519 18.9547 5.3931 18.9806 5.72598C19.5353 12.8684 17.4408 20.2874 12.0814 25.2227C11.5615 25.7015 10.3699 26.7427 9.76492 27.0102C9.7026 27.0376 9.66156 27.0695 9.58405 27.068C9.47005 27.0665 8.80582 26.6014 8.6599 26.4965C4.62284 23.607 1.8124 18.6777 0.754493 13.8715C0.0461833 10.6522 0.134342 7.60923 0.333459 4.35648C0.347139 4.12392 0.506737 4.36864 0.567536 4.4036C4.00117 6.36741 7.14448 4.5024 9.13109 1.60532C9.20861 1.49132 9.44117 1.02773 9.48981 0.983648C9.55061 0.928929 9.61901 0.919809 9.695 0.944128ZM6.62161 9.70832C6.83744 9.77216 7.1232 9.93024 7.34968 9.93784C7.74943 9.95 8.35286 9.61864 8.79366 9.61408C9.01861 9.61104 9.29677 9.72352 9.44573 9.89528L9.56125 9.82536V5.85974C9.56125 5.60742 9.43661 5.3931 9.21317 5.27607C8.69334 5.00247 8.11271 5.37638 7.57919 5.4159C7.24176 5.44174 6.95296 5.34294 6.62313 5.32318V9.70832H6.62161ZM9.65396 5.62718V9.87248L9.7482 9.92264C10.4003 9.23713 11.1739 9.95608 11.8579 9.93024C12.0145 9.92416 12.6392 9.77976 12.6392 9.5928V5.39462C12.6392 5.38398 12.5571 5.30039 12.5237 5.29583C12.2212 5.38702 11.9567 5.4387 11.636 5.41742C10.9292 5.37182 10.1723 4.79879 9.65244 5.6287L9.65396 5.62718ZM6.48025 5.88254L6.03338 5.92662L5.98778 10.3406L6.10634 10.5246L8.83166 10.3118C8.87422 10.3194 8.86814 10.6446 9.00949 10.7039C9.13413 10.7556 9.98988 10.7571 10.1221 10.7145C10.2544 10.672 10.3851 10.4501 10.306 10.3148L13.121 10.5398L13.1986 10.4774V5.95246C13.0876 5.82478 12.8854 5.89926 12.7319 5.88254V9.73112C12.7319 9.73112 12.6848 9.82992 12.6742 9.83752C12.3291 9.95 12.051 10.0108 11.6801 9.98952C11.1739 9.96064 10.5614 9.57608 10.1115 9.81624C9.97164 9.89072 9.733 10.2221 9.67676 10.2251C9.45789 10.2418 9.42293 10.0184 9.25573 9.89376C8.7891 9.5472 8.39998 9.83296 7.93639 9.92568C7.69167 9.97432 6.48025 10.0716 6.48025 9.68248V5.8795V5.88254ZM5.77498 6.53005L5.7613 6.39325C5.7081 6.32181 5.05755 6.32333 5.00891 6.39325L5.03171 7.40252C5.15027 7.42684 5.70962 7.46939 5.73394 7.35236L5.36459 6.89332L5.77498 6.53157V6.53005ZM13.4326 7.37516C13.5664 7.42531 14.1425 7.46939 14.2048 7.3782L14.182 6.36893C14.0589 6.33549 13.4326 6.30357 13.4326 6.46469L13.8521 6.9298L13.4326 7.37364V7.37516ZM5.73394 9.05625H4.98763V10.0123L5.06363 10.0792C5.20043 9.9728 5.70202 10.1613 5.73394 10.0123L5.36459 9.55328C5.48162 9.38761 5.7157 9.27817 5.73394 9.05625ZM14.2261 9.05625H13.5497L13.4797 9.17177L13.8506 9.47881V9.54416C13.7807 9.65664 13.4402 9.87248 13.4797 10.0108C13.6439 10.1613 13.8917 9.95912 14.1105 10.0838L14.2261 10.0123V9.05625ZM18.5884 11.5293H0.579696C0.420098 11.5293 0.594895 11.7907 0.600975 11.8348C0.95361 14.1619 1.45216 16.3157 2.42647 18.4908C2.59215 18.6108 2.53287 18.9346 2.82166 18.7628L9.53541 12.04L9.67372 11.9928L16.4878 18.8115C16.5379 18.8115 16.5744 18.8236 16.6094 18.778C16.7127 18.6458 16.7994 18.2916 16.8754 18.1229C17.7068 16.2792 18.2221 14.4172 18.523 12.4914C18.5504 12.3181 18.7693 11.5885 18.5869 11.5293H18.5884ZM12.2364 20.2372L9.6798 17.6852L9.54757 17.6456C9.28157 17.9253 8.97453 18.1685 8.6979 18.4345C7.64607 19.4438 6.61401 20.4986 5.5941 21.5338C5.49378 21.6356 4.88275 22.2345 4.84931 22.2937C4.72468 22.5172 4.94659 22.5506 5.02107 22.6479C6.04098 23.9855 7.24632 25.2607 8.61734 26.2715C8.74958 26.3688 9.53997 26.9282 9.62356 26.916C10.2604 26.5102 10.8715 26.0602 11.4536 25.5739C12.279 24.8838 13.5907 23.5872 14.2093 22.7087C14.2823 22.6053 14.4297 22.3834 14.3218 22.2801C13.6469 21.5794 12.9265 20.9212 12.2364 20.2372Z" fill="white"/>
<path id="Vector_2" d="M31.7682 10.0124C31.7682 10.0336 31.8107 10.0899 31.8168 10.1507C31.8548 10.5216 31.8168 10.8879 32.2348 11.087C32.5114 11.2192 33.1422 11.1204 32.7957 11.5536L29.4107 11.5339L29.3909 11.204C30.0628 11.1827 30.3698 10.9821 30.42 10.2966C30.5112 9.03653 30.5081 7.02864 30.42 5.76706C30.3713 5.06027 30.1023 4.83227 29.3909 4.81251C29.3894 4.69851 29.3636 4.52068 29.4836 4.46292C30.6115 4.46748 31.7849 4.3778 32.9158 4.43708C34.1287 4.50092 35.1957 5.00099 35.179 6.37505C35.1699 7.11072 34.6729 7.80231 33.9493 7.98623C33.8095 8.06679 34.1211 8.25526 34.1819 8.3495C34.5543 8.93621 35.2352 10.8149 35.7581 11.1128C35.8858 11.1858 36.0074 11.2162 36.1563 11.2055C36.1655 11.3651 36.1852 11.5415 35.9922 11.5764C35.5119 11.6661 34.761 11.5171 34.2503 11.5719C34.0071 11.0307 33.7928 10.4684 33.5313 9.93484C33.1848 9.23261 32.7166 8.09718 31.7712 8.21878C31.8016 8.80701 31.7302 9.43173 31.7712 10.0154L31.7682 10.0124ZM31.7682 4.85659V7.84183C32.402 7.84791 32.9401 7.83423 33.3535 7.30376C33.7426 6.8052 33.7821 6.20785 33.5313 5.63634C33.2122 4.90979 32.4795 4.83379 31.7682 4.85659Z" fill="white"/>
<path id="Vector_3" d="M78.0773 5.0238C80.0518 3.61934 82.6585 4.23645 83.7666 6.39482C84.7956 8.39815 83.6191 10.856 81.5398 11.5415C77.3599 12.9186 74.4902 7.57584 78.0788 5.0238H78.0773ZM81.6128 5.21228C80.5564 4.23797 79.1002 4.67116 78.4497 5.88867C77.6836 7.32504 77.7262 9.42565 78.8403 10.6675C79.5821 11.4943 80.8969 11.5415 81.6872 10.7587C83.0248 9.43781 82.9808 6.47538 81.6128 5.21228Z" fill="white"/>
<path id="Vector_4" d="M93.4215 4.43707C93.5234 4.46595 93.5796 4.64682 93.496 4.74562C93.4276 4.82618 93.0263 4.84746 92.8409 4.97666C92.7072 5.06938 92.5506 5.28977 92.5217 5.45089L92.5126 11.3666C92.502 11.6281 92.2588 11.5749 92.0657 11.5779L87.5651 5.92969C87.3872 6.01328 87.5179 6.22304 87.521 6.37048C87.5559 7.72326 87.4982 9.08516 87.5088 10.4364C87.5788 11.0307 87.9891 11.207 88.5455 11.201C88.5546 11.4092 88.5728 11.546 88.3372 11.5764C87.9405 11.6296 86.5376 11.6296 86.1409 11.5764C86.0892 11.5703 86.039 11.5703 85.998 11.5323L85.9326 11.201C86.5284 11.207 86.951 11.0323 87.0072 10.3863C87.144 8.845 86.9039 7.09855 87.0012 5.53601C86.913 4.9797 86.4494 4.78666 85.9326 4.80946L85.9752 4.50091C86.0314 4.42947 86.1089 4.44011 86.1865 4.43251C86.5832 4.39451 87.6289 4.38235 88.0104 4.43251C88.0621 4.43859 88.1107 4.44011 88.1518 4.47811L91.5337 8.78268L92.0201 9.33292C92.0095 8.24765 92.1159 7.07271 92.046 5.99504C91.9943 5.1925 91.8119 4.79122 90.9242 4.80794C90.8938 4.68482 90.9364 4.43403 91.0884 4.43403H93.4215V4.43707Z" fill="white"/>
<path id="Vector_5" d="M44.0374 10.0124C44.0434 10.1401 44.0495 10.4228 44.0693 10.5398C44.159 11.0475 44.6362 11.2238 45.1105 11.201L45.0451 11.5324C45.0041 11.5704 44.9539 11.5704 44.9022 11.5765C44.5055 11.6297 43.1026 11.6297 42.7059 11.5765C42.4703 11.5446 42.4885 11.4093 42.4976 11.201C43.1527 11.2238 43.516 10.9563 43.5722 10.2936C43.6999 8.80707 43.478 7.13661 43.5662 5.63184C43.4978 5.03449 43.0767 4.77913 42.4976 4.81105C42.49 4.65145 42.4687 4.47513 42.6618 4.43865L44.7168 4.48121C45.8644 5.93887 46.9998 7.40869 48.1732 8.84203C48.272 8.96211 48.3815 9.25242 48.5623 9.2889V5.58016C48.5623 5.55584 48.4635 5.28072 48.4407 5.23512C48.2568 4.86729 47.8647 4.80953 47.4877 4.81105C47.4573 4.68793 47.4999 4.43713 47.6519 4.43713H49.985C50.058 4.43713 50.1507 4.63625 50.0595 4.74569C49.9942 4.82321 49.5898 4.85209 49.4044 4.97673C49.2691 5.06792 49.1034 5.27768 49.0776 5.44336C49.0502 5.62576 49.035 5.98143 49.0259 6.18511C48.9454 7.93156 49.1095 9.73578 49.0047 11.4822C48.9423 11.6114 48.6399 11.6084 48.535 11.5324C47.2172 9.90601 45.951 8.23708 44.6408 6.60614C44.583 6.5347 44.5146 6.45718 44.4554 6.38575C44.3277 6.23223 44.1894 6.06199 44.0358 5.92975V10.0124H44.0374Z" fill="white"/>
<path id="Vector_6" d="M65.6865 4.43713C65.6957 4.91137 65.723 5.38408 65.7337 5.85983C65.7413 6.19423 65.9191 6.39943 65.3658 6.34471C65.3415 5.82639 65.0193 5.22296 64.5314 5.01017C64.4432 4.97217 63.9279 4.85817 63.8443 4.85817H62.3745V7.54093C62.4703 7.64885 62.6785 7.61845 62.8168 7.60933C63.6376 7.55613 63.7273 7.12902 63.8246 6.40247L64.1924 6.39791V9.31322C64.0966 9.42874 63.9142 9.38162 63.7774 9.37858C63.7425 8.47116 63.3427 7.93764 62.373 8.03036V9.91969C62.373 10.0215 62.5174 10.5003 62.5706 10.6082C62.9171 11.3059 64.3854 11.2451 64.9873 10.9487C65.6455 10.6234 65.8173 9.96377 65.9692 9.29498L66.3386 9.29042L66.2444 11.5765H60.1097C60.0109 11.5765 59.9653 11.2922 59.9927 11.2026C60.8819 11.1965 60.9792 10.7314 61.0217 9.96833C61.0871 8.79339 61.0916 7.17005 61.0217 5.99815C60.9761 5.24576 60.853 4.81713 59.9927 4.81105C59.9653 4.72289 60.0109 4.43713 60.1097 4.43713H65.685H65.6865Z" fill="white"/>
<path id="Vector_7" d="M25.9133 4.43707C27.1718 4.51155 27.9941 5.34449 27.8953 6.65168C27.8315 7.4983 27.0274 8.16861 26.1929 8.16861H24.5134L24.4434 8.23853V10.292C24.4434 10.4334 24.5863 10.8651 24.6988 10.9699C24.8918 11.1493 25.5105 11.1994 25.5424 11.245C25.6017 11.3256 25.5637 11.5065 25.4694 11.5521L22.1042 11.5475L22.0632 11.201C22.8095 11.1766 23.042 10.9198 23.0922 10.1993C23.1758 9.00156 23.194 6.90551 23.0846 5.72449C23.0481 5.33993 22.966 5.02834 22.5724 4.88394C22.3976 4.8201 21.9917 4.84594 22.0708 4.56171C22.0799 4.52827 22.165 4.43555 22.1802 4.43555H25.9133V4.43707ZM24.4434 7.7491H25.2126C25.4679 7.7491 25.8768 7.56822 26.0546 7.37822C26.6657 6.72311 26.5334 5.42505 25.7172 5.00554C25.6549 4.97362 25.3478 4.85658 25.3053 4.85658H24.4419V7.7491H24.4434Z" fill="white"/>
<path id="Vector_8" d="M64.1225 15.4006C64.9645 15.501 65.7732 16.0633 65.8264 16.9617C65.8917 18.0287 65.2503 18.5485 64.2851 18.7826C64.4052 18.8859 64.5602 18.9361 64.6803 19.041C65.0101 19.3283 65.381 20.3345 65.612 20.7677C65.9236 21.3529 66.1091 21.8925 66.7475 22.1539C66.8174 22.1828 66.8736 22.1265 66.8508 22.2588H65.2412C64.732 21.3681 64.431 20.2235 63.7911 19.4164C63.4643 19.006 63.0585 18.7613 62.5098 18.8723L62.4657 18.968C62.5569 19.6794 62.2164 21.4623 62.8153 21.9305C62.9916 22.0688 63.215 22.1053 63.4233 22.163C63.4978 22.1843 63.5601 22.1129 63.5373 22.2573H60.3651C60.3423 22.1205 60.397 22.1813 60.4745 22.1585C61.2406 21.9259 61.385 21.7861 61.4412 20.9303C61.5203 19.7128 61.499 18.0469 61.4412 16.8203C61.4184 16.3415 61.3835 15.7745 60.8804 15.5633L60.3666 15.4006H64.1225ZM62.4672 18.8069H63.2363C64.7487 18.8069 65.1895 16.3917 63.9157 15.7016C63.8154 15.6469 63.329 15.4934 63.2363 15.4934H62.4672V18.8054V18.8069Z" fill="white"/>
<path id="Vector_9" d="M74.7364 4.43713L74.8291 6.53622L74.4567 6.58334C74.3868 6.04679 74.1877 5.45856 73.7028 5.16672C73.1845 4.85209 72.4336 4.89465 71.8423 4.85665L71.8484 10.2389C71.9107 10.929 72.157 11.1889 72.8683 11.201L72.8486 11.5309L69.4605 11.5537L69.4165 11.201C69.6445 11.2056 70.0655 11.125 70.2342 10.9685C70.33 10.8788 70.4896 10.4562 70.4896 10.3377V4.85665C69.9758 4.90833 69.2812 4.85969 68.8145 5.07248C68.2294 5.33848 68.0014 5.98751 67.9223 6.58334L67.5499 6.53622L67.5955 4.43713H74.7333H74.7364Z" fill="white"/>
<path id="Vector_10" d="M57.696 4.65904C57.7461 4.60736 57.7325 4.47665 57.8313 4.44473C57.9301 4.41281 58.0684 4.44929 58.1732 4.43713L58.2553 6.75509C58.2371 6.91773 57.9787 7.04085 57.8693 6.90861C57.7857 6.80829 57.5941 6.12886 57.4953 5.92974C56.7323 4.38241 55.0193 4.25929 54.0465 5.69871C52.9004 7.395 53.1528 11.0232 55.723 11.1524C57.05 11.2193 57.7796 10.5322 57.9407 9.24178L58.3116 9.23874C58.3146 11.5126 56.0787 12.1434 54.2046 11.5491C52.2028 10.9138 51.5796 8.80402 52.0721 6.89645C52.6877 4.51312 55.454 3.65586 57.5485 4.7016C57.5926 4.70768 57.6625 4.6864 57.6929 4.65448L57.696 4.65904Z" fill="white"/>
<path id="Vector_11" d="M40.9123 4.811C40.0049 4.81708 39.8802 5.25027 39.8362 6.04522C39.7723 7.2156 39.7571 8.89822 39.8362 10.061C39.8894 10.8362 40.0581 11.201 40.9108 11.2025L40.9047 11.5232L37.5045 11.5536C37.2005 11.1539 37.6215 11.2253 37.8875 11.1432C38.3359 11.0049 38.4043 10.7754 38.4788 10.3346C38.4013 8.85262 38.6019 7.23232 38.4864 5.76706C38.4302 5.04811 38.1307 4.80796 37.4118 4.81252C37.3829 4.51916 37.4331 4.4614 37.7127 4.43708C38.6764 4.35044 39.7693 4.50548 40.7466 4.44012C40.9412 4.4766 40.9184 4.65292 40.9108 4.81252L40.9123 4.811Z" fill="white"/>
<path id="Vector_12" d="M58.2203 15.4006L58.3131 17.0331L58.0258 16.3172C57.7704 15.8673 57.126 15.4934 56.6107 15.4934H54.9539V18.5728H55.723C55.7869 18.5728 56.068 18.474 56.144 18.4345C56.6137 18.1928 56.5499 17.8752 56.673 17.4678C56.6958 17.3918 56.635 17.3371 56.7718 17.3599L56.7247 20.0183C56.5924 20.0396 56.6441 19.991 56.6259 19.9074C56.3918 18.8586 56.0802 18.6184 54.9524 18.6655V20.6491C54.9524 20.7859 55.039 21.2571 55.0968 21.3909C55.5041 22.35 57.3813 22.2816 58.079 21.7237C58.6201 21.2921 58.5608 20.8756 58.8025 20.3451C58.8344 20.2737 58.7964 20.2296 58.9165 20.2524L58.8238 22.2588H52.8518C52.829 22.122 52.8837 22.1828 52.9612 22.16C53.7501 21.9198 53.8443 21.8301 53.8808 20.9774C53.9477 19.4149 53.8382 17.7946 53.8656 16.2305C53.8352 16.0086 53.709 15.8855 53.5966 15.7061L52.8518 15.4006H58.2173H58.2203Z" fill="white"/>
<path id="Vector_13" d="M32.9583 15.4006L34.6531 17.483C35.4557 18.4421 36.1746 19.5943 37.003 20.5002C37.044 20.5458 37.044 20.6005 37.1337 20.5792V16.4509C37.1337 16.302 36.962 15.8688 36.8571 15.7487C36.7887 15.6712 36.699 15.6195 36.6063 15.58L36.0606 15.4022H38.3467L37.8937 15.5329C37.804 15.5678 37.5836 15.7031 37.5274 15.773C37.4408 15.8779 37.2736 16.3263 37.2736 16.4525V22.2603L37.0881 22.236C35.6898 20.5397 34.3582 18.7871 32.9811 17.0711C32.7942 16.8385 32.5814 16.571 32.3884 16.3476C32.3595 16.3141 32.3899 16.2594 32.282 16.2883V21.1644C32.282 21.2146 32.361 21.5033 32.3853 21.5733C32.5388 22.0065 32.8459 22.0657 33.2411 22.1661C33.3186 22.1858 33.3779 22.1189 33.3551 22.2603H31.069C31.0462 22.1265 31.0979 22.1828 31.1769 22.1615C31.3928 22.1022 31.6071 22.0946 31.7925 21.935C32.0175 21.742 32.1224 21.3133 32.1436 21.0261C32.2364 19.8055 32.2227 17.866 32.1436 16.6364C32.1193 16.2473 32.0099 15.7472 31.6132 15.58L31.0675 15.4022H32.9568L32.9583 15.4006Z" fill="white"/>
<path id="Vector_14" d="M90.4135 15.4006L89.6809 15.6484C89.4316 15.9873 89.6748 16.3597 89.8542 16.6729C90.1643 17.214 90.5914 17.8554 90.9531 18.3828C91.0094 18.4649 91.1887 18.7598 91.2754 18.7598C91.6097 18.1959 91.9685 17.6472 92.3074 17.0848C92.3469 17.0179 92.4199 16.9769 92.4579 16.9085C92.6889 16.4996 92.8941 16.1196 92.578 15.6834L91.9517 15.4006H94.1907L93.6192 15.6347C93.2133 16.0025 92.9184 16.4707 92.6129 16.9252C92.3561 17.3067 91.5246 18.4953 91.4046 18.8419C91.2845 19.1884 91.3134 20.6932 91.3438 21.1173C91.3514 21.2267 91.3772 21.4775 91.403 21.5717C91.5094 21.9593 91.9335 22.0749 92.2588 22.1645C92.3333 22.1858 92.3956 22.1144 92.3728 22.2588H89.2006C89.1778 22.122 89.2325 22.1828 89.3085 22.16C89.4544 22.1159 89.6064 22.0977 89.7493 22.0384C90.1977 21.856 90.2478 21.4167 90.2752 20.9774C90.3542 19.6915 90.3223 19.2963 89.6581 18.2308C89.3313 17.7064 88.2916 16.0162 87.8904 15.7061C87.8083 15.6423 87.6836 15.6028 87.5985 15.5314L87.1471 15.4006H90.4135Z" fill="white"/>
<path id="Vector_15" d="M86.074 15.4006L86.1196 17.22L85.7198 16.2913C85.2106 15.4721 84.0387 15.5146 83.1814 15.4949V21.4441C83.1814 21.4608 83.3122 21.7131 83.338 21.7541C83.5523 22.0946 83.756 22.0566 84.0995 22.1615C84.1755 22.1843 84.2302 22.1235 84.2074 22.2603H81.0352C81.0124 22.1189 81.0702 22.1858 81.1492 22.1661C81.5444 22.0657 81.8499 22.0065 82.005 21.5733C82.0308 21.5033 82.1083 21.2146 82.1083 21.1644V15.4964C81.4167 15.5298 80.4181 15.4721 79.8679 15.9387C79.5198 16.2336 79.3785 16.6835 79.2614 17.1076C79.2401 17.182 79.3116 17.2459 79.1687 17.2216L79.2614 15.4022H86.0724L86.074 15.4006Z" fill="white"/>
<path id="Vector_16" d="M68.3921 20.1597C68.4407 20.0989 68.4742 20.1627 68.497 20.2175C68.5669 20.3862 68.6064 20.6324 68.6839 20.8239C68.9621 21.5262 69.4546 22.2314 70.2784 22.2588C71.277 22.2922 71.8196 21.6994 71.7452 20.7023C71.6114 18.8951 68.8587 19.2097 68.6368 17.4192C68.4711 16.077 69.6643 14.9598 70.9943 15.2958C71.277 15.3672 71.8896 15.7274 72.1252 15.6119C72.2133 15.5678 72.2179 15.3809 72.3577 15.4022L72.4048 17.3614C72.2969 17.3842 72.3304 17.3493 72.3 17.3021C72.1844 17.1197 72.1966 16.9115 72.1282 16.7291C71.8333 15.957 71.3545 15.2806 70.4289 15.3611C69.453 15.4462 69.0913 16.6896 69.716 17.3918C70.6341 18.4224 72.6875 18.281 72.7803 20.2281C72.8639 21.9897 71.1083 22.73 69.5959 22.2466C69.3086 22.1539 68.9666 21.859 68.6368 22.0141C68.5258 22.0657 68.5289 22.2238 68.3921 22.2132V20.1597Z" fill="white"/>
<path id="Vector_17" d="M25.3295 15.4007L24.8386 15.539C24.3796 15.6591 24.2397 16.1652 24.2078 16.5878C24.1303 17.6655 24.1333 19.3846 24.2078 20.4637C24.2686 21.3423 24.7033 22.1844 25.6776 22.2604C26.6519 22.3364 27.9758 22.0597 28.257 20.9638V16.2276L27.953 15.6788L27.1961 15.3992H29.4821L28.8316 15.6591C28.5413 15.8734 28.4774 16.2473 28.4531 16.5878C28.3741 17.7111 28.6857 20.485 28.2601 21.3408C27.529 22.806 23.656 22.8227 23.2411 21.0109C22.9675 19.8117 23.2882 17.8524 23.1849 16.5422C23.1621 16.261 23.0602 15.8597 22.8337 15.6804L22.1102 15.4007H25.3295Z" fill="white"/>
<path id="Vector_18" d="M47.6307 15.4006L46.9072 15.6803C46.5773 16.0527 46.7658 16.4585 46.8829 16.872L48.4013 20.8604L48.5412 20.7206C48.9424 19.5578 49.5322 18.43 49.9532 17.2808C50.1523 16.7367 50.4639 15.9676 49.8863 15.5481L49.4501 15.4006H51.6434L50.9199 15.7745C50.7816 15.9493 50.6509 16.1348 50.5445 16.3324C49.7237 17.8554 49.102 19.8466 48.3998 21.4669C48.3132 21.6675 48.1946 21.9669 48.0988 22.1463C47.9453 22.4336 47.8389 22.122 47.769 21.9578C47.006 20.1779 46.4375 18.1016 45.5954 16.3871C45.4267 16.0436 45.2352 15.6803 44.8552 15.5405L44.3171 15.4022H47.6292L47.6307 15.4006Z" fill="white"/>
<path id="Vector_19" d="M77.7231 15.4006L77.0726 15.6606C76.7564 15.8931 76.7184 16.2199 76.6941 16.5893C76.6105 17.86 76.6196 19.7037 76.6941 20.979C76.7427 21.8073 76.8583 21.932 77.6137 22.16C77.6912 22.1828 77.7444 22.122 77.7231 22.2588H74.5965C74.5737 22.122 74.6284 22.1828 74.706 22.16C75.2045 22.008 75.4903 21.9685 75.5997 21.3726C75.5708 19.8116 75.7198 18.1412 75.6256 16.5877C75.5982 16.1241 75.5495 15.8019 75.1057 15.5678L74.5965 15.4006H77.7231Z" fill="white"/>
<path id="Vector_20" d="M43.1056 15.4007L42.5934 15.5648C42.1693 15.7153 42.069 16.2352 42.031 16.6349C42.1465 18.0698 41.8775 19.7417 42.0462 21.1492C42.1359 21.8971 42.3593 21.9655 42.9977 22.16C43.0737 22.1828 43.1284 22.122 43.1072 22.2588H39.935C39.9137 22.1251 39.9638 22.1813 40.0429 22.1585C40.7557 21.9594 40.9488 21.8317 41.0096 21.0231C41.1008 19.8117 41.0932 17.8509 41.0096 16.6334C40.9777 16.1546 40.8758 15.7199 40.3879 15.5284L39.935 15.3992H43.1072L43.1056 15.4007Z" fill="white"/>
<path id="Vector_21" d="M8.15986 8.40266L8.60369 8.82217C8.70857 8.84193 8.66753 8.77657 8.67361 8.70665C8.68273 8.58657 8.68273 8.46801 8.62649 8.35706H8.81345C8.83625 8.37378 8.76633 8.41634 8.76633 8.42698V9.10336L8.2769 8.63825C8.16442 8.72337 8.21458 8.86929 8.20242 8.99089L8.2997 9.10336H8.06714L8.15986 9.05777V8.40418V8.40266Z" fill="white"/>
<path id="Vector_22" d="M7.88021 8.35559V8.49543L7.60053 8.40271V8.68239C7.77837 8.70519 7.86653 8.52735 7.83309 8.79942L7.75709 8.72951H7.60053V9.03046C7.60661 9.07606 7.76469 9.06694 7.80421 9.05782C7.86045 9.04414 7.80421 8.94382 7.88021 8.96358V9.10342H7.41509L7.50325 9.03806L7.41357 8.35863H7.88021V8.35559Z" fill="white"/>
<path id="Vector_23" d="M8.39393 7.1897V7.32954L8.15986 7.25962V7.51649L8.39241 7.46937V7.65633L8.31642 7.56209L8.15834 7.58945V7.88889L8.39241 7.93449H7.9729C8.0489 7.71257 8.0489 7.41313 7.9729 7.1897H8.39241H8.39393Z" fill="white"/>
<path id="Vector_24" d="M7.32081 6.06958C7.23417 6.2307 7.40745 6.36598 7.41505 6.53621C7.53969 6.45413 7.63849 6.23678 7.60809 6.09086L7.74033 6.06958L7.43785 6.76877C7.31473 6.76877 7.22658 6.10302 7.04114 6.1167L7.32081 6.0711V6.06958Z" fill="white"/>
<path id="Vector_25" d="M8.86055 7.1897C8.44864 7.45265 9.12655 7.49673 9.04143 7.80985C8.97455 7.96945 8.80583 7.94209 8.65992 7.93753L8.5824 7.79617L8.90919 7.88889C8.96391 7.67001 8.78911 7.67761 8.70096 7.56209C8.57024 7.39185 8.6432 7.19122 8.86359 7.1897H8.86055Z" fill="white"/>
<path id="Vector_26" d="M8.11427 6.06958V6.34926L8.34683 6.30214V6.48909L8.27083 6.39486H8.11427C8.12643 6.48757 8.09299 6.60917 8.11427 6.69277C8.12795 6.74749 8.22827 6.69277 8.20851 6.76877H7.97595L7.92883 6.06958H8.11579H8.11427Z" fill="white"/>
<path id="Vector_27" d="M7.78752 7.1897V7.32954C7.38777 7.02402 7.53217 7.61985 7.50481 7.86457L7.64768 7.93601H7.32089C7.30113 7.86001 7.40145 7.91473 7.41513 7.86001C7.43185 7.79313 7.42273 7.31738 7.39385 7.27938C7.34825 7.21706 7.21753 7.27938 7.22665 7.1897H7.786H7.78752Z" fill="white"/>
<path id="Vector_28" d="M8.90766 6.07104C8.83166 6.2808 8.83318 6.562 8.90766 6.77023H8.7207C8.79518 6.562 8.7967 6.2808 8.7207 6.07104H8.90766Z" fill="white"/>
<path id="Vector_29" d="M10.9126 7.23687L11.1755 7.8935L11.3807 7.89046C11.3686 7.79622 11.4157 7.23687 11.4978 7.23839L11.7774 7.70351L12.0799 7.23839C12.086 7.41319 12.1042 7.66703 12.165 7.82814C12.1985 7.91934 12.2729 7.8631 12.2669 7.93758H12.0343C12.0039 7.90718 12.1058 7.55151 11.9416 7.51807L11.7303 7.93758L11.5434 7.56519C11.4567 7.53175 11.4202 7.84182 11.4233 7.86462C11.4309 7.91782 11.5418 7.86006 11.5206 7.9391H11.0098C11.0281 7.86006 10.8989 7.47551 10.8442 7.47399C10.7682 7.47247 10.794 7.59711 10.791 7.62447C10.7803 7.71111 10.8624 7.67159 10.6831 7.78254L10.7287 7.94062H10.4961C10.6937 7.75975 10.6876 7.52111 10.8183 7.30831C10.8426 7.26879 10.794 7.21559 10.9156 7.24143L10.9126 7.23687Z" fill="white"/>
<path id="Vector_30" d="M10.8199 8.35552C10.715 8.52272 10.8412 8.67928 10.9369 8.82064C11.0935 8.70208 11.1178 8.54248 11.1011 8.354H11.288L10.9156 9.07751L10.566 8.40112C10.4627 8.5592 10.411 8.38288 10.2636 8.40112C10.2377 8.42392 10.2104 8.9468 10.2286 8.98631C10.2636 9.05927 10.3654 9.02431 10.3563 9.10031H10.0295L10.1222 9.05471V8.40112H9.88965V8.354H10.8229L10.8199 8.35552Z" fill="white"/>
<path id="Vector_31" d="M11.8459 8.86929C11.9097 8.74161 11.9659 8.59569 12.0282 8.46953C12.0526 8.41938 12.0039 8.38138 12.1255 8.40266C12.1316 8.57745 12.1498 8.83129 12.2106 8.99241C12.2441 9.08361 12.3186 9.02737 12.3125 9.10185L12.0814 9.09881C12.0267 9.04561 12.1118 8.71425 11.9857 8.68233L11.7759 9.10185L11.5434 8.72945L11.4689 9.02889L11.5662 9.10336H11.3336L11.5206 8.35706L11.8459 8.86929Z" fill="white"/>
<path id="Vector_32" d="M10.4459 6.53621L10.4475 6.06958L10.5873 6.0711L10.5402 6.77029L10.028 6.34926L10.0264 6.77029L9.8866 6.76877L9.93372 6.06958L10.4459 6.53621Z" fill="white"/>
<path id="Vector_33" d="M11.9401 6.07104C11.8443 6.16224 11.9933 6.49208 12.1027 6.49056C12.165 6.3644 12.276 6.21696 12.2198 6.07104H12.4067L12.0799 6.77023C11.82 6.6152 11.9006 6.21392 11.6604 6.09384L11.9401 6.07104Z" fill="white"/>
<path id="Vector_34" d="M10.5401 7.32954C10.1358 7.0225 10.2878 7.63657 10.2574 7.86457L10.4003 7.93601H10.1206L10.1617 7.31282L9.93518 7.1897H10.4246L10.5417 7.32954H10.5401Z" fill="white"/>
<path id="Vector_35" d="M11.0539 6.07104C10.8943 6.20632 10.8396 6.49968 11.0083 6.6532C11.0706 6.70943 11.1892 6.69119 11.1937 6.77023C10.9399 6.82799 10.7286 6.58328 10.7818 6.33856C10.797 6.26864 10.9445 5.98745 11.0539 6.07104Z" fill="white"/>
<path id="Vector_36" d="M11.2394 6.76874C11.2348 6.69578 11.3291 6.71554 11.3747 6.64866C11.4795 6.49666 11.4111 6.08171 11.1923 6.11515C11.1786 6.04371 11.2637 6.05891 11.3078 6.06955C11.6817 6.16379 11.6179 6.75202 11.2394 6.76874Z" fill="white"/>
</g>
<defs>
<clipPath id="clip0_8988_2109">
<rect width="94" height="26.136" fill="white" transform="translate(0.192139 0.932007)"/>
</clipPath>
</defs>
</svg>
